<?xml version="1.0" encoding="UTF-8" standalone="no"?>
<!--part of the matt icon theme by sixsixfive released under CC0 (https://creativecommons.org/publicdomain/zero/1.0/) on openclipart-->

<svg
   xmlns:dc="http://purl.org/dc/elements/1.1/"
   xmlns:cc="http://creativecommons.org/ns#"
   xmlns:rdf="http://www.w3.org/1999/02/22-rdf-syntax-ns#"
   xmlns:svg="http://www.w3.org/2000/svg"
   xmlns="http://www.w3.org/2000/svg"
   xmlns:xlink="http://www.w3.org/1999/xlink"
   xmlns:sodipodi="http://sodipodi.sourceforge.net/DTD/sodipodi-0.dtd"
   xmlns:inkscape="http://www.inkscape.org/namespaces/inkscape"
   viewBox="0 0 74.000001 74"
   id="svg3037"
   version="1.1"
   inkscape:version="0.92.4 (5da689c313, 2019-01-14)"
   width="74"
   height="74"
   sodipodi:docname="add.svg"
   inkscape:export-filename="Z:\Resources\ReadabilityStudio\ribbon\add.png"
   inkscape:export-xdpi="340.79306"
   inkscape:export-ydpi="340.79306">
  <metadata
     id="metadata3087">
    <rdf:RDF>
      <cc:Work
         rdf:about="">
        <dc:format>image/svg+xml</dc:format>
        <dc:type
           rdf:resource="http://purl.org/dc/dcmitype/StillImage" />
        <dc:title></dc:title>
      </cc:Work>
    </rdf:RDF>
  </metadata>
  <sodipodi:namedview
     pagecolor="#ffffff"
     bordercolor="#666666"
     borderopacity="1"
     objecttolerance="10"
     gridtolerance="10"
     guidetolerance="10"
     inkscape:pageopacity="0"
     inkscape:pageshadow="2"
     inkscape:window-width="951"
     inkscape:window-height="632"
     id="namedview3085"
     showgrid="false"
     inkscape:zoom="1.84375"
     inkscape:cx="-45.357964"
     inkscape:cy="63.000199"
     inkscape:window-x="0"
     inkscape:window-y="0"
     inkscape:window-maximized="0"
     inkscape:current-layer="svg3037"
     fit-margin-top="0"
     fit-margin-left="0"
     fit-margin-right="0"
     fit-margin-bottom="0" />
  <defs
     id="0">
    <linearGradient
       y1="8.7069998"
       x2="0"
       y2="120.54"
       id="B"
       xlink:href="#I"
       gradientUnits="userSpaceOnUse" />
    <linearGradient
       id="D">
      <stop
         id="b"
         stop-color="#eee" />
      <stop
         id="c"
         offset="1"
         stop-color="#eee"
         stop-opacity="0" />
    </linearGradient>
    <radialGradient
       cx="64.699997"
       cy="-15.174"
       r="55.27"
       id="E"
       xlink:href="#D"
       gradientUnits="userSpaceOnUse"
       gradientTransform="matrix(1.5330966,-3.1358239e-8,2.404893e-8,1.1240308,-33.828167,2.9909361)" />
    <radialGradient
       cx="63.894001"
       cy="117.35"
       r="53.91"
       id="F"
       xlink:href="#H"
       gradientUnits="userSpaceOnUse"
       gradientTransform="matrix(1,0,0,0.08641975,0,107.20963)" />
    <linearGradient
       id="H">
      <stop
         id="f" />
      <stop
         id="g"
         offset="1"
         stop-opacity="0" />
    </linearGradient>
    <linearGradient
       id="I">
      <stop
         id="h"
         stop-color="#f0ff80" />
      <stop
         id="i"
         offset="1"
         stop-color="#8bb300" />
    </linearGradient>
  </defs>
  <g
     transform="matrix(0.58571262,0,0,0.58571262,-0.69617,0.51418704)"
     id="2">
    <path
       d="m 117.80366,117.35108 a 53.91015,4.6589018 0 1 1 -107.8202997,0 53.91015,4.6589018 0 1 1 107.8202997,0 z"
       transform="translate(1.2996963,3.4536055)"
       id="O"
       inkscape:connector-curvature="0"
       style="opacity:0.44299999;fill:url(#F)" />
    <path
       d="m 122.08898,64.625572 a 56.734098,55.918618 0 1 1 -113.4681952,0 56.734098,55.918618 0 1 1 113.4681952,0 z"
       transform="matrix(1.0119373,0,0,1.0266947,-2.1350421,-4.4029736)"
       id="P"
       inkscape:connector-curvature="0"
       style="fill:url(#B)" />
    <path
       d="m 122.08898,64.625572 a 56.734098,55.918618 0 1 1 -113.4681952,0 56.734098,55.918618 0 1 1 113.4681952,0 z"
       transform="matrix(1.0119373,0,0,1.0266947,-2.1350421,-4.4029736)"
       id="Q"
       inkscape:connector-curvature="0"
       style="fill:none;stroke:#638000;stroke-width:3.92400002" />
    <path
       d="m 60.3125,32.15625 c -1.863454,0 -3.375,1.511546 -3.375,3.375 V 54.875 H 37.59375 c -1.863454,0 -3.375,1.511546 -3.375,3.375 v 7.40625 c 0,1.863454 1.511546,3.34375 3.375,3.34375 H 56.9375 v 19.375 c 0,1.863454 1.511546,3.34375 3.375,3.34375 h 7.375 c 1.863454,0 3.375,-1.480296 3.375,-3.34375 V 69 h 19.34375 c 1.863454,0 3.375,-1.480296 3.375,-3.34375 V 58.25 c 0,-1.863454 -1.511546,-3.375 -3.375,-3.375 H 71.0625 V 35.53125 c 0,-1.863454 -1.511546,-3.375 -3.375,-3.375 z"
       id="R"
       inkscape:connector-curvature="0"
       style="fill:#555555" />
    <g
       transform="translate(-0.00454736,5.8747942e-4)"
       id="S">
      <path
         d="m 65.34375,11.21875 c -29.979853,0 -54.21875,23.915681 -54.21875,53.40625 0,29.490569 24.238897,53.40625 54.21875,53.40625 29.979853,0 54.25,-23.917374 54.25,-53.40625 0,-29.488876 -24.270147,-53.40625 -54.25,-53.40625 z"
         transform="matrix(1.0119373,0,0,1.0266947,-2.1350421,-4.4029736)"
         id="j"
         inkscape:connector-curvature="0"
         style="fill:none;stroke:url(#E);stroke-width:2.079" />
    </g>
  </g>
</svg>
