<?xml version="1.0" encoding="UTF-8" standalone="no"?>
<svg
   viewBox="0 0 128 128"
   width="128"
   height="128"
   role="img"
   aria-labelledby="title desc"
   version="1.1"
   id="svg204"
   sodipodi:docname="app-logo.svg"
   inkscape:version="1.2.2 (b0a8486541, 2022-12-01)"
   xmlns:inkscape="http://www.inkscape.org/namespaces/inkscape"
   xmlns:sodipodi="http://sodipodi.sourceforge.net/DTD/sodipodi-0.dtd"
   xmlns:xlink="http://www.w3.org/1999/xlink"
   xmlns="http://www.w3.org/2000/svg"
   xmlns:svg="http://www.w3.org/2000/svg"
   xmlns:rdf="http://www.w3.org/1999/02/22-rdf-syntax-ns#"
   xmlns:cc="http://creativecommons.org/ns#"
   xmlns:dc="http://purl.org/dc/elements/1.1/">
  <sodipodi:namedview
     id="namedview206"
     pagecolor="#ffffff"
     bordercolor="#666666"
     borderopacity="1.0"
     inkscape:showpageshadow="2"
     inkscape:pageopacity="0.0"
     inkscape:pagecheckerboard="0"
     inkscape:deskcolor="#d1d1d1"
     showgrid="false"
     inkscape:zoom="6.0729165"
     inkscape:cx="29.969126"
     inkscape:cy="71.464839"
     inkscape:window-width="2560"
     inkscape:window-height="1368"
     inkscape:window-x="0"
     inkscape:window-y="0"
     inkscape:window-maximized="1"
     inkscape:current-layer="svg204"
     showguides="false" />
  <title
     id="title">Fry readability graph with recipe book (curved text lines, printed style)</title>
  <desc
     id="desc">Graph with autumn suns/beams and an open recipe book. Pages curve into the spine. Text lines follow the page curves with spaces, simulating printed words. Brown leather cover with gilded corners is intact, cookies on a plate on the left page.</desc>
  <defs
     id="defs38">
    <inkscape:path-effect
       effect="powerclip"
       id="path-effect532"
       is_visible="true"
       lpeversion="1"
       inverse="true"
       flatten="false"
       hide_clip="false"
       message="Use fill-rule evenodd on &lt;b&gt;fill and stroke&lt;/b&gt; dialog if no flatten result after convert clip to paths." />
    <!-- cookie gradient -->
    <radialGradient
       id="cookieGrad"
       cx="0.30000001"
       cy="0.30000001"
       r="0.69999999">
      <stop
         offset="0%"
         stop-color="#f6d6a6"
         id="stop4" />
      <stop
         offset="60%"
         stop-color="#e0ad73"
         id="stop6" />
      <stop
         offset="100%"
         stop-color="#b6783f"
         id="stop8" />
    </radialGradient>
    <!-- subtle page shading left/right -->
    <linearGradient
       id="shadeL"
       x1="2.2563043"
       y1="1.7728105"
       x2="27.075651"
       y2="1.7728105"
       gradientTransform="matrix(1.6507325,0,0,2.1587549,46.180526,41.446963)"
       gradientUnits="userSpaceOnUse">
      <stop
         offset="0"
         stop-color="#000"
         stop-opacity="0.12"
         id="stop11" />
      <stop
         offset="1"
         stop-color="#000"
         stop-opacity="0"
         id="stop13" />
    </linearGradient>
    <linearGradient
       id="shadeR"
       x1="51.895"
       y1="1.7728105"
       x2="27.075651"
       y2="1.7728105"
       gradientTransform="matrix(1.6507325,0,0,2.1587549,46.180526,41.446963)"
       gradientUnits="userSpaceOnUse">
      <stop
         offset="0"
         stop-color="#000"
         stop-opacity="0.12"
         id="stop16" />
      <stop
         offset="1"
         stop-color="#000"
         stop-opacity="0"
         id="stop18" />
    </linearGradient>
    <!-- spine radial shadow -->
    <linearGradient
       id="spineFull"
       x1="86.058121"
       y1="0.53452247"
       x2="93.541435"
       y2="0.53452247"
       gradientTransform="matrix(0.48892065,0,0,6.9794489,47.07422,43.035797)"
       gradientUnits="userSpaceOnUse">
      <stop
         offset="0"
         stop-color="#000"
         stop-opacity="0.35"
         id="stop21" />
      <stop
         offset="50%"
         stop-color="#000"
         stop-opacity="0.08"
         id="stop23" />
      <stop
         offset="100%"
         stop-color="#000"
         stop-opacity="0.35"
         id="stop25" />
    </linearGradient>
    <!-- gold gradient -->
    <linearGradient
       id="gold"
       x1="0"
       y1="0"
       x2="1"
       y2="1">
      <stop
         offset="0"
         stop-color="#fff7d6"
         id="stop28" />
      <stop
         offset="45%"
         stop-color="#ffeaa3"
         id="stop30" />
      <stop
         offset="100%"
         stop-color="#d4af37"
         id="stop32" />
    </linearGradient>
    <!-- clipping for the graph -->
    <clipPath
       id="clipGraph">
      <rect
         x="20"
         y="8"
         width="100"
         height="100"
         rx="6"
         ry="6"
         id="rect35" />
    </clipPath>
    <linearGradient
       inkscape:collect="always"
       xlink:href="#gold"
       id="linearGradient1853"
       x1="44.734436"
       y1="2.8900001"
       x2="49.110001"
       y2="7.2655635"
       gradientUnits="userSpaceOnUse"
       gradientTransform="matrix(1.8323424,0.33256297,-0.32309143,1.8860582,38.44006,49.098736)" />
    <linearGradient
       inkscape:collect="always"
       xlink:href="#gold"
       id="linearGradient1855"
       x1="1.89"
       y1="28.734438"
       x2="6.2655635"
       y2="33.110001"
       gradientUnits="userSpaceOnUse"
       gradientTransform="matrix(1.8323424,0.33256297,-0.32309143,1.8860582,38.44006,49.098736)" />
    <linearGradient
       inkscape:collect="always"
       xlink:href="#gold"
       id="linearGradient1857"
       x1="44.734436"
       y1="28.734438"
       x2="49.110001"
       y2="33.110001"
       gradientUnits="userSpaceOnUse"
       gradientTransform="matrix(1.8323424,0.33256297,-0.32309143,1.8860582,38.44006,49.098736)" />
    <radialGradient
       inkscape:collect="always"
       xlink:href="#cookieGrad"
       id="radialGradient1859"
       cx="8.7530413"
       cy="8.0641518"
       r="4.2352257"
       gradientTransform="matrix(2.056091,0,0,1.7331563,46.180526,41.446963)"
       fx="8.7530413"
       fy="8.0641518"
       gradientUnits="userSpaceOnUse" />
    <radialGradient
       inkscape:collect="always"
       xlink:href="#cookieGrad"
       id="radialGradient1861"
       cx="12.828857"
       cy="9.6098557"
       r="4.2352257"
       gradientTransform="matrix(2.056091,0,0,1.7331563,46.180526,41.446963)"
       fx="12.828857"
       fy="9.6098557"
       gradientUnits="userSpaceOnUse" />
    <radialGradient
       inkscape:collect="always"
       xlink:href="#cookieGrad"
       id="radialGradient1863"
       cx="11.017383"
       cy="12.259631"
       r="4.2352257"
       gradientTransform="matrix(2.056091,0,0,1.7331563,46.180526,41.446963)"
       fx="11.017383"
       fy="12.259631"
       gradientUnits="userSpaceOnUse" />
    <clipPath
       clipPathUnits="userSpaceOnUse"
       id="clipPath528">
      <rect
         style="display:none;fill:#d0c6ba;fill-opacity:0.5;stroke:#b0a79e;stroke-width:0.5;stroke-opacity:0.01"
         id="rect530"
         width="22.746788"
         height="10.349895"
         x="12.410177"
         y="32.052486"
         transform="rotate(-1.0820853)" />
      <path
         id="lpe_path-effect532"
         style="fill:#d0c6ba;fill-opacity:0.5;stroke:#b0a79e;stroke-width:0.5;stroke-opacity:0.01"
         class="powerclip"
         d="M -1.0286514,23.619185 H 51.023942 V 37.281074 H -1.0286514 Z" />
    </clipPath>
    <clipPath
       clipPathUnits="userSpaceOnUse"
       id="clipPath2323">
      <rect
         x="20.332121"
         y="7.6114683"
         width="100"
         height="100"
         rx="5.9999995"
         ry="5.9999995"
         fill="none"
         stroke="#dedede"
         stroke-width="1"
         id="rect2325" />
    </clipPath>
    <clipPath
       clipPathUnits="userSpaceOnUse"
       id="clipPath2354">
      <rect
         x="19.977671"
         y="8.0055199"
         width="100"
         height="100"
         rx="5.9999995"
         ry="5.9999995"
         fill="none"
         stroke="#dedede"
         stroke-width="1"
         id="rect2356" />
    </clipPath>
  </defs>
  <rect
     x="5.5681171"
     y="1.736861"
     width="110.46782"
     height="110.46782"
     rx="5.9999995"
     ry="5.9999995"
     fill="none"
     stroke="#dedede"
     stroke-width="1"
     id="rect70-3"
     style="fill:#000000;fill-opacity:1;font-variation-settings:normal;opacity:1;vector-effect:none;stroke:#dedede;stroke-width:1;stroke-linecap:butt;stroke-linejoin:miter;stroke-miterlimit:4;stroke-dasharray:none;stroke-dashoffset:0;stroke-opacity:1;-inkscape-stroke:none;stop-color:#000000;stop-opacity:1" />
  <path
     id="path3351"
     style="color:#000000;fill:#e67e22;stroke:#e67e22;stroke-width:2;stroke-dasharray:none;stroke-opacity:1"
     d="m 111.41677,3.1399219 c -0.24406,-0.1544104 -0.49364,-0.3022661 -0.76225,-0.4163753 -0.32465,-0.1379234 -0.6661,-0.2446174 -1.02017,-0.3171457 -0.35407,-0.072528 -0.72075,-0.1109037 -1.09717,-0.1109037 h -4.04029 L 6.074727,16.222667 v 1.823101 z" />
  <path
     id="path1550"
     style="color:#000000;fill:#7b3f00;stroke-linecap:round;-inkscape-stroke:none"
     d="M 115.13086 110.20117 C 115.22729 110.07844 115.34019 109.96948 115.42773 109.83984 C 115.66125 109.49407 115.86298 109.12521 116.02734 108.73633 C 116.1917 108.34745 116.31777 107.93893 116.4043 107.51562 C 116.49082 107.09232 116.53711 106.65412 116.53711 106.20508 L 116.53711 7.7382812 C 116.53711 7.2892382 116.49082 6.851039 116.4043 6.4277344 C 116.31777 6.0044298 116.1917 5.595914 116.02734 5.2070312 C 115.86298 4.8181485 115.66125 4.4492931 115.42773 4.1035156 C 115.34019 3.9738829 115.22729 3.8649227 115.13086 3.7421875 L 115.13086 5.6660156 C 115.25487 5.9734631 115.35833 6.2921658 115.42578 6.625 C 115.49859 6.9842723 115.53711 7.3563259 115.53711 7.7382812 L 115.53711 106.20508 C 115.53711 106.58703 115.49859 106.95909 115.42578 107.31836 C 115.35833 107.65119 115.25487 107.9699 115.13086 108.27734 L 115.13086 110.20117 z " />
  <!-- sunbeams (autumn), clipped -->
  <!-- quarter suns -->
  <!-- frame -->
  <!-- Book -->
  <path
     style="color:#000000;fill:#e67e22;stroke-width:1.81048;stroke-linecap:round;-inkscape-stroke:none"
     d="M 116.03593,1.736861 5.5681171,32.66785"
     id="path4370" />
  <path
     style="color:#000000;fill:#000000;fill-opacity:0;stroke-width:1.81048;stroke-linecap:round;-inkscape-stroke:none"
     d="M 116.03593,1.736861 5.5681171,48.133347"
     id="path968" />
  <path
     id="path987"
     style="color:#000000;fill:#c0392b;stroke:#c0392b;stroke-width:2;stroke-linecap:round;stroke-dasharray:none;stroke-opacity:1"
     d="m 112.73097,3.9063101 c -0.19689,-0.1807884 -0.39507,-0.360881 -0.61718,-0.5111509 -0.28967,-0.1959697 -0.60041,-0.3636614 -0.92674,-0.5014331 -0.12677,-0.053523 -0.26699,-0.07845 -0.39855,-0.1224429 L 6.0716444,46.951815 v 1.9552 z" />
  <path
     style="color:#000000;fill:#d35400;fill-opacity:0;stroke-width:1.81048;stroke-linecap:round;-inkscape-stroke:none"
     d="M 116.03593,1.736861 5.5681171,63.598839"
     id="path973" />
  <path
     style="color:#000000;fill:#f39c12;stroke-width:1.81048;stroke-linecap:round;-inkscape-stroke:none"
     d="M 116.03593,1.736861 5.5681171,79.064339"
     id="path979" />
  <path
     style="color:#000000;fill:#f39c12;stroke-width:1.81048;stroke-linecap:round;-inkscape-stroke:none"
     d="M 116.03593,1.736861 23.242968,94.529831"
     id="path1140" />
  <path
     style="color:#000000;display:none;fill:#f39c12;stroke-width:1.81048;stroke-linecap:round;-inkscape-stroke:none"
     d="M 116.03593,1.736861 45.336533,103.36726"
     id="path1170" />
  <path
     style="color:#000000;fill:#f39c12;stroke-width:1.81048;stroke-linecap:round;-inkscape-stroke:none"
     d="M 116.03593,1.736861 67.430099,112.20468"
     id="path1152" />
  <path
     id="path1391"
     style="color:#000000;fill:#bb8f00;stroke:#bb8f00;stroke-width:2;stroke-linecap:round;stroke-dasharray:none;stroke-opacity:1"
     d="m 66.653439,111.70192 h 1.90271 L 113.37889,6.8405414 c -0.0338,-0.098279 -0.0512,-0.204476 -0.0902,-0.3000077 -0.13327,-0.3264612 -0.29549,-0.6373295 -0.48507,-0.9271203 -0.15461,-0.2363185 -0.33856,-0.4484968 -0.52644,-0.6561457 z" />
  <path
     style="color:#000000;fill:#f39c12;stroke-width:1.81048;stroke-linecap:round;-inkscape-stroke:none"
     d="M 116.03593,1.736861 89.523659,112.20468"
     id="path1158" />
  <path
     id="path2070"
     style="color:#000000;fill:#c26100;stroke:#c26100;stroke-width:2;stroke-linecap:round;stroke-dasharray:none;stroke-opacity:1"
     d="m 114.52544,9.174051 c -0.002,-0.3654343 -0.0353,-0.7224935 -0.10337,-1.066713 -0.0701,-0.3541861 -0.17312,-0.6957365 -0.30635,-1.0205016 -0.13323,-0.3247652 -0.29727,-0.6340172 -0.48678,-0.9223024 -0.0433,-0.0658 -0.10062,-0.1192464 -0.14659,-0.1829201 L 88.716808,111.69981 h 1.791117 z" />
  <path
     id="path6246"
     style="color:#000000;fill:#d35400;stroke:none;stroke-width:2;-inkscape-stroke:none"
     d="M 112.13281 2.6523438 C 111.81851 2.5239239 111.49142 2.4187179 111.15039 2.3496094 C 110.79112 2.2768036 110.41907 2.2382812 110.03711 2.2382812 L 11.568359 2.2382812 C 11.186404 2.2382812 10.814351 2.2768036 10.455078 2.3496094 C 10.095806 2.4224152 9.7493508 2.5295175 9.4199219 2.6679688 C 9.0904929 2.80642 8.7768 2.9749388 8.484375 3.171875 C 8.19195 3.3688112 7.9201357 3.593536 7.671875 3.8417969 C 7.5972964 3.9163755 7.540876 4.0071474 7.4707031 4.0859375 L 111.85938 4.0859375 L 112.13281 2.6523438 z " />
  <metadata
     id="metadata588">
    <rdf:RDF>
      <cc:Work
         rdf:about="">
        <dc:title>Fry readability graph with recipe book (curved text lines, printed style)</dc:title>
      </cc:Work>
    </rdf:RDF>
  </metadata>
  <path
     style="color:#000000;fill:#d35400;fill-opacity:0;stroke-width:1.81048;-inkscape-stroke:none"
     d="M 116.03594,1.736861 5.568117,17.202356"
     id="path1884" />
  <path
     style="color:#000000;fill:#d35400;fill-opacity:0;-inkscape-stroke:none"
     d="m 11.568117,1.736861 h 98.467823 c 3.324,0 6,2.6759998 6,5.9999995 V 106.20468 c 0,3.324 -2.676,6 -6,6 H 11.568117 c -3.3240001,0 -5.9999999,-2.676 -5.9999999,-6 V 7.7368605 c 0,-3.3239997 2.6759998,-5.9999995 5.9999999,-5.9999995 z"
     id="path1878" />
  <path
     style="color:#000000;fill:#e67e22;fill-opacity:0;-inkscape-stroke:none"
     d="m 11.568117,1.736861 h 98.467823 c 3.324,0 6,2.6759998 6,5.9999995 V 106.20468 c 0,3.324 -2.676,6 -6,6 H 11.568117 c -3.3240001,0 -5.9999999,-2.676 -5.9999999,-6 V 7.7368605 c 0,-3.3239997 2.6759998,-5.9999995 5.9999999,-5.9999995 z"
     id="path4376" />
  <path
     id="path4391"
     style="color:#000000;fill:#f39c12;stroke:#f39c12;stroke-width:2;stroke-linecap:round;stroke-dasharray:none;stroke-opacity:1"
     d="m 111.06904,4.1173475 c -0.0979,-0.076236 -0.18332,-0.1670813 -0.28655,-0.2364964 -0.28602,-0.1923085 -0.59285,-0.3568673 -0.91506,-0.4920651 -0.32221,-0.1351977 -0.66108,-0.2397833 -1.01248,-0.3108783 -0.15169,-0.030687 -0.31377,-0.029869 -0.46995,-0.047681 L 6.0762754,31.631033 v 1.834754 z" />
  <path
     style="color:#000000;fill:#000000;fill-opacity:0;-inkscape-stroke:none"
     d="m 11.568117,1.736861 h 98.467823 c 3.324,0 6,2.6759998 6,5.9999995 V 106.20468 c 0,3.324 -2.676,6 -6,6 H 11.568117 c -3.3240001,0 -5.9999999,-2.676 -5.9999999,-6 V 7.7368605 c 0,-3.3239997 2.6759998,-5.9999995 5.9999999,-5.9999995 z"
     id="path974" />
  <path
     style="color:#000000;fill:#000000;fill-opacity:0;-inkscape-stroke:none"
     d="m 11.568117,1.7368636 h 98.467823 c 3.324,0 6,2.676 6,6.0000002 V 106.20468 c 0,3.324 -2.676,6 -6,6 H 11.568117 c -3.3239999,0 -5.9999999,-2.676 -5.9999999,-6 V 7.7368638 c 0,-3.3240002 2.676,-6.0000002 5.9999999,-6.0000002 z"
     id="path1365" />
  <path
     id="path1184"
     style="color:#000000;fill:#7b3f00;stroke-linecap:round;stroke:#7b3f00;stroke-opacity:1;stroke-width:2;stroke-dasharray:none"
     d="M 115.13086 108.27734 C 115.25487 107.9699 115.35833 107.65119 115.42578 107.31836 C 115.49859 106.95909 115.53711 106.58703 115.53711 106.20508 L 115.53711 7.7382812 C 115.53711 7.3563259 115.49859 6.9842723 115.42578 6.625 C 115.35833 6.2921658 115.25487 5.9734631 115.13086 5.6660156 L 115.13086 108.27734 z " />
  <path
     id="path3162"
     style="color:#000000;fill:#d9880f;stroke:#d9880f;stroke-width:2;stroke-linecap:round;stroke-dasharray:none;stroke-opacity:1"
     d="M 112.95734,6.3398341 C 112.78396,6.097287 112.60148,5.8625092 112.39088,5.6525477 112.18021,5.442499 111.94301,5.2587947 111.69962,5.0858714 L 22.60168,93.918115 a 0.88996728,0.88731329 0 0 0 0,1.253962 0.88996728,0.88731329 0 0 0 1.257712,0 z" />
  <path
     id="path2596"
     style="color:#000000;fill:#b9770e;stroke:#b9770e;stroke-width:2;stroke-linecap:round;stroke-dasharray:none;stroke-opacity:1"
     d="M 112.85062,5.4193794 C 112.76697,5.32337 112.6978,5.2154285 112.60755,5.125602 112.36235,4.881537 112.09196,4.6606104 111.80314,4.4670027 111.67918,4.3839102 111.53873,4.3267417 111.40768,4.25387 L 6.0710281,77.646401 v 2.163969 a 0.89408908,0.88994013 0 0 0 0.01929,-0.0038 z" />
  <path
     id="path5766"
     style="color:#000000;fill:#a04000;stroke:#a04000;stroke-width:2;stroke-linecap:round;stroke-dasharray:none;stroke-opacity:1"
     d="m 6.0717611,62.310253 v 2.049354 L 112.98384,4.6465936 c -0.0226,-0.023389 -0.0388,-0.052281 -0.0619,-0.075258 -0.24591,-0.2452849 -0.5171,-0.4673159 -0.80678,-0.6618914 -0.23647,-0.1588387 -0.49321,-0.2864049 -0.75455,-0.4071692 z" />
  <path
     id="path479"
     style="fill:#f39c12;stroke-width:0.905241"
     d="m 6.0175131,63.268323 v 42.917967 c 0,0.4155 0.04143,0.81965 0.1210937,1.21094 0.079664,0.39129 0.1982036,0.76975 0.3496097,1.1289 0.1514061,0.35917 0.3355548,0.70043 0.5507804,1.01954 0.2152267,0.3191 0.4612971,0.6156 0.7324226,0.88672 0.2711245,0.27112 0.5676168,0.51524 0.8867186,0.73047 0.3191007,0.21522 0.6603755,0.40132 1.0195307,0.55273 0.3591562,0.15141 0.7376182,0.268 1.1289072,0.34766 0.391288,0.0797 0.795438,0.12305 1.210937,0.12305 h 42.5625 a 48.605841,48.605841 0 0 0 0.02539,-0.31251 A 48.605841,48.605841 0 0 0 6.0175131,63.268323 Z" />
  <path
     id="path2962"
     style="color:#000000;fill:#8e4b1b;stroke:#8e4b1b;stroke-width:2;stroke-linecap:round;stroke-dasharray:none;stroke-opacity:1"
     d="m 113.88315,5.9055391 c -0.0745,-0.1346768 -0.13442,-0.2794446 -0.21968,-0.4066731 -0.19429,-0.2899418 -0.41409,-0.5594476 -0.65902,-0.8056002 -0.0886,-0.089075 -0.19633,-0.1574227 -0.29097,-0.2401308 L 44.593792,102.86029 a 0.89310944,0.89755258 0 0 0 0.223526,1.25101 0.89310944,0.89755258 0 0 0 1.242885,-0.22464 z" />
  <path
     id="circle66"
     style="fill:#d35400;stroke-width:0.905241"
     d="M 115.74411,50.83221 V 8.1115074 c 0,-0.4155004 -0.0414,-0.8216022 -0.1211,-1.2128914 -0.0797,-0.3912881 -0.1982,-0.7677967 -0.34961,-1.1269529 C 115.12199,5.4125068 114.93785,5.071233 114.72262,4.7521323 114.5074,4.4330307 114.26132,4.1345846 113.9902,3.8634599 113.71908,3.5923352 113.42258,3.3482176 113.10348,3.1329913 112.78437,2.9177649 112.44311,2.731663 112.08395,2.5802569 111.72479,2.4288508 111.34828,2.3122646 110.95699,2.2326006 110.56571,2.1529367 110.1596,2.1115068 109.7441,2.1115068 H 67.244104 a 48.605841,48.605841 0 0 0 -0.0098,0.1230469 48.605841,48.605841 0 0 0 48.509766,48.5976563 z" />
  <rect
     x="5.5681171"
     y="1.736861"
     width="110.46782"
     height="110.46782"
     rx="5.9999995"
     ry="5.9999995"
     fill="none"
     stroke="#dedede"
     stroke-width="1"
     id="rect70-3-5"
     style="font-variation-settings:normal;vector-effect:none;fill:none;fill-opacity:1;stroke:#dedede;stroke-width:1;stroke-linecap:butt;stroke-linejoin:miter;stroke-miterlimit:4;stroke-dasharray:none;stroke-dashoffset:0;stroke-opacity:1;-inkscape-stroke:none;stop-color:#000000" />
  <g
     id="g68"
     style="stroke-width:0.556237"
     transform="matrix(1.7720089,0,0,1.8239559,-96.232616,-93.169827)" />
  <g
     id="g1168">
    <path
       d="m 41.13547,55.422036 82.45542,14.965334 3.14773,3.682818 -9.17579,53.564062 -86.120101,-15.63047 z"
       fill="#3f261b"
       id="path72"
       style="stroke-width:1.05" />
    <path
       d="m 31.442729,112.00378 7.329369,1.33026 -6.037004,-8.87449 z"
       fill="url(#gold)"
       stroke="#ae8412"
       stroke-width="0.231"
       id="path78"
       style="fill:url(#linearGradient1855)" />
    <g
       fill="none"
       stroke="#fff7d9"
       stroke-width="0.0667485"
       opacity="0.75"
       id="g90"
       transform="matrix(1.8323424,0.33256297,-0.32309143,1.8860582,38.44006,49.098736)">
      <path
         d="M 2.25,5.6 V 3.4 H 4.6"
         id="path82"
         style="stroke-width:0.0667485" />
      <path
         d="M 48.75,5.6 V 3.4 H 46.4"
         id="path84"
         style="stroke-width:0.0667485" />
      <path
         d="m 2.25,30.4 v 2.2 H 4.6"
         id="path86"
         style="stroke-width:0.0667485" />
      <path
         d="m 48.75,30.4 v 2.2 H 46.4"
         id="path88"
         style="stroke-width:0.0667485" />
    </g>
    <path
       d="m 32.767432,106.74283 c 14.298755,-2.59069 26.514371,-0.3736 36.646847,6.65127 0.642925,4.9101 4.02467,5.91633 7.329371,1.33026 11.855616,-3.03411 24.07122,-0.81704 36.64683,6.65126 l 3.01851,4.43725 -80.623055,-14.63278 z"
       fill="#d0c6ba"
       stroke="#b0a79e"
       stroke-width="0.21"
       id="path92"
       style="fill:#d0c6ba;fill-opacity:0.5"
       sodipodi:nodetypes="ccccccc" />
    <path
       d="m 41.458562,53.535978 q 20.608094,1.017712 36.646849,6.651259 2.608655,2.418159 3.341588,2.551184 L 72.723536,113.662 q -19.509584,-7.43032 -40.311533,-7.31639 z"
       fill="#fbf1df"
       stroke="#bbbbbb"
       stroke-width="0.630001"
       id="path110" />
    <rect
       x="49.905079"
       y="45.274029"
       width="40.970104"
       height="53.578888"
       fill="url(#shadeL)"
       id="rect114"
       style="fill:url(#shadeL);stroke-width:1.05003"
       transform="matrix(0.98392564,0.17857865,-0.16884562,0.98564251,0,0)" />
    <path
       d="m 127.25557,71.052496 -7.32938,-1.330251 6.03701,8.874484 z"
       fill="url(#gold)"
       stroke="#ae8412"
       stroke-width="0.231"
       id="path76"
       style="fill:url(#linearGradient1853)" />
    <path
       d="m 117.56283,127.63425 -7.32937,-1.33027 8.62172,-6.21397 z"
       fill="url(#gold)"
       stroke="#ae8412"
       stroke-width="0.231"
       id="path80"
       style="fill:url(#linearGradient1857)" />
    <path
       d="m 35.189746,107.76516 q 17.762811,-3.41954 33.306964,5.98613 2.526191,7.45494 7.401548,1.33026 17.762814,-3.41954 37.007732,6.65125"
       id="path94"
       style="fill:#fbf1df;stroke:#bbbbbb;stroke-width:0.188999;stroke-opacity:1" />
    <path
       d="m 34.993982,108.89679 c 11.841874,-2.27969 22.944195,-0.28431 33.306964,5.98613 0.698717,1.81224 5.48305,3.81301 7.401548,1.33026 11.841873,-2.27969 24.177783,-0.0626 37.007736,6.65125"
       id="path96"
       style="fill:#fbf1df;stroke:#bbbbbb;stroke-width:0.188999;stroke-opacity:1"
       sodipodi:nodetypes="cccc" />
    <path
       d="m 34.798218,110.02843 c 11.841875,-2.27968 22.944195,-0.28431 33.306964,5.98613 1.618778,1.73454 4.613766,2.10479 7.401548,1.33025 11.841873,-2.27969 24.177783,-0.0626 37.00774,6.65127"
       id="path98"
       style="fill:#fbf1df;stroke:#bbbbbb;stroke-width:0.188999;stroke-opacity:1"
       sodipodi:nodetypes="cccc" />
    <path
       d="m 118.17737,67.412074 q 1.42596,23.252552 -5.31042,53.344986 l 3.32253,4.20079 9.01226,-52.954549 z"
       fill="#d0c6ba"
       stroke="#b0a79e"
       stroke-width="0.21"
       id="path102" />
    <line
       x1="123.26779"
       y1="72.273422"
       x2="114.86742"
       y2="121.31094"
       id="line104"
       style="stroke:#bfb6ad;stroke-width:0.168" />
    <line
       x1="123.9901"
       y1="73.57135"
       x2="115.58973"
       y2="122.60886"
       id="line106"
       style="stroke:#bfb6ad;stroke-width:0.168" />
    <path
       d="m 81.446999,62.738421 q 0.732939,0.133014 3.987782,-1.22093 16.943429,0.352585 36.646849,6.651257 l -9.04657,52.809622 Q 93.525494,113.54807 72.723536,113.662 Z"
       fill="#fbf1df"
       stroke="#bbbbbb"
       stroke-width="0.630001"
       id="path112" />
    <rect
       x="90.875198"
       y="45.274029"
       width="40.970104"
       height="53.578888"
       fill="url(#shadeR)"
       id="rect116"
       style="fill:url(#shadeR);stroke-width:1.05003"
       transform="matrix(0.98392564,0.17857865,-0.16884562,0.98564251,0,0)" />
    <line
       x1="81.703453"
       y1="62.086849"
       x2="72.723"
       y2="113.66126"
       stroke="#000000"
       stroke-width="0.147"
       opacity="0.45"
       id="line118" />
    <rect
       x="89.149811"
       y="46.766479"
       width="3.6587472"
       height="52.229416"
       fill="url(#spineFull)"
       opacity="0.55"
       id="rect120"
       style="fill:url(#spineFull);stroke-width:1.05002"
       transform="matrix(0.98418021,0.1771703,-0.17019183,0.98541095,0,0)" />
    <ellipse
       cx="70.948822"
       cy="61.539036"
       rx="14.898219"
       ry="11.481191"
       fill="#000000"
       opacity="0.1"
       id="ellipse122"
       transform="matrix(0.98392564,0.17857865,-0.16884562,0.98564251,0,0)"
       style="stroke-width:1.05003" />
    <ellipse
       cx="72.252419"
       cy="60.582283"
       rx="14.898219"
       ry="11.481191"
       fill="#ffffff"
       stroke="#6d4c41"
       stroke-width="0.294007"
       id="ellipse124"
       transform="matrix(0.98392564,0.17857865,-0.16884562,0.98564251,0,0)" />
    <ellipse
       cx="72.252419"
       cy="60.582283"
       rx="13.780854"
       ry="10.333073"
       fill="#fcfbfa"
       stroke="#cfc6bb"
       stroke-width="0.147004"
       id="ellipse126"
       transform="matrix(0.98392564,0.17857865,-0.16884562,0.98564251,0,0)" />
    <ellipse
       cx="66.665573"
       cy="57.520634"
       rx="5.9592876"
       ry="4.9751825"
       fill="url(#cookieGrad)"
       stroke="#6d4c41"
       stroke-width="0.294007"
       id="ellipse128"
       style="fill:url(#radialGradient1859)"
       transform="matrix(0.98392564,0.17857865,-0.16884562,0.98564251,0,0)" />
    <ellipse
       cx="75.045822"
       cy="60.199581"
       rx="5.9592876"
       ry="4.9751825"
       fill="url(#cookieGrad)"
       stroke="#6d4c41"
       stroke-width="0.294007"
       id="ellipse130"
       style="fill:url(#radialGradient1861)"
       transform="matrix(0.98392564,0.17857865,-0.16884562,0.98564251,0,0)" />
    <ellipse
       cx="71.321266"
       cy="64.792046"
       rx="5.9592876"
       ry="4.9751825"
       fill="url(#cookieGrad)"
       stroke="#6d4c41"
       stroke-width="0.294007"
       id="ellipse132"
       style="fill:url(#radialGradient1863)"
       transform="matrix(0.98392564,0.17857865,-0.16884562,0.98564251,0,0)" />
    <ellipse
       cx="65.082642"
       cy="55.989803"
       id="circle134"
       transform="matrix(0.98392564,0.17857865,-0.16884562,0.98564251,0,0)"
       style="fill:#2d2018;stroke:none;stroke-width:1.05003"
       rx="0.59592873"
       ry="0.61233014" />
    <ellipse
       cx="67.503609"
       cy="56.850903"
       id="circle136"
       transform="matrix(0.98392564,0.17857865,-0.16884562,0.98564251,0,0)"
       style="fill:#2d2018;stroke:none;stroke-width:1.05003"
       rx="0.5214377"
       ry="0.53578889" />
    <ellipse
       cx="68.714081"
       cy="55.224388"
       id="circle138"
       transform="matrix(0.98392564,0.17857865,-0.16884562,0.98564251,0,0)"
       style="fill:#2d2018;stroke:none;stroke-width:1.05003"
       rx="0.48419207"
       ry="0.49751821" />
    <ellipse
       cx="66.293129"
       cy="58.668751"
       id="circle140"
       transform="matrix(0.98392564,0.17857865,-0.16884562,0.98564251,0,0)"
       style="fill:#2d2018;stroke:none;stroke-width:1.05003"
       rx="0.55868322"
       ry="0.57405955" />
    <ellipse
       cx="67.689835"
       cy="56.276836"
       id="circle142"
       transform="matrix(0.98392564,0.17857865,-0.16884562,0.98564251,0,0)"
       style="fill:#2d2018;stroke:none;stroke-width:1.05003"
       rx="0.37245548"
       ry="0.38270637" />
    <ellipse
       cx="73.369774"
       cy="59.013191"
       id="circle144"
       transform="matrix(0.98392564,0.17857865,-0.16884562,0.98564251,0,0)"
       style="fill:#2d2018;stroke:none;stroke-width:1.05003"
       rx="0.55868322"
       ry="0.57405955" />
    <ellipse
       cx="75.697617"
       cy="59.721188"
       id="circle146"
       transform="matrix(0.98392564,0.17857865,-0.16884562,0.98564251,0,0)"
       style="fill:#2d2018;stroke:none;stroke-width:1.05003"
       rx="0.48419207"
       ry="0.49751821" />
    <ellipse
       cx="76.628769"
       cy="60.677952"
       id="circle148"
       transform="matrix(0.98392564,0.17857865,-0.16884562,0.98564251,0,0)"
       style="fill:#2d2018;stroke:none;stroke-width:1.05003"
       rx="0.55868322"
       ry="0.57405955" />
    <ellipse
       cx="74.487152"
       cy="61.634731"
       id="circle150"
       transform="matrix(0.98392564,0.17857865,-0.16884562,0.98564251,0,0)"
       style="fill:#2d2018;stroke:none;stroke-width:1.05003"
       rx="0.44694659"
       ry="0.45924762" />
    <ellipse
       cx="74.021576"
       cy="60.199581"
       id="circle152"
       transform="matrix(0.98392564,0.17857865,-0.16884562,0.98564251,0,0)"
       style="fill:#2d2018;stroke:none;stroke-width:1.05003"
       rx="0.37245548"
       ry="0.38270637" />
    <ellipse
       cx="76.070084"
       cy="58.573071"
       id="circle154"
       transform="matrix(0.98392564,0.17857865,-0.16884562,0.98564251,0,0)"
       style="fill:#2d2018;stroke:none;stroke-width:1.05003"
       rx="0.40970102"
       ry="0.42097697" />
    <ellipse
       cx="64.111862"
       cy="58.113968"
       id="circle154-5"
       transform="matrix(0.98392564,0.17857865,-0.16884562,0.98564251,0,0)"
       style="fill:#2d2018;stroke:none;stroke-width:1.05003"
       rx="0.40970102"
       ry="0.42097697" />
    <ellipse
       cx="71.041924"
       cy="65.079079"
       id="circle156"
       transform="matrix(0.98392564,0.17857865,-0.16884562,0.98564251,0,0)"
       style="fill:#2d2018;stroke:none;stroke-width:1.05003"
       rx="0.59592873"
       ry="0.61233014" />
    <ellipse
       cx="73.332512"
       cy="64.447609"
       id="circle158"
       transform="matrix(0.98392564,0.17857865,-0.16884562,0.98564251,0,0)"
       style="fill:#2d2018;stroke:none;stroke-width:1.05003"
       rx="0.5214377"
       ry="0.53578889" />
    <ellipse
       cx="73.205948"
       cy="66.555939"
       id="circle158-5"
       transform="matrix(0.98392564,0.17857865,-0.16884562,0.98564251,0,0)"
       style="fill:#2d2018;stroke:none;stroke-width:1.05003"
       rx="0.5214377"
       ry="0.53578889" />
    <ellipse
       cx="70.110786"
       cy="63.548248"
       id="circle160"
       transform="matrix(0.98392564,0.17857865,-0.16884562,0.98564251,0,0)"
       style="fill:#2d2018;stroke:none;stroke-width:1.05003"
       rx="0.48419207"
       ry="0.49751821" />
    <ellipse
       cx="70.762581"
       cy="65.844498"
       id="circle164"
       transform="matrix(0.98392564,0.17857865,-0.16884562,0.98564251,0,0)"
       style="fill:#2d2018;stroke:none;stroke-width:1.05003"
       rx="0.37245548"
       ry="0.38270637" />
    <ellipse
       cx="69.08654"
       cy="59.816868"
       id="circle166"
       transform="matrix(0.98392564,0.17857865,-0.16884562,0.98564251,0,0)"
       style="fill:#2d2018;stroke:none;stroke-width:1.05003"
       rx="0.29796436"
       ry="0.30616507" />
    <ellipse
       cx="74.1147"
       cy="62.495815"
       id="circle168"
       transform="matrix(0.98392564,0.17857865,-0.16884562,0.98564251,0,0)"
       style="fill:#2d2018;stroke:none;stroke-width:1.05003"
       rx="0.29796436"
       ry="0.30616507" />
    <ellipse
       cx="67.969177"
       cy="61.7304"
       id="circle170"
       transform="matrix(0.98392564,0.17857865,-0.16884562,0.98564251,0,0)"
       style="fill:#2d2018;stroke:none;stroke-width:1.05003"
       rx="0.26071885"
       ry="0.26789445" />
    <ellipse
       cx="77.466805"
       cy="57.329273"
       id="circle172"
       transform="matrix(0.98392564,0.17857865,-0.16884562,0.98564251,0,0)"
       style="fill:#2d2018;stroke:none;stroke-width:1.05003"
       rx="0.26071885"
       ry="0.26789445" />
    <path
       d="m 44.804628,89.147841 q 9.484804,-0.223247 20.155767,3.658188"
       stroke-dasharray="2.1, 2.62501, 1.575, 3.15"
       id="path176"
       style="fill:none;stroke:#444444;stroke-width:0.551291" />
    <path
       d="m 43.381784,97.527784 q 9.484804,-0.223247 20.155767,3.658186"
       stroke-dasharray="2.1, 2.62501, 1.575, 3.15"
       id="path176-6"
       style="fill:none;stroke:#444444;stroke-width:0.551291" />
    <path
       d="m 43.835353,94.806014 q 9.484804,-0.223248 18.323425,3.325636"
       stroke-dasharray="2.62501, 1.575, 2.1, 3.15"
       id="path178"
       style="fill:none;stroke:#444444;stroke-width:0.551291" />
    <path
       d="m 42.866079,100.46419 q 7.652462,-0.555803 21.988109,3.99075"
       stroke-dasharray="2.1, 2.1, 3.15, 1.575"
       id="path180"
       style="fill:none;stroke:#444444;stroke-width:0.551291" />
    <path
       d="m 44.129053,91.863551 q 7.652462,-0.5558 21.988109,3.99075"
       stroke-dasharray="2.1, 2.1, 3.15, 1.575"
       id="path180-3"
       style="fill:none;stroke:#444444;stroke-width:0.551291" />
    <path
       d="m 87.807098,69.726848 q 11.317153,0.109321 21.988102,3.990756"
       stroke-dasharray="2.1, 2.62501, 1.575, 3.15"
       id="path184"
       style="fill:none;stroke:#444444;stroke-width:0.551291" />
    <path
       d="m 83.331095,96.092126 q 11.317149,0.109321 21.988095,3.990754"
       stroke-dasharray="2.1, 2.62501, 1.575, 3.15"
       id="path184-3"
       style="fill:none;stroke:#444444;stroke-width:0.551291" />
    <path
       d="m 86.514734,77.271082 q 11.317146,0.10932 25.652796,4.65588"
       stroke-dasharray="2.1, 1.575, 2.62501, 2.1"
       id="path186"
       style="fill:none;stroke:#444444;stroke-width:0.551291" />
    <path
       d="m 84.497272,88.796818 q 11.317144,0.10932 25.652798,4.65588"
       stroke-dasharray="2.1, 1.575, 2.62501, 2.1"
       id="path186-5"
       style="fill:none;stroke:#444444;stroke-width:0.551291" />
    <path
       d="m 85.222367,84.81532 q 11.317141,0.109304 21.988113,3.990756"
       stroke-dasharray="3.15, 2.1, 2.62501, 1.575"
       id="path188"
       style="fill:none;stroke:#444444;stroke-width:0.551291" />
    <path
       d="m 83.930002,92.35955 q 11.317151,0.109304 25.652788,4.655877"
       stroke-dasharray="2.1, 2.1, 1.575, 3.15"
       id="path190"
       style="fill:none;stroke:#444444;stroke-width:0.551291" />
    <path
       d="m 81.845666,103.84034 q 11.31715,0.1093 25.652794,4.65587"
       stroke-dasharray="2.1, 2.1, 1.575, 3.15"
       id="path190-7"
       style="fill:none;stroke:#444444;stroke-width:0.551291" />
    <path
       d="m 82.637636,99.90378 q 11.317146,0.1093 23.820454,4.32332"
       stroke-dasharray="2.62501, 1.575, 2.1, 2.62501"
       id="path192"
       style="fill:none;stroke:#444444;stroke-width:0.551291" />
    <path
       d="m 87.15697,73.281305 q 11.31715,0.1093 23.82045,4.32332"
       stroke-dasharray="2.62501, 1.575, 2.1, 2.62501"
       id="path192-6"
       style="fill:none;stroke:#444444;stroke-width:0.551291" />
    <path
       d="m 81.345271,107.44801 q 11.317139,0.1093 21.988109,3.99076"
       stroke-dasharray="2.1, 2.62501, 1.575, 2.1"
       id="path194"
       style="fill:none;stroke:#444444;stroke-width:0.551291" />
    <path
       d="m 85.789529,81.217805 q 11.317139,0.1093 21.988111,3.99076"
       stroke-dasharray="2.1, 2.62501, 1.575, 2.1"
       id="path194-5"
       style="fill:none;stroke:#444444;stroke-width:0.551291" />
    <path
       d="m 103.30184,63.397619 -2.94683,22.780799 -3.197524,-4.302339 -4.179807,3.29126 2.946835,-22.780794 z"
       fill="#e07a5f"
       stroke="#b5553f"
       stroke-width="0.588"
       id="path198" />
    <path
       d="m 104.26109,64.688321 -2.94685,22.780794 -3.197505,-4.302334 -4.179807,3.291254 2.946835,-22.780789 z"
       fill="#000000"
       opacity="0.06"
       id="path200"
       style="stroke-width:1.05" />
    <ellipse
       cx="71.681267"
       cy="62.439426"
       id="circle162"
       transform="matrix(0.98392564,0.17857865,-0.16884562,0.98564251,0,0)"
       style="fill:#2d2018;stroke:none;stroke-width:1.05003"
       rx="0.44694659"
       ry="0.45924762" />
    <ellipse
       cx="68.155548"
       cy="65.384567"
       id="circle162-3"
       transform="matrix(0.98392564,0.17857865,-0.16884562,0.98564251,0,0)"
       style="fill:#2d2018;stroke:none;stroke-width:1.05003"
       rx="0.44694659"
       ry="0.45924762" />
  </g>
</svg>
