<?xml version="1.0" encoding="UTF-8" standalone="no"?>
<!-- Created with Inkscape (http://www.inkscape.org/) -->

<svg
   xmlns:dc="http://purl.org/dc/elements/1.1/"
   xmlns:cc="http://creativecommons.org/ns#"
   xmlns:rdf="http://www.w3.org/1999/02/22-rdf-syntax-ns#"
   xmlns:svg="http://www.w3.org/2000/svg"
   xmlns="http://www.w3.org/2000/svg"
   xmlns:xlink="http://www.w3.org/1999/xlink"
   xmlns:sodipodi="http://sodipodi.sourceforge.net/DTD/sodipodi-0.dtd"
   xmlns:inkscape="http://www.inkscape.org/namespaces/inkscape"
   width="782"
   height="782"
   id="svg2"
   version="1.1"
   inkscape:version="0.92.4 (5da689c313, 2019-01-14)"
   sodipodi:docname="capital-letter.svg"
   inkscape:export-xdpi="31.422131"
   inkscape:export-ydpi="31.422131">
  <defs
     id="defs4">
    <radialGradient
       r="5.256"
       fy="114.5684"
       fx="20.892099"
       cy="114.5684"
       cx="20.892099"
       gradientTransform="matrix(0.229703,0,0,0.229703,4.613529,3.979808)"
       gradientUnits="userSpaceOnUse"
       id="radialGradient2283-6"
       xlink:href="#aigrd2-0"
       inkscape:collect="always" />
    <radialGradient
       id="aigrd2-0"
       cx="20.892099"
       cy="114.5684"
       r="5.256"
       fx="20.892099"
       fy="114.5684"
       gradientUnits="userSpaceOnUse">
      <stop
         offset="0"
         style="stop-color:#F0F0F0"
         id="stop15566-3" />
      <stop
         offset="1.0000000"
         style="stop-color:#9a9a9a;stop-opacity:1.0000000;"
         id="stop15568-6" />
    </radialGradient>
    <radialGradient
       r="5.257"
       fy="64.567902"
       fx="20.892099"
       cy="64.567902"
       cx="20.892099"
       gradientTransform="matrix(0.229703,0,0,0.229703,4.613529,3.979808)"
       gradientUnits="userSpaceOnUse"
       id="radialGradient2285-2"
       xlink:href="#aigrd3-45"
       inkscape:collect="always" />
    <radialGradient
       id="aigrd3-45"
       cx="20.892099"
       cy="64.567902"
       r="5.257"
       fx="20.892099"
       fy="64.567902"
       gradientUnits="userSpaceOnUse">
      <stop
         offset="0"
         style="stop-color:#F0F0F0"
         id="stop15573-8" />
      <stop
         offset="1.0000000"
         style="stop-color:#9a9a9a;stop-opacity:1.0000000;"
         id="stop15575-8" />
    </radialGradient>
    <radialGradient
       inkscape:collect="always"
       xlink:href="#linearGradient15662-2"
       id="radialGradient15668-1"
       gradientUnits="userSpaceOnUse"
       gradientTransform="matrix(16.88446,0,0,18.009087,27.22217,92.059953)"
       cx="8.1435566"
       cy="7.2678967"
       fx="8.1435566"
       fy="7.2678967"
       r="38.158695" />
    <linearGradient
       id="linearGradient15662-2">
      <stop
         id="stop15664-1"
         offset="0.0000000"
         style="stop-color:#ffffff;stop-opacity:1.0000000;" />
      <stop
         id="stop15666-4"
         offset="1.0000000"
         style="stop-color:#f8f8f8;stop-opacity:1.0000000;" />
    </linearGradient>
    <radialGradient
       inkscape:collect="always"
       xlink:href="#linearGradient259-8"
       id="radialGradient15658-9"
       gradientUnits="userSpaceOnUse"
       gradientTransform="matrix(16.748795,0,0,18.154954,-31.25605,80.787393)"
       cx="33.966679"
       cy="35.736916"
       fx="33.966679"
       fy="35.736916"
       r="86.70845" />
    <linearGradient
       id="linearGradient259-8">
      <stop
         id="stop260-2"
         offset="0.0000000"
         style="stop-color:#fafafa;stop-opacity:1.0000000;" />
      <stop
         id="stop261-4"
         offset="1.0000000"
         style="stop-color:#bbbbbb;stop-opacity:1.0000000;" />
    </linearGradient>
    <radialGradient
       inkscape:collect="always"
       xlink:href="#linearGradient269-2"
       id="radialGradient15656-5"
       gradientUnits="userSpaceOnUse"
       gradientTransform="matrix(16.88446,0,0,18.009087,27.22217,92.059953)"
       cx="8.824419"
       cy="3.7561285"
       fx="8.824419"
       fy="3.7561285"
       r="37.751713" />
    <linearGradient
       id="linearGradient269-2">
      <stop
         id="stop270-9"
         offset="0.0000000"
         style="stop-color:#a3a3a3;stop-opacity:1.0000000;" />
      <stop
         id="stop271-9"
         offset="1.0000000"
         style="stop-color:#4c4c4c;stop-opacity:1.0000000;" />
    </linearGradient>
    <linearGradient
       inkscape:collect="always"
       xlink:href="#linearGradient5048-8"
       id="linearGradient6715"
       gradientUnits="userSpaceOnUse"
       gradientTransform="matrix(2.774389,0,0,1.969706,-1892.179,-872.8854)"
       x1="302.85715"
       y1="366.64789"
       x2="302.85715"
       y2="609.50507" />
    <linearGradient
       id="linearGradient5048-8">
      <stop
         style="stop-color:black;stop-opacity:0;"
         offset="0"
         id="stop5050-3" />
      <stop
         id="stop5056-8"
         offset="0.5"
         style="stop-color:black;stop-opacity:1;" />
      <stop
         style="stop-color:black;stop-opacity:0;"
         offset="1"
         id="stop5052-6" />
    </linearGradient>
    <radialGradient
       inkscape:collect="always"
       xlink:href="#linearGradient5060-9"
       id="radialGradient6717"
       gradientUnits="userSpaceOnUse"
       gradientTransform="matrix(2.774389,0,0,1.969706,-1891.633,-872.8854)"
       cx="605.71429"
       cy="486.64789"
       fx="605.71429"
       fy="486.64789"
       r="117.14286" />
    <linearGradient
       inkscape:collect="always"
       id="linearGradient5060-9">
      <stop
         style="stop-color:black;stop-opacity:1;"
         offset="0"
         id="stop5062-8" />
      <stop
         style="stop-color:black;stop-opacity:0;"
         offset="1"
         id="stop5064-6" />
    </linearGradient>
    <radialGradient
       r="117.14286"
       fy="486.64789"
       fx="605.71429"
       cy="486.64789"
       cx="605.71429"
       gradientTransform="matrix(-2.774389,0,0,1.969706,112.7623,-872.8854)"
       gradientUnits="userSpaceOnUse"
       id="radialGradient7840"
       xlink:href="#linearGradient5060-9"
       inkscape:collect="always" />
  </defs>
  <sodipodi:namedview
     id="base"
     pagecolor="#ffffff"
     bordercolor="#666666"
     borderopacity="1.0"
     inkscape:pageopacity="0.0"
     inkscape:pageshadow="2"
     inkscape:zoom="0.24748737"
     inkscape:cx="-878.2182"
     inkscape:cy="620.60933"
     inkscape:document-units="px"
     inkscape:current-layer="layer1"
     showgrid="false"
     inkscape:window-width="1024"
     inkscape:window-height="705"
     inkscape:window-x="-8"
     inkscape:window-y="-8"
     inkscape:window-maximized="1"
     fit-margin-top="0"
     fit-margin-left="0"
     fit-margin-right="0"
     fit-margin-bottom="0" />
  <metadata
     id="metadata7">
    <rdf:RDF>
      <cc:Work
         rdf:about="">
        <dc:format>image/svg+xml</dc:format>
        <dc:type
           rdf:resource="http://purl.org/dc/dcmitype/StillImage" />
        <dc:title />
      </cc:Work>
    </rdf:RDF>
  </metadata>
  <g
     inkscape:label="Layer 1"
     inkscape:groupmode="layer"
     id="layer1"
     transform="translate(1.302347,-135.64165)">
    <g
       style="display:inline"
       transform="matrix(0.36714411,0,0,0.36388273,715.9796,798.4117)"
       id="g6707">
      <rect
         style="color:#000000;display:inline;overflow:visible;visibility:visible;opacity:0.40206185;fill:url(#linearGradient6715);fill-opacity:1;fill-rule:nonzero;stroke:none;stroke-width:1;marker:none"
         id="rect6709"
         width="1339.6335"
         height="478.35718"
         x="-1559.2523"
         y="-150.69685" />
      <path
         inkscape:connector-curvature="0"
         style="color:#000000;display:inline;overflow:visible;visibility:visible;opacity:0.40206185;fill:url(#radialGradient6717);fill-opacity:1;fill-rule:nonzero;stroke:none;stroke-width:1;marker:none"
         d="m -219.61876,-150.68038 c 0,0 0,478.33079 0,478.33079 142.874166,0.90045 345.40022,-107.16966 345.40014,-239.196175 0,-132.026537 -159.436816,-239.134595 -345.40014,-239.134615 z"
         id="path6711"
         sodipodi:nodetypes="cccc" />
      <path
         inkscape:connector-curvature="0"
         sodipodi:nodetypes="cccc"
         id="path6713"
         d="m -1559.2523,-150.68038 c 0,0 0,478.33079 0,478.33079 -142.8742,0.90045 -345.4002,-107.16966 -345.4002,-239.196175 0,-132.026537 159.4368,-239.134595 345.4002,-239.134615 z"
         style="color:#000000;display:inline;overflow:visible;visibility:visible;opacity:0.40206185;fill:url(#radialGradient7840);fill-opacity:1;fill-rule:nonzero;stroke:none;stroke-width:1;marker:none" />
    </g>
    <rect
       style="color:#000000;display:block;overflow:visible;visibility:visible;fill:url(#radialGradient15658-9);fill-opacity:1;fill-rule:nonzero;stroke:url(#radialGradient15656-5);stroke-width:17.43770599;stroke-linecap:round;stroke-linejoin:round;stroke-miterlimit:4;stroke-dashoffset:0;stroke-opacity:1;marker:none"
       id="rect15391"
       width="608.14001"
       height="713.55957"
       x="83.894707"
       y="144.37302"
       ry="20.036772" />
    <rect
       style="color:#000000;display:block;overflow:visible;visibility:visible;fill:none;stroke:url(#radialGradient15668-1);stroke-width:17.43770599;stroke-linecap:round;stroke-linejoin:round;stroke-miterlimit:4;stroke-dashoffset:0;stroke-opacity:1;marker:none"
       id="rect15660"
       width="571.53632"
       height="679.13562"
       x="102.42227"
       y="160.72087"
       ry="2.5990651"
       rx="2.5990651" />
    <g
       style="display:inline"
       transform="matrix(17.437706,0,0,17.437706,-19.98363,80.124943)"
       id="g2270">
      <g
         id="g1440"
         style="fill:#ffffff;fill-opacity:1;fill-rule:nonzero;stroke:#000000;stroke-miterlimit:4"
         transform="matrix(0.229703,0,0,0.229703,4.967081,4.244972)">
        <radialGradient
           id="radialGradient1442"
           cx="20.892099"
           cy="114.5684"
           r="5.256"
           fx="20.892099"
           fy="114.5684"
           gradientUnits="userSpaceOnUse">
          <stop
             offset="0"
             style="stop-color:#F0F0F0"
             id="stop1444" />
          <stop
             offset="1"
             style="stop-color:#474747"
             id="stop1446" />
        </radialGradient>
        <path
           inkscape:connector-curvature="0"
           style="stroke:none"
           d="m 23.428,113.07 c 0,1.973 -1.6,3.572 -3.573,3.572 -1.974,0 -3.573,-1.6 -3.573,-3.572 0,-1.974 1.6,-3.573 3.573,-3.573 1.973,0 3.573,1.6 3.573,3.573 z"
           id="path1448" />
        <radialGradient
           id="radialGradient1450"
           cx="20.892099"
           cy="64.567902"
           r="5.257"
           fx="20.892099"
           fy="64.567902"
           gradientUnits="userSpaceOnUse">
          <stop
             offset="0"
             style="stop-color:#F0F0F0"
             id="stop1452" />
          <stop
             offset="1"
             style="stop-color:#474747"
             id="stop1454" />
        </radialGradient>
        <path
           inkscape:connector-curvature="0"
           style="stroke:none"
           d="m 23.428,63.07 c 0,1.973 -1.6,3.573 -3.573,3.573 -1.974,0 -3.573,-1.6 -3.573,-3.573 0,-1.974 1.6,-3.573 3.573,-3.573 1.973,0 3.573,1.6 3.573,3.573 z"
           id="path1456" />
      </g>
      <path
         inkscape:connector-curvature="0"
         style="fill:url(#radialGradient2283-6);fill-rule:nonzero;stroke:none"
         d="m 9.9950109,29.952326 c 0,0.453204 -0.3675248,0.820499 -0.8207288,0.820499 -0.4534338,0 -0.8207289,-0.367524 -0.8207289,-0.820499 0,-0.453434 0.3675248,-0.820729 0.8207289,-0.820729 0.453204,0 0.8207288,0.367525 0.8207288,0.820729 z"
         id="path15570" />
      <path
         inkscape:connector-curvature="0"
         style="fill:url(#radialGradient2285-2);fill-rule:nonzero;stroke:none"
         d="m 9.9950109,18.467176 c 0,0.453204 -0.3675248,0.820729 -0.8207288,0.820729 -0.4534338,0 -0.8207289,-0.367525 -0.8207289,-0.820729 0,-0.453434 0.3675248,-0.820729 0.8207289,-0.820729 0.453204,0 0.8207288,0.367525 0.8207288,0.820729 z"
         id="path15577" />
    </g>
    <path
       inkscape:connector-curvature="0"
       style="display:inline;fill:none;stroke:#000000;stroke-width:17.23809814;stroke-linecap:butt;stroke-linejoin:miter;stroke-miterlimit:4;stroke-opacity:0.01754384"
       d="M 169.37732,176.59497 V 837.59894"
       id="path15672"
       sodipodi:nodetypes="cc" />
    <path
       inkscape:connector-curvature="0"
       style="display:inline;fill:none;stroke:#ffffff;stroke-width:17.43770599;stroke-linecap:butt;stroke-linejoin:miter;stroke-miterlimit:4;stroke-opacity:0.20467828"
       d="M 186.71528,168.33366 V 831.27533"
       id="path15674"
       sodipodi:nodetypes="cc" />
    <g
       style="display:inline"
       transform="matrix(15.852462,0,0,16.162156,4.52298,129.25831)"
       id="g2253"
       inkscape:export-xdpi="94.499939"
       inkscape:export-ydpi="94.499939">
      <rect
         style="color:#000000;display:block;overflow:visible;visibility:visible;fill:#9b9b9b;fill-opacity:0.54970757;fill-rule:nonzero;stroke:none;stroke-width:1;marker:none"
         id="rect15686"
         width="22.000004"
         height="1"
         x="15.000002"
         y="9"
         rx="0.15156493"
         ry="0.065390877" />
      <rect
         style="color:#000000;display:block;overflow:visible;visibility:visible;fill:#9b9b9b;fill-opacity:0.54970757;fill-rule:nonzero;stroke:none;stroke-width:1;marker:none"
         id="rect15688"
         width="22.000004"
         height="1"
         x="15.000002"
         y="11"
         rx="0.15156493"
         ry="0.065390877" />
      <rect
         style="color:#000000;display:block;overflow:visible;visibility:visible;fill:#9b9b9b;fill-opacity:0.54970757;fill-rule:nonzero;stroke:none;stroke-width:1;marker:none"
         id="rect15690"
         width="22.000004"
         height="1"
         x="15.000002"
         y="13"
         rx="0.15156493"
         ry="0.065390877" />
      <rect
         style="color:#000000;display:block;overflow:visible;visibility:visible;fill:#9b9b9b;fill-opacity:0.54970757;fill-rule:nonzero;stroke:none;stroke-width:1;marker:none"
         id="rect15692"
         width="22.000004"
         height="1"
         x="15.000002"
         y="15"
         rx="0.15156493"
         ry="0.065390877" />
      <rect
         style="color:#000000;display:block;overflow:visible;visibility:visible;fill:#9b9b9b;fill-opacity:0.54970757;fill-rule:nonzero;stroke:none;stroke-width:1;marker:none"
         id="rect15694"
         width="22.000004"
         height="1"
         x="15.000002"
         y="17"
         rx="0.15156493"
         ry="0.065390877" />
      <rect
         style="color:#000000;display:block;overflow:visible;visibility:visible;fill:#9b9b9b;fill-opacity:0.54970757;fill-rule:nonzero;stroke:none;stroke-width:1;marker:none"
         id="rect15696"
         width="22.000004"
         height="1"
         x="15.000002"
         y="19"
         rx="0.15156493"
         ry="0.065390877" />
      <rect
         style="color:#000000;display:block;overflow:visible;visibility:visible;fill:#9b9b9b;fill-opacity:0.54970757;fill-rule:nonzero;stroke:none;stroke-width:1;marker:none"
         id="rect15698"
         width="22.000004"
         height="1"
         x="15.000002"
         y="21"
         rx="0.15156493"
         ry="0.065390877" />
      <rect
         style="color:#000000;display:block;overflow:visible;visibility:visible;fill:#9b9b9b;fill-opacity:0.54970757;fill-rule:nonzero;stroke:none;stroke-width:1;marker:none"
         id="rect15700"
         width="22.000004"
         height="1"
         x="15.000002"
         y="23"
         rx="0.15156493"
         ry="0.065390877" />
      <rect
         style="color:#000000;display:block;overflow:visible;visibility:visible;fill:#9b9b9b;fill-opacity:0.54970757;fill-rule:nonzero;stroke:none;stroke-width:1;marker:none"
         id="rect15732"
         width="9.9000053"
         height="1"
         x="14.999992"
         y="25"
         rx="0.068204239"
         ry="0.065390877" />
      <rect
         style="color:#000000;display:block;overflow:visible;visibility:visible;fill:#9b9b9b;fill-opacity:0.54970757;fill-rule:nonzero;stroke:none;stroke-width:1;marker:none"
         id="rect15736"
         width="22.000004"
         height="1"
         x="14.999992"
         y="29"
         rx="0.15156493"
         ry="0.065390877" />
      <rect
         style="color:#000000;display:block;overflow:visible;visibility:visible;fill:#9b9b9b;fill-opacity:0.54970757;fill-rule:nonzero;stroke:none;stroke-width:1;marker:none"
         id="rect15738"
         width="22.000004"
         height="1"
         x="14.999992"
         y="31"
         rx="0.15156493"
         ry="0.065390877" />
      <rect
         style="color:#000000;display:block;overflow:visible;visibility:visible;fill:#9b9b9b;fill-opacity:0.54970757;fill-rule:nonzero;stroke:none;stroke-width:1;marker:none"
         id="rect15740"
         width="22.000004"
         height="1"
         x="14.999992"
         y="33"
         rx="0.15156493"
         ry="0.065390877" />
      <rect
         style="color:#000000;display:block;overflow:visible;visibility:visible;fill:#9b9b9b;fill-opacity:0.54970757;fill-rule:nonzero;stroke:none;stroke-width:1;marker:none"
         id="rect15742"
         width="22.000004"
         height="1"
         x="14.999992"
         y="35"
         rx="0.15156493"
         ry="0.065390877" />
      <rect
         style="color:#000000;display:block;overflow:visible;visibility:visible;fill:#9b9b9b;fill-opacity:0.54970757;fill-rule:nonzero;stroke:none;stroke-width:1;marker:none"
         id="rect15744"
         width="15.400014"
         height="1"
         x="14.999992"
         y="37"
         rx="0.10609552"
         ry="0.065390877" />
    </g>
    <g
       aria-label="Cap"
       transform="matrix(5.7592955,0,0,5.7592955,-995.2179,-1507.8172)"
       style="font-style:normal;font-weight:normal;font-size:40px;line-height:125%;font-family:Sans;letter-spacing:0px;word-spacing:0px;fill:#ff0000;fill-opacity:1;stroke:none"
       id="flowRoot5982">
      <path
         d="m 234.33398,329.41016 v 4.16015 q -1.99218,-1.85547 -4.25781,-2.77344 -2.24609,-0.91796 -4.78515,-0.91796 -5,0 -7.65625,3.0664 -2.65625,3.04688 -2.65625,8.82813 0,5.76172 2.65625,8.82812 2.65625,3.04688 7.65625,3.04688 2.53906,0 4.78515,-0.91797 2.26563,-0.91797 4.25781,-2.77344 v 4.12109 q -2.07031,1.40625 -4.39453,2.10938 -2.30468,0.70312 -4.88281,0.70312 -6.62109,0 -10.42969,-4.04296 -3.80859,-4.0625 -3.80859,-11.07422 0,-7.03125 3.80859,-11.07422 3.8086,-4.0625 10.42969,-4.0625 2.61719,0 4.92188,0.70312 2.32421,0.6836 4.35546,2.07032 z"
         style=""
         id="path19936" />
      <path
         d="m 250.25195,345.32812 q -4.35547,0 -6.03515,0.9961 -1.67969,0.99609 -1.67969,3.39844 0,1.91406 1.25,3.04687 1.26953,1.11328 3.4375,1.11328 2.98828,0 4.78516,-2.10937 1.8164,-2.12891 1.8164,-5.64453 v -0.80079 z m 7.16797,-1.48437 v 12.48047 h -3.59375 v -3.32031 q -1.23047,1.99218 -3.0664,2.94921 -1.83594,0.9375 -4.49219,0.9375 -3.35938,0 -5.35156,-1.875 -1.97266,-1.89453 -1.97266,-5.05859 0,-3.69141 2.46094,-5.56641 2.48047,-1.875 7.38281,-1.875 h 5.03906 v -0.35156 q 0,-2.48047 -1.64062,-3.82812 -1.6211,-1.36719 -4.57032,-1.36719 -1.875,0 -3.65234,0.44922 -1.77734,0.44922 -3.41797,1.34765 v -3.32031 q 1.97266,-0.76172 3.82813,-1.13281 1.85547,-0.39063 3.61328,-0.39063 4.74609,0 7.08984,2.46094 2.34375,2.46094 2.34375,7.46094 z"
         style=""
         id="path19938" />
      <path
         d="m 268.31836,353.04297 v 11.60156 h -3.61328 v -30.19531 h 3.61328 v 3.32031 q 1.13281,-1.95312 2.85156,-2.89062 1.73828,-0.95704 4.14063,-0.95704 3.98437,0 6.46484,3.16407 2.5,3.16406 2.5,8.32031 0,5.15625 -2.5,8.32031 -2.48047,3.16406 -6.46484,3.16406 -2.40235,0 -4.14063,-0.9375 -1.71875,-0.95703 -2.85156,-2.91015 z m 12.22656,-7.63672 q 0,-3.96484 -1.64062,-6.21094 -1.6211,-2.26562 -4.47266,-2.26562 -2.85156,0 -4.49219,2.26562 -1.62109,2.2461 -1.62109,6.21094 0,3.96484 1.62109,6.23047 1.64063,2.24609 4.49219,2.24609 2.85156,0 4.47266,-2.24609 1.64062,-2.26563 1.64062,-6.23047 z"
         style=""
         id="path19940" />
    </g>
  </g>
</svg>
