<?xml version="1.0" encoding="UTF-8" standalone="no"?>
<svg
   xmlns:dc="http://purl.org/dc/elements/1.1/"
   xmlns:cc="http://creativecommons.org/ns#"
   xmlns:rdf="http://www.w3.org/1999/02/22-rdf-syntax-ns#"
   xmlns:svg="http://www.w3.org/2000/svg"
   xmlns="http://www.w3.org/2000/svg"
   xmlns:sodipodi="http://sodipodi.sourceforge.net/DTD/sodipodi-0.dtd"
   xmlns:inkscape="http://www.inkscape.org/namespaces/inkscape"
   viewBox="0 0 175 175"
   id="svg3020"
   version="1.1"
   inkscape:version="0.92.4 (5da689c313, 2019-01-14)"
   width="100%"
   height="100%"
   sodipodi:docname="edit-report.svg"
   inkscape:export-xdpi="140.43428"
   inkscape:export-ydpi="140.43428">
  <defs
     id="defs3053" />
  <sodipodi:namedview
     pagecolor="#ffffff"
     bordercolor="#666666"
     borderopacity="1"
     objecttolerance="10"
     gridtolerance="10"
     guidetolerance="10"
     inkscape:pageopacity="0"
     inkscape:pageshadow="2"
     inkscape:window-width="1024"
     inkscape:window-height="705"
     id="namedview3051"
     showgrid="false"
     inkscape:zoom="0.87165553"
     inkscape:cx="182.63247"
     inkscape:cy="-13.347461"
     inkscape:window-x="-8"
     inkscape:window-y="-8"
     inkscape:window-maximized="1"
     inkscape:current-layer="svg3020" />
  <path
     id="imagebot_26"
     d="M 8.75613,2.658216 C 5.289271,2.973385 2.58978,5.659173 2.58978,8.906784 V 164.97025 c 0,3.45316 3.055769,6.23487 6.8515,6.23487 h 123.327 c 3.79573,0 6.8515,-2.78171 6.8515,-6.23487 V 34.668424 L 107.49995,2.658216 H 9.44128 c -0.246654,0 -0.452199,-0.027406 -0.68515,0 z"
     inkscape:connector-curvature="0"
     style="fill:#ffffff;stroke:#000000;stroke-width:2.05544996;stroke-linejoin:round" />
  <path
     id="imagebot_25"
     d="m 107.56846,2.644513 v 25.172411 c 0,3.795731 3.05577,6.8515 6.8515,6.8515 h 25.21352 z"
     inkscape:connector-curvature="0"
     style="fill:#ffffff;stroke:#000000;stroke-width:2.05544996;stroke-linejoin:round" />
  <path
     id="imagebot_24"
     d="m 107.56846,2.644513 v 25.172411 c 0,3.795731 3.05577,6.8515 6.8515,6.8515 h 25.21352 z"
     inkscape:connector-curvature="0"
     style="fill:#ffffff;stroke:#000000;stroke-width:2.05544996;stroke-linejoin:round" />
  <g
     id="g11163">
    <rect
       style="fill:#ffffff;stroke:#000000;stroke-width:2.05544996;stroke-linejoin:round"
       x="12.195563"
       y="32.105972"
       width="13.703"
       height="13.703"
       rx="2.7406001"
       ry="2.7406001"
       id="imagebot_21" />
    <path
       style="fill:none;fill-rule:evenodd;stroke:#000000;stroke-width:4.11089993"
       inkscape:connector-curvature="0"
       d="m 35.47698,38.971166 h 39.7387"
       id="imagebot_17" />
    <path
       style="fill:#ff0000;stroke-width:4.11089993;stroke-linejoin:round"
       inkscape:connector-curvature="0"
       d="m 14.442875,29.433878 c 0.534417,0.972913 0.04111,0.04111 0.712556,1.342894 0.178139,0.356278 0.397387,0.712556 0.561823,1.068834 0.712556,1.562142 1.205864,3.233908 1.753984,4.864565 0.424793,0.918101 0.931804,3.42575 1.699172,4.1109 0.191842,0.150733 0.479605,0.205545 0.712556,0.13703 0.356278,-0.09592 1.301785,-0.644041 0.918101,-0.630338 -0.630338,0.0137 -1.178458,0.438496 -1.767687,0.657744 3.823137,-3.261314 7.632571,-6.563737 11.770877,-9.413961 2.672085,-1.849905 4.193118,-2.699491 6.947421,-4.330148 6.687064,-3.768325 3.850543,-2.260995 8.454751,-4.65902 l -2.7406,2.206183 c -2.562461,1.301785 -1.575845,1.109943 -2.7406,1.301785 -2.713194,1.589548 -4.426069,2.535055 -7.043342,4.330148 -3.97387,2.726897 -7.605165,5.905993 -11.154242,9.153604 -1.616954,1.082537 -3.192799,2.247292 -4.864565,3.261314 -0.356278,0.219248 -0.781071,0.438496 -1.219567,0.424793 -0.767368,0 -1.109943,-1.082537 -1.288082,-1.548439 -0.397387,-1.027725 -0.616635,-2.137668 -1.027725,-3.15169 -0.863289,-2.439134 -1.699172,-4.946783 -3.398344,-6.961124 z"
       id="imagebot_15" />
  </g>
  <g
     id="imagebot_4"
     transform="matrix(1.3363851,-0.30298703,0.30298703,1.3363851,-148.0473,54.250011)">
    <path
       id="imagebot_13"
       d="m 156.39,104.43 -0.72,-1.34 -5.67,2.13 -0.05,0.07 z"
       inkscape:connector-curvature="0"
       style="fill:#aa0000;fill-rule:evenodd;stroke-width:1px" />
    <rect
       id="imagebot_12"
       transform="rotate(-118.54)"
       width="4.4545002"
       y="99.323997"
       x="-171.00999"
       height="60"
       style="fill:#aa0000" />
    <rect
       id="imagebot_11"
       transform="rotate(-118.54)"
       width="4.4545002"
       y="99.323997"
       x="-166.56"
       height="60"
       style="fill:#d40000" />
    <rect
       id="imagebot_10"
       transform="rotate(-118.54)"
       width="4.4545002"
       y="99.323997"
       x="-162.10001"
       height="60"
       style="fill:#ff2a2a" />
    <path
       id="imagebot_9"
       d="m 155.67,103.09 11.27,-4.224 0.07,0.048 -2.15,-4.105 -0.01,0.051 -9.91,6.9 z"
       inkscape:connector-curvature="0"
       style="fill:#ffd42a;fill-rule:evenodd;stroke-width:1px" />
    <path
       id="imagebot_8"
       d="m 155.67,103.09 -0.73,-1.33 -4.94,3.46 z"
       inkscape:connector-curvature="0"
       style="fill:#d40000;fill-rule:evenodd;stroke-width:1px" />
    <path
       id="imagebot_7"
       d="m 154.94,101.76 -0.69,-1.27 -4.25,4.73 z"
       inkscape:connector-curvature="0"
       style="fill:#ff2a2a;fill-rule:evenodd;stroke-width:1px" />
    <path
       id="imagebot_6"
       d="m 154.94,101.76 9.91,-6.9 0.01,-0.051 -2.05,-3.854 -8.56,9.535 z"
       inkscape:connector-curvature="0"
       style="fill:#ffdd55;fill-rule:evenodd;stroke-width:1px" />
    <path
       id="imagebot_5"
       d="m 156.39,104.43 12.67,-1.66 -2.05,-3.856 -0.07,-0.048 -11.27,4.224 z"
       inkscape:connector-curvature="0"
       style="fill:#ffcc00;fill-rule:evenodd;stroke-width:1px" />
  </g>
  <metadata
     id="metadata3049">
    <rdf:RDF>
      <cc:Work>
        <dc:format>image/svg+xml</dc:format>
        <dc:type
           rdf:resource="http://purl.org/dc/dcmitype/StillImage" />
        <cc:license
           rdf:resource="http://creativecommons.org/publicdomain/zero/1.0/" />
        <dc:publisher>
          <cc:Agent
             rdf:about="http://openclipart.org/">
            <dc:title>Openclipart</dc:title>
          </cc:Agent>
        </dc:publisher>
        <dc:title />
      </cc:Work>
      <cc:License
         rdf:about="http://creativecommons.org/licenses/publicdomain/">
        <cc:permits
           rdf:resource="http://creativecommons.org/ns#Reproduction" />
        <cc:permits
           rdf:resource="http://creativecommons.org/ns#Distribution" />
        <cc:permits
           rdf:resource="http://creativecommons.org/ns#DerivativeWorks" />
      </cc:License>
    </rdf:RDF>
  </metadata>
  <g
     id="g11110"
     transform="translate(-1.862011,-19.338654)">
    <rect
       style="fill:#ffffff;stroke:#000000;stroke-width:2.05544996;stroke-linejoin:round"
       x="14.057575"
       y="80.617058"
       width="13.703"
       height="13.703"
       rx="2.7406001"
       ry="2.7406001"
       id="imagebot_21-0" />
    <path
       style="fill:none;fill-rule:evenodd;stroke:#000000;stroke-width:4.11089993"
       inkscape:connector-curvature="0"
       d="M 37.338991,87.482253 H 77.07769"
       id="imagebot_17-1" />
    <path
       style="fill:#ff0000;stroke-width:4.11089993;stroke-linejoin:round"
       inkscape:connector-curvature="0"
       d="m 16.304886,77.944965 c 0.534417,0.972913 0.04111,0.04111 0.712556,1.342894 0.178139,0.356278 0.397387,0.712556 0.561823,1.068834 0.712556,1.562142 1.205864,3.233908 1.753984,4.864565 0.424793,0.918101 0.931804,3.42575 1.699172,4.1109 0.191842,0.150733 0.479605,0.205545 0.712556,0.13703 0.356278,-0.09592 1.301785,-0.644041 0.918101,-0.630338 -0.630338,0.0137 -1.178458,0.438496 -1.767687,0.657744 3.823137,-3.261314 7.632571,-6.563737 11.770877,-9.413961 2.672085,-1.849905 4.193118,-2.699491 6.947421,-4.330148 6.687064,-3.768325 3.850543,-2.260995 8.454751,-4.65902 l -2.7406,2.206183 c -2.562461,1.301785 -1.575845,1.109943 -2.7406,1.301785 -2.713194,1.589548 -4.426069,2.535055 -7.043342,4.330148 -3.97387,2.726897 -7.605165,5.905993 -11.154242,9.153604 -1.616954,1.082537 -3.192799,2.247292 -4.864565,3.261314 -0.356278,0.219248 -0.781071,0.438496 -1.219567,0.424793 -0.767368,0 -1.109943,-1.082537 -1.288082,-1.548439 -0.397387,-1.027725 -0.616635,-2.137668 -1.027725,-3.15169 -0.863289,-2.439134 -1.699172,-4.946783 -3.398344,-6.961124 z"
       id="imagebot_15-9" />
  </g>
  <rect
     id="imagebot_21-0-4"
     ry="2.7406001"
     rx="2.7406001"
     height="13.703"
     width="13.703"
     y="90.450859"
     x="12.195564"
     style="fill:#ffffff;stroke:#000000;stroke-width:2.05544996;stroke-linejoin:round" />
  <path
     id="imagebot_17-1-8"
     d="M 35.47698,97.316052 H 75.215679"
     inkscape:connector-curvature="0"
     style="fill:none;fill-rule:evenodd;stroke:#000000;stroke-width:4.11089993" />
  <rect
     id="imagebot_21-0-6"
     ry="2.7406001"
     rx="2.7406001"
     height="13.703"
     width="13.703"
     y="119.62329"
     x="12.195564"
     style="fill:#ffffff;stroke:#000000;stroke-width:2.05544996;stroke-linejoin:round" />
  <path
     id="imagebot_17-1-0"
     d="M 35.47698,126.48849 H 75.215679"
     inkscape:connector-curvature="0"
     style="fill:none;fill-rule:evenodd;stroke:#000000;stroke-width:4.11089993" />
</svg>
