<?xml version="1.0" encoding="UTF-8" standalone="no"?>
<!-- Created with Inkscape (http://www.inkscape.org/) -->

<svg
   xmlns:dc="http://purl.org/dc/elements/1.1/"
   xmlns:cc="http://creativecommons.org/ns#"
   xmlns:rdf="http://www.w3.org/1999/02/22-rdf-syntax-ns#"
   xmlns:svg="http://www.w3.org/2000/svg"
   xmlns="http://www.w3.org/2000/svg"
   xmlns:sodipodi="http://sodipodi.sourceforge.net/DTD/sodipodi-0.dtd"
   xmlns:inkscape="http://www.inkscape.org/namespaces/inkscape"
   width="295"
   height="295"
   id="svg2"
   version="1.1"
   inkscape:version="0.92.4 (5da689c313, 2019-01-14)"
   sodipodi:docname="function.svg"
   inkscape:export-xdpi="83.416573"
   inkscape:export-ydpi="83.416573">
  <defs
     id="defs4" />
  <sodipodi:namedview
     id="base"
     pagecolor="#ffffff"
     bordercolor="#666666"
     borderopacity="1.0"
     inkscape:pageopacity="0.0"
     inkscape:pageshadow="2"
     inkscape:zoom="0.7"
     inkscape:cx="-119.25321"
     inkscape:cy="118.15656"
     inkscape:document-units="px"
     inkscape:current-layer="layer1"
     showgrid="false"
     inkscape:window-width="1024"
     inkscape:window-height="705"
     inkscape:window-x="-8"
     inkscape:window-y="-8"
     inkscape:window-maximized="1"
     fit-margin-top="0"
     fit-margin-left="0"
     fit-margin-right="0"
     fit-margin-bottom="0" />
  <metadata
     id="metadata7">
    <rdf:RDF>
      <cc:Work
         rdf:about="">
        <dc:format>image/svg+xml</dc:format>
        <dc:type
           rdf:resource="http://purl.org/dc/dcmitype/StillImage" />
        <dc:title />
      </cc:Work>
    </rdf:RDF>
  </metadata>
  <g
     inkscape:groupmode="layer"
     id="layer7"
     inkscape:label="Paper"
     style="display:inline;opacity:1"
     transform="translate(44.19915,32.292595)" />
  <g
     inkscape:label="Layer 1"
     inkscape:groupmode="layer"
     id="layer1"
     transform="translate(-60.65109,-197.85018)"
     style="display:inline">
    <g
       aria-label="f"
       transform="scale(1.0606965,0.94277676)"
       style="font-style:normal;font-weight:normal;font-size:17.04753304px;line-height:0%;font-family:sans-serif;letter-spacing:0px;word-spacing:0px;fill:#0000ff;fill-opacity:1;stroke:none;stroke-width:1.42062759"
       id="text2985">
      <path
         d="m 144.1792,330.60379 q 3.46833,0.13873 6.65919,0.2081 3.26023,0.0694 6.03489,0.13873 2.84403,0 5.06376,0.0694 2.2891,0 3.88453,0 3.19087,0 6.0349,-0.2081 2.84403,-0.2081 4.85566,-0.4162 0.76303,2.63593 0.76303,4.16199 0,3.05213 -2.56656,4.02327 -2.4972,0.97113 -7.28349,0.97113 -4.7863,0 -10.68246,-0.48557 -5.89616,-0.55493 -12.97155,-1.0405 -0.27747,8.25463 -0.69367,17.96595 -0.4162,9.71132 -1.10986,20.11631 -0.6243,10.40499 -1.59543,21.15681 -0.97114,10.68246 -2.42784,20.87934 -1.38733,10.19689 -3.32959,19.42265 -1.94227,9.29512 -4.50883,16.85608 -4.09263,11.86169 -9.22576,19.76948 -5.13312,7.97716 -10.95992,12.76345 -5.75742,4.85566 -11.931051,6.86729 -6.242993,2.081 -12.416619,2.081 -5.341227,0 -9.850056,-1.17923 -4.578195,-1.17923 -7.907791,-3.19086 -3.329596,-2.01163 -5.202494,-4.71693 -1.942265,-2.63593 -1.942265,-5.6187 0,-1.66479 0.763033,-3.32959 0.763032,-1.59543 2.150364,-2.84403 1.317965,-1.2486 3.190863,-2.081 1.803532,-0.76303 3.953896,-0.76303 2.011631,3.60706 4.439462,6.10426 2.42783,2.56656 5.202494,4.16199 2.774663,1.6648 5.757427,2.42783 2.982763,0.76304 6.034893,0.76304 7.977154,0 13.526484,-5.2025 5.61869,-5.13313 9.36449,-14.63635 3.81516,-9.43385 5.96553,-22.82161 2.15036,-13.38775 3.26023,-29.75826 1.17923,-16.43988 1.52606,-35.44633 0.4162,-19.07581 0.55493,-39.95516 -6.52046,0.0694 -12.06978,0.48557 -5.54933,0.4162 -9.29513,1.80353 -0.27746,-0.6243 -0.27746,-1.31796 0,-1.6648 1.59543,-3.05213 1.59543,-1.4567 4.43946,-2.56657 2.9134,-1.10986 6.93666,-1.80353 4.09263,-0.69366 9.01766,-0.90176 0.27746,-6.52046 0.69366,-12.41662 0.4162,-5.96553 1.0405,-11.72296 0.69367,-5.82679 1.6648,-11.65358 0.97113,-5.8268 2.42783,-12.06979 1.8729,-8.11589 4.85566,-14.56698 2.98277,-6.52046 6.72856,-11.51486 3.81516,-5.06376 8.18526,-8.67082 4.43946,-3.60706 9.08702,-5.89616 4.64756,-2.35847 9.43386,-3.39896 4.78629,-1.10987 9.36449,-1.10987 6.72856,0 11.93105,1.80353 5.27186,1.73417 8.87892,4.64756 3.67643,2.84403 5.54933,6.4511 1.94227,3.60706 1.94227,7.35285 0,2.9134 -0.97114,5.2025 -0.90176,2.2891 -2.56656,3.88453 -1.59543,1.52606 -3.7458,2.35846 -2.15036,0.8324 -4.57819,0.8324 -3.19086,0 -6.72856,-1.59543 l -0.27747,-0.76303 q 1.31797,-3.05213 1.94227,-5.34123 0.69366,-2.2891 0.69366,-4.71693 0,-3.3296 -1.38733,-5.68806 -1.31796,-2.42783 -3.53769,-3.95389 -2.15037,-1.52607 -4.85566,-2.21974 -2.63594,-0.69366 -5.27187,-0.69366 -7.76905,0 -13.17965,3.46833 -5.34123,3.46833 -8.94829,9.57259 -3.53769,6.03489 -5.61869,14.28951 -2.081,8.18526 -3.19086,17.68848 -1.0405,9.50323 -1.52607,19.90822 -0.4162,10.33562 -0.76303,20.67124 z"
         style="font-style:normal;font-variant:normal;font-weight:normal;font-stretch:normal;font-size:284.12554932px;line-height:125%;font-family:Gabriola;-inkscape-font-specification:Gabriola;text-align:start;writing-mode:lr-tb;text-anchor:start;fill:#0000ff;fill-opacity:1;stroke-width:1.42062759"
         id="path1763" />
    </g>
    <g
       aria-label="(x)"
       transform="scale(0.99534606,1.0046757)"
       style="font-style:normal;font-weight:normal;font-size:17.04753304px;line-height:0%;font-family:sans-serif;letter-spacing:0px;word-spacing:0px;fill:#0000ff;fill-opacity:1;stroke:none;stroke-width:1.42062759"
       id="text2985-1">
      <path
         d="m 235.82487,462.19573 q -1.35926,1.65053 -2.81561,2.3787 -1.45635,0.72818 -3.05833,0.72818 -2.37871,0 -4.70887,-1.21363 -2.33015,-1.16508 -4.95158,-3.64087 -3.73797,-3.64087 -6.99048,-8.49537 -3.25251,-4.8545 -5.92249,-10.53426 -2.62142,-5.63122 -4.70886,-11.94206 -2.03889,-6.31085 -3.49524,-12.91297 -1.4078,-6.60211 -2.13598,-13.30132 -0.72817,-6.74775 -0.72817,-13.20423 0,-12.42752 2.13598,-24.6123 2.18452,-12.18479 6.45648,-23.68995 4.3205,-11.5537 10.67989,-22.18505 6.40794,-10.6799 14.90331,-20.14617 l 3.44669,2.71852 q -6.99047,8.59246 -12.33042,18.39855 -5.2914,9.80608 -8.88373,20.43743 -3.59233,10.63135 -5.43704,21.89378 -1.79616,11.21389 -1.79616,22.62196 0,6.74775 0.67963,13.78677 0.72817,6.99048 2.23307,13.93241 1.50489,6.94193 3.8836,13.68968 2.3787,6.74775 5.7283,12.91296 3.39815,6.21376 7.7672,11.69934 4.41759,5.48559 9.95172,9.90318 z"
         style="font-style:normal;font-variant:normal;font-weight:normal;font-stretch:normal;font-size:198.84020996px;line-height:125%;font-family:Gabriola;-inkscape-font-specification:Gabriola;text-align:start;writing-mode:lr-tb;text-anchor:start;fill:#0000ff;fill-opacity:1;stroke-width:1.42062759"
         id="path1756" />
      <path
         d="m 241.45609,365.97959 q 3.3496,-1.11653 6.35939,-2.03889 3.00979,-0.92235 5.48558,-1.55344 2.47579,-0.67963 4.27196,-1.01944 1.84471,-0.33982 2.86415,-0.33982 1.50489,0 2.81561,0.43691 1.35926,0.4369 2.57288,1.69907 1.26217,1.26217 2.42725,3.49524 1.21363,2.23307 2.42725,5.77685 1.45635,4.27196 2.9127,8.10701 1.45635,3.78651 2.81561,7.57302 3.10687,-6.16521 6.16521,-11.21389 3.10688,-5.09722 6.21375,-8.64101 3.15543,-3.59232 6.3594,-5.53412 3.25251,-1.99035 6.65066,-1.99035 2.18452,0 3.83505,0.67963 1.65053,0.63109 2.76706,1.69908 1.16508,1.06799 1.69908,2.52434 0.58254,1.4078 0.58254,2.91269 0,2.03889 -1.01945,4.07778 -1.01944,1.99035 -3.10688,3.39815 h -0.38835 q -0.87381,-1.06799 -1.84471,-1.69907 -0.92236,-0.67963 -1.89326,-1.01945 -0.9709,-0.38836 -1.9418,-0.48545 -0.92235,-0.14563 -1.79616,-0.14563 -2.86415,0 -5.53413,1.65053 -2.62143,1.60198 -5.09722,4.51468 -2.47579,2.86415 -4.8545,6.79629 -2.33016,3.93215 -4.66031,8.59247 2.28161,6.2623 4.17486,11.0197 1.9418,4.75741 3.64088,8.25265 1.69907,3.44669 3.30105,5.77685 1.60199,2.33016 3.25252,3.73796 1.65053,1.40781 3.44669,1.99035 1.79616,0.58254 3.93214,0.58254 1.45635,0 2.66998,-0.0971 1.26217,-0.0971 2.42725,-0.29127 1.21362,-0.24273 2.52433,-0.63109 1.31072,-0.38836 2.9127,-0.9709 l 0.9709,2.76707 q -2.33016,1.60198 -5.00013,2.96124 -2.66997,1.31071 -5.38849,2.23307 -2.71852,0.9709 -5.33995,1.45635 -2.57288,0.53399 -4.80595,0.53399 -3.15542,0 -5.67976,-1.55344 -2.4758,-1.50489 -4.75741,-4.80595 -2.23307,-3.3496 -4.51468,-8.49537 -2.28162,-5.19431 -5.04868,-12.47606 -3.44669,6.11667 -6.84484,11.21389 -3.3496,5.09722 -6.74775,8.78664 -3.39815,3.64088 -6.84484,5.67976 -3.39815,2.03889 -6.89339,2.03889 -2.13598,0 -3.73796,-0.58254 -1.60199,-0.58254 -2.66998,-1.55344 -1.06799,-0.9709 -1.60198,-2.23306 -0.58254,-1.31072 -0.58254,-2.71852 0,-1.65053 0.72817,-3.34961 0.72818,-1.69907 2.18453,-3.25251 2.62143,0.9709 4.66032,1.35926 2.08743,0.38836 3.7865,0.38836 3.10688,0 5.97103,-1.55344 2.86416,-1.55344 5.58268,-4.36905 2.71852,-2.86415 5.38849,-6.89338 2.66997,-4.02924 5.38849,-8.98082 -0.87381,-2.33016 -1.79616,-4.80596 -0.87381,-2.47579 -1.89326,-5.19431 -1.01944,-2.76706 -2.13598,-5.82539 -1.11653,-3.10688 -2.3787,-6.60212 -1.11653,-2.96124 -2.23307,-4.80595 -1.06799,-1.89326 -2.33016,-2.96125 -1.21362,-1.06799 -2.66997,-1.45635 -1.40781,-0.38836 -3.15542,-0.38836 -1.55344,0 -3.68942,0.38836 -2.08744,0.33982 -4.56323,0.87381 z"
         style="font-style:normal;font-variant:normal;font-weight:normal;font-stretch:normal;font-size:198.84020996px;line-height:125%;font-family:Gabriola;-inkscape-font-specification:Gabriola;text-align:start;writing-mode:lr-tb;text-anchor:start;fill:#0000ff;fill-opacity:1;stroke-width:1.42062759"
         id="path1758" />
      <path
         d="m 312.8172,302.57986 q 1.35926,-1.65053 2.81561,-2.37871 1.45635,-0.72817 3.05833,-0.72817 2.37871,0 4.70886,1.21362 2.33016,1.16508 4.95159,3.64087 3.73796,3.68942 6.94193,8.54392 3.25252,4.80595 5.87394,10.48571 2.66998,5.63122 4.75741,11.94207 2.08744,6.31084 3.49524,12.91296 1.4078,6.55357 2.13598,13.30132 0.77672,6.69921 0.77672,13.20424 0,12.47605 -2.18453,24.66084 -2.13597,12.13625 -6.45648,23.68995 -4.27196,11.50516 -10.67989,22.13651 -6.35939,10.67989 -14.85476,20.14616 l -3.4467,-2.71852 q 6.99048,-8.59246 12.28188,-18.39854 5.33995,-9.80609 8.93228,-20.43744 3.59232,-10.63135 5.38849,-21.84523 1.84471,-11.26244 1.84471,-22.67051 0,-6.74775 -0.72818,-13.73822 -0.67963,-7.03903 -2.18452,-13.98096 -1.50489,-6.94193 -3.93214,-13.64113 -2.37871,-6.74776 -5.72831,-12.91297 -3.3496,-6.21375 -7.7672,-11.69934 -4.36904,-5.48558 -9.90317,-9.95171 z"
         style="font-style:normal;font-variant:normal;font-weight:normal;font-stretch:normal;font-size:198.84020996px;line-height:125%;font-family:Gabriola;-inkscape-font-specification:Gabriola;text-align:start;writing-mode:lr-tb;text-anchor:start;fill:#0000ff;fill-opacity:1;stroke-width:1.42062759"
         id="path1760" />
    </g>
  </g>
</svg>
