<?xml version="1.0" encoding="UTF-8" standalone="no"?>
<!--part of the matt icon theme by sixsixfive released under CC0 (https://creativecommons.org/publicdomain/zero/1.0/) on openclipart-->

<svg
   xmlns:dc="http://purl.org/dc/elements/1.1/"
   xmlns:cc="http://creativecommons.org/ns#"
   xmlns:rdf="http://www.w3.org/1999/02/22-rdf-syntax-ns#"
   xmlns:svg="http://www.w3.org/2000/svg"
   xmlns="http://www.w3.org/2000/svg"
   xmlns:xlink="http://www.w3.org/1999/xlink"
   xmlns:sodipodi="http://sodipodi.sourceforge.net/DTD/sodipodi-0.dtd"
   xmlns:inkscape="http://www.inkscape.org/namespaces/inkscape"
   viewBox="0 0 138 138"
   version="1.1"
   id="svg1013"
   sodipodi:docname="help-manual.svg"
   width="138"
   height="138"
   inkscape:version="0.92.4 (5da689c313, 2019-01-14)"
   inkscape:export-filename="Z:\Resources\ReadabilityStudio\ribbon\helpmanual.png"
   inkscape:export-xdpi="178.69742"
   inkscape:export-ydpi="178.69742">
  <metadata
     id="metadata1017">
    <rdf:RDF>
      <cc:Work
         rdf:about="">
        <dc:format>image/svg+xml</dc:format>
        <dc:type
           rdf:resource="http://purl.org/dc/dcmitype/StillImage" />
        <dc:title></dc:title>
      </cc:Work>
    </rdf:RDF>
  </metadata>
  <sodipodi:namedview
     pagecolor="#ffffff"
     bordercolor="#666666"
     borderopacity="1"
     objecttolerance="10"
     gridtolerance="10"
     guidetolerance="10"
     inkscape:pageopacity="0"
     inkscape:pageshadow="2"
     inkscape:window-width="1024"
     inkscape:window-height="746"
     id="namedview1015"
     showgrid="false"
     fit-margin-top="0"
     fit-margin-left="0"
     fit-margin-right="0"
     fit-margin-bottom="0"
     inkscape:zoom="2.80633"
     inkscape:cx="66.464668"
     inkscape:cy="54.75645"
     inkscape:window-x="5"
     inkscape:window-y="-7"
     inkscape:window-maximized="1"
     inkscape:current-layer="svg1013" />
  <defs
     id="0">
    <linearGradient
       id="B">
      <stop
         id="w"
         stop-color="#cd0f0f" />
      <stop
         offset="1"
         id="x"
         stop-color="#d51313" />
    </linearGradient>
    <linearGradient
       id="C">
      <stop
         id="y" />
      <stop
         offset="1"
         id="z"
         stop-opacity="0.536" />
    </linearGradient>
    <linearGradient
       id="D">
      <stop
         id="10" />
      <stop
         offset="1"
         id="11"
         stop-color="#ddd"
         stop-opacity="0" />
    </linearGradient>
    <filter
       id="E"
       x="-0.147"
       width="1.294"
       y="-0.145"
       height="1.29">
      <feGaussianBlur
         stdDeviation="1.81881"
         id="12" />
    </filter>
    <filter
       id="F">
      <feGaussianBlur
         stdDeviation="2.58594"
         id="13" />
    </filter>
    <radialGradient
       xlink:href="#C"
       id="G"
       gradientUnits="userSpaceOnUse"
       gradientTransform="matrix(1,0,0,0.97467889,0,0.43910718)"
       cx="89.510002"
       cy="22.254"
       r="18.278999" />
    <linearGradient
       xlink:href="#D"
       id="H"
       gradientUnits="userSpaceOnUse"
       gradientTransform="matrix(0.96714879,0,0,0.96714879,7.161889,8.4578702)"
       x1="98.330002"
       y1="14.793"
       x2="86.82"
       y2="25.1" />
    <radialGradient
       xlink:href="#B"
       id="I"
       gradientUnits="userSpaceOnUse"
       gradientTransform="matrix(2.0026052,-1.5970314,1.7773333,2.2286954,-272.52987,32.248499)"
       cx="81.790001"
       cy="100.32"
       r="44.419998" />
    <linearGradient
       id="h">
      <stop
         id="1E"
         stop-color="#f2f2f2" />
      <stop
         offset="1"
         id="1F"
         stop-color="#ddd" />
    </linearGradient>
    <linearGradient
       xlink:href="#h"
       gradientUnits="userSpaceOnUse"
       y2="114.82"
       x2="76.010002"
       y1="9.6129999"
       x1="59.139999"
       id="s"
       gradientTransform="translate(5.573209,5.2346738)" />
    <linearGradient
       xlink:href="#h"
       id="t"
       x1="21.030001"
       x2="45.905998"
       gradientUnits="userSpaceOnUse"
       gradientTransform="translate(5.573209,5.2346738)" />
  </defs>
  <path
     d="M 20.09375,4.1185004 V 122.1185 H 108.9375 V 35.96225 l -0.59375,-0.625 c 0.21045,0.144391 0.41688,0.302162 0.625,0.4375 L 78.09375,4.1497504 c 0.05654,0.079597 0.09993,0.1703021 0.15625,0.25 L 78,4.1185004 Z"
     id="1"
     transform="matrix(0.96714879,0,0,0.97126149,7.161889,7.9301053)"
     inkscape:connector-curvature="0"
     style="opacity:0.80899999;filter:url(#F)" />
  <path
     d="M 26.595534,11.087306 V 125.21086 H 112.52066 V 41.88495 L 82.599494,11.087306 Z"
     id="2"
     inkscape:connector-curvature="0"
     style="fill:url(#I)" />
  <path
     d="m 26.604459,91.734673 v 13.749997 c 4.505261,5.28517 7.427475,12.15709 9.65625,19.71875 h 15.21875 C 42.220911,106.72429 34.129081,97.035972 26.604459,91.734673 Z"
     id="3"
     inkscape:connector-curvature="0"
     style="fill:url(#t)" />
  <path
     d="m 47.541959,11.078423 c -4.480431,5.194582 -12.184772,11.28745 -20.9375,17.71875 v 19.09375 c 13.889174,-9.240479 29.365162,-21.209209 31.90625,-26.4375 -0.04154,34.586427 14.335717,69.163572 22.7815,103.749997 H 112.51071 V 93.922173 C 89.912069,63.30036 81.842652,27.494273 79.385709,11.078423 Z"
     id="4"
     inkscape:connector-curvature="0"
     style="fill:url(#s)" />
  <path
     d="M 112.51071,81.484673 C 96.080878,93.328823 83.734797,108.30304 73.916959,125.20342 h 17.28125 c 5.0215,-9.59313 12.646001,-16.38356 21.312501,-22.34375 z"
     id="5"
     inkscape:connector-curvature="0"
     style="opacity:0.24899998;fill:#323232" />
  <path
     d="M 83.635709,12.140923 C 66.829497,22.507652 48.020638,31.187522 26.604459,37.672173 v 22.15625 c 29.016749,-0.871764 57.912908,-2.550291 85.906251,-9.5625 v -8.375 z"
     id="6"
     inkscape:connector-curvature="0"
     style="opacity:0.24899998;fill:#323232" />
  <path
     id="7"
     d="m 81.698039,28.309502 0.135161,-8.351 C 81.901124,13.359407 80.956142,8.4107397 77.785779,3.9471419 L 80.362343,3.9159389 107.86271,29.53084 c -4.06802,-2.645393 -9.621189,-0.791242 -16.861906,-1.025606 z"
     transform="matrix(1.016085,0,0,1.112241,1.780971,8.1994322)"
     inkscape:connector-curvature="0"
     style="opacity:0.50499998;fill:url(#G);filter:url(#E)" />
  <path
     d="m 88.321528,34.356354 0.130721,-8.07666 c 0.06569,-6.382306 -2.691577,-10.83607 -5.75779,-15.153032 L 112.5612,41.714828 c -3.93438,-2.558489 -8.23966,-6.942507 -15.242514,-7.169171 z"
     id="8"
     inkscape:connector-curvature="0"
     style="fill:#eeeeee" />
  <path
     id="9"
     d="m 88.321528,34.356354 0.130721,-8.07666 c 0.06569,-6.382306 -2.691577,-10.83607 -5.75779,-15.153032 L 112.5612,41.714828 c -3.93438,-2.558489 -8.23966,-6.942507 -15.242514,-7.169171 z"
     inkscape:connector-curvature="0"
     style="fill:url(#H)" />
</svg>
