<?xml version="1.0" encoding="UTF-8" standalone="no"?>
<!-- Created with Inkscape (http://www.inkscape.org/) -->

<svg
   id="svg4271"
   sodipodi:docname="notepad.svg"
   viewBox="0 0 248 248"
   sodipodi:version="0.32"
   version="1.0"
   inkscape:output_extension="org.inkscape.output.svg.inkscape"
   inkscape:version="1.3 (0e150ed6c4, 2023-07-21)"
   width="248"
   height="248"
   xmlns:inkscape="http://www.inkscape.org/namespaces/inkscape"
   xmlns:sodipodi="http://sodipodi.sourceforge.net/DTD/sodipodi-0.dtd"
   xmlns="http://www.w3.org/2000/svg"
   xmlns:svg="http://www.w3.org/2000/svg"
   xmlns:rdf="http://www.w3.org/1999/02/22-rdf-syntax-ns#"
   xmlns:cc="http://creativecommons.org/ns#"
   xmlns:dc="http://purl.org/dc/elements/1.1/">
  <defs
     id="defs4273">
    <filter
       id="filter5001"
       height="1.2295014"
       width="1.261351"
       y="-0.1147507"
       x="-0.13067552"
       inkscape:collect="always">
      <feGaussianBlur
         id="feGaussianBlur5003"
         stdDeviation="2.7857194"
         inkscape:collect="always" />
    </filter>
    <linearGradient
       id="linearGradient5304"
       y2="495.66"
       gradientUnits="userSpaceOnUse"
       x2="642.57001"
       gradientTransform="translate(26.548,-33.903)"
       y1="495.66"
       x1="598.46997"
       inkscape:collect="always">
      <stop
         id="stop5105"
         style="stop-color:#cf9400"
         offset="0" />
      <stop
         id="stop5107"
         style="stop-color:#cf9400;stop-opacity:0"
         offset="1" />
    </linearGradient>
    <linearGradient
       id="linearGradient5306"
       y2="115.6"
       gradientUnits="userSpaceOnUse"
       x2="722.59998"
       y1="115.6"
       x1="670.96002"
       inkscape:collect="always">
      <stop
         id="stop5119"
         style="stop-color:#ffd565"
         offset="0" />
      <stop
         id="stop5121"
         style="stop-color:#ffd565;stop-opacity:0"
         offset="1" />
    </linearGradient>
    <linearGradient
       id="linearGradient5308"
       y2="120.49"
       gradientUnits="userSpaceOnUse"
       x2="669.89001"
       y1="120.49"
       x1="628.46002"
       inkscape:collect="always">
      <stop
         id="stop5129"
         style="stop-color:#ffd565"
         offset="0" />
      <stop
         id="stop5131"
         style="stop-color:#ffd565;stop-opacity:0"
         offset="1" />
    </linearGradient>
    <radialGradient
       id="radialGradient5310"
       gradientUnits="userSpaceOnUse"
       cy="736.03998"
       cx="675.40002"
       gradientTransform="matrix(1,0,0,0.72781,0,200.35)"
       r="8.8808002"
       inkscape:collect="always">
      <stop
         id="stop5163"
         style="stop-color:#808080"
         offset="0" />
      <stop
         id="stop5165"
         style="stop-color:#808080;stop-opacity:0"
         offset="1" />
    </radialGradient>
  </defs>
  <sodipodi:namedview
     id="base"
     bordercolor="#666666"
     inkscape:pageshadow="2"
     guidetolerance="10"
     pagecolor="#ffffff"
     gridtolerance="10000"
     inkscape:window-height="1369"
     inkscape:zoom="4.7298387"
     objecttolerance="10"
     showgrid="false"
     borderopacity="1.0"
     inkscape:current-layer="layer1"
     inkscape:cx="124"
     inkscape:cy="124"
     inkscape:window-y="-8"
     inkscape:window-x="-8"
     inkscape:window-width="2560"
     inkscape:pageopacity="0.0"
     inkscape:document-units="px"
     inkscape:showpageshadow="2"
     inkscape:pagecheckerboard="0"
     inkscape:deskcolor="#d1d1d1"
     inkscape:window-maximized="1" />
  <g
     id="layer1"
     inkscape:label="Layer 1"
     inkscape:groupmode="layer"
     transform="translate(-425.39,-722)">
    <rect
       id="rect1"
       style="opacity:0.49599;fill:#fffcd4;fill-opacity:1;fill-rule:evenodd;stroke-width:0.336892;stroke-opacity:0"
       height="189.12532"
       width="122.75733"
       y="906.88177"
       x="182.64838"
       transform="matrix(0.91052851,-0.41344629,0.32070209,0.94718011,0,0)" />
    <rect
       id="rect4281"
       style="opacity:0.49599;fill:#fffcd4;fill-opacity:1;fill-rule:evenodd;stroke-width:0.320895;stroke-opacity:0"
       height="176.77827"
       width="119.15519"
       y="899.13116"
       x="149.08977"
       transform="matrix(0.90723801,-0.42061764,0.36223907,0.93208522,0,0)" />
    <path
       id="path4283"
       style="fill:#96fdff;fill-rule:evenodd;stroke-width:0.320572;stroke-opacity:0;fill-opacity:1"
       d="M 475.48735,802.9363 C 578.40551,754.18365 577.6008,754.55673 577.6008,754.55673 l 0.46194,-1.25509" />
    <path
       id="path4796"
       style="fill:#96fdff;fill-rule:evenodd;stroke-width:0.320572;stroke-opacity:0;fill-opacity:1"
       d="m 480.15947,817.41052 c 102.91979,-48.75705 102.11226,-48.38266 102.11226,-48.38266 l 0.46475,-1.2564" />
    <path
       id="path4798"
       style="fill:#96fdff;fill-rule:evenodd;stroke-width:0.320572;stroke-opacity:0;fill-opacity:1"
       d="m 487.31116,829.69058 c 102.92099,-48.75397 102.11346,-48.37957 102.11346,-48.37957 l 0.46475,-1.25641" />
    <path
       id="path4800"
       style="fill:#96fdff;fill-rule:evenodd;stroke-width:0.320572;stroke-opacity:0;fill-opacity:1"
       d="m 491.98611,844.16349 c 102.91697,-48.75574 102.10943,-48.38135 102.10943,-48.38135 l 0.46476,-1.2564" />
    <path
       id="path4802"
       style="fill:#96fdff;fill-rule:evenodd;stroke-width:0.320572;stroke-opacity:0;fill-opacity:1"
       d="m 495.50792,858.13009 c 102.91979,-48.75705 102.11226,-48.38266 102.11226,-48.38266 l 0.46476,-1.2564" />
    <path
       id="path4804"
       style="fill:#cbfdff;fill-rule:evenodd;stroke-width:0.320572;stroke-opacity:0"
       d="m 500.18167,872.59991 c 102.91697,-48.75574 102.10944,-48.38135 102.10944,-48.38135 l 0.46595,-1.25332" />
    <path
       id="path4806"
       style="fill:#96fdff;fill-rule:evenodd;stroke-width:0.320572;stroke-opacity:0;fill-opacity:1"
       d="m 506.00291,887.57866 c 102.91697,-48.75574 102.10943,-48.38135 102.10943,-48.38135 l 0.46596,-1.25332" />
    <path
       id="path4808"
       style="fill:#96fdff;fill-rule:evenodd;stroke-width:0.320572;stroke-opacity:0;fill-opacity:1"
       d="M 510.67503,902.05288 C 613.592,853.29714 612.78729,853.67022 612.78729,853.67022 l 0.46193,-1.25509" />
    <path
       id="path4810"
       style="fill:#96fdff;fill-rule:evenodd;stroke-width:0.320572;stroke-opacity:0;fill-opacity:1"
       d="m 516.39582,911.87719 c 102.91979,-48.75705 102.11226,-48.38266 102.11226,-48.38266 l 0.46595,-1.25332" />
    <path
       id="path4812"
       style="fill:#96fdff;fill-rule:evenodd;stroke-width:0.320572;stroke-opacity:0;fill-opacity:1"
       d="M 521.07077,926.3501 C 623.98773,877.59435 623.1802,877.96875 623.1802,877.96875 l 0.46476,-1.25641" />
    <path
       id="path4814"
       style="fill:#004c4f;fill-rule:evenodd;stroke-width:0.320572;stroke-opacity:0"
       d="m 606.36679,822.04144 -35.29427,16.36329" />
    <path
       id="path4818"
       style="fill:#ffffa0;fill-opacity:0.69672;fill-rule:evenodd;stroke-width:0.320572;stroke-opacity:0"
       d="m 570.46353,830.40694 c 2.61399,-1.77969 4.35618,-2.22709 7.37892,-1.19724 2.482,0.84744 2.29287,1.68124 5.14747,0.35778 2.55813,-1.18601 4.30122,-4.2034 6.7289,-5.65649 1.45999,-0.87343 3.17101,-0.5093 4.76308,-1.12004 1.73805,-0.66385 2.71021,-2.02084 3.22316,-3.61623 0.9397,-2.93245 -4.35122,-3.01626 -5.54841,-2.96712 -2.98813,0.12242 -6.97277,2.29373 -9.3897,4.04029 -1.07383,0.7781 -2.08608,-0.46321 -3.44816,-0.36675 -3.94562,0.28245 -7.43277,5.22579 -10.05369,7.92224 -2.31139,2.37824 -4.55594,3.87382 -7.50654,5.24179 -3.40519,1.57873 -6.41971,3.41673 -9.57041,5.52168 -0.3217,0.2183 -0.65984,0.41146 -0.98753,0.61434 -1.20827,0.74945 -2.47117,1.32404 -3.66668,2.11488 -1.40821,0.92949 -2.02133,0.83523 -1.812,2.39421 0.14994,1.10607 5.76845,0.38652 6.52049,0.23804 2.68292,-0.53051 4.17005,-2.72314 5.96787,-4.57938 1.30562,-1.3478 2.88016,-1.89218 3.93563,-3.48068 1.12467,-1.69338 2.25804,-2.57553 3.96,-3.54658 1.37795,-0.78443 2.87786,-1.41796 4.3576,-1.91474 z" />
    <path
       id="path4820"
       style="fill:#ffffa0;fill-opacity:0.65164;fill-rule:evenodd;stroke-width:0.320572;stroke-opacity:0"
       d="m 542.05693,829.02939 c 1.42355,-0.81286 4.55288,-2.27825 7.61437,-2.2891 2.46619,-0.008 4.58786,-0.98785 6.81846,-2.02201 2.33507,-1.08259 3.87036,-2.4568 4.5081,-5.3002 0.58055,-2.5876 -2.43356,-1.76888 -3.80778,-1.65222 -2.66021,0.2288 -5.30577,1.04407 -7.90441,1.54278 -4.12728,0.7925 -7.7691,1.29078 -11.76875,3.7493 -2.85153,1.75151 -4.69113,4.8464 -6.5813,7.5025 -1.58835,2.23228 -5.73772,3.89398 -7.93023,5.48917 -1.73511,1.26304 -3.18025,2.40619 -5.13696,3.31337 l -4.12238,1.91123 c -1.53883,0.71344 -1.4558,1.33008 -0.53005,2.16018 1.51936,1.3629 6.31192,-0.92457 7.86489,-1.52445 1.9659,-0.75494 3.22803,-2.2318 4.982,-3.34343 1.84397,-1.17156 4.06753,-1.38354 5.53797,-3.13896 1.42314,-1.69709 0.34918,-2.02537 2.90731,-3.21138 1.98213,-0.91897 1.32981,-0.59106 2.46817,-2.28351 0.7102,-1.05355 2.35211,-1.50177 3.42505,-1.99921 0.98542,-0.45686 1.84764,-0.80201 2.80699,-1.04298" />
    <path
       id="path4822"
       style="fill:#ffffa0;fill-rule:evenodd;stroke-width:0.320572;stroke-opacity:0;fill-opacity:1"
       d="m 554.00709,874.48367 c 3.85479,-0.97918 8.81918,-5.62834 12.32609,-7.78562 3.85275,-2.36493 8.23008,-4.02312 12.30162,-5.91079 3.11155,-1.44259 7.27893,-1.92612 10.62476,-2.44003 2.63177,-0.40488 5.04636,-1.79732 7.52324,-2.76368 2.36154,-0.92017 4.27175,-2.53007 6.50395,-3.68872 1.80294,-0.93416 3.7252,-2.15293 5.17328,-3.58861 0.96,-0.95099 -0.87729,-1.63145 -1.31216,-1.67005 -2.21379,-0.20018 -4.05273,-0.99635 -6.30966,-0.80166 -2.37014,0.20351 -5.09494,1.99818 -7.24647,2.99568 -2.54966,1.18209 -4.95242,2.27058 -7.24074,3.97936 -2.74049,2.04579 -6.05517,3.0257 -8.94349,4.81975 -2.58765,1.60733 -5.00667,3.63147 -7.65391,5.10265 -2.49956,1.38816 -4.96465,3.208 -7.25579,4.91808 -1.80869,1.3481 -3.81685,2.60306 -5.45275,4.0785 -0.72747,0.65757 -1.13692,1.11309 -1.67709,1.76388" />
    <path
       id="path4824"
       style="fill:#ffffa0;fill-opacity:0.45082003;fill-rule:evenodd;stroke-width:0.320572;stroke-opacity:0"
       d="m 548.88867,778.89641 c -0.54744,0.65781 5.23367,-1.80408 9.37016,-3.72186 3.43907,-1.59444 6.92369,-3.07168 10.15235,-5.12179 1.61271,-1.02066 3.26847,-2.9166 4.60686,-4.30871 0.76578,-0.79906 1.01047,-1.49849 1.41703,-2.31299 0.81193,-1.6321 -5.07025,0.31251 -5.54513,0.44532 -3.65644,1.04372 -8.5912,2.95672 -11.59558,5.5325 -2.50438,2.14743 -5.1736,3.69067 -8.0321,5.22704 -3.10218,1.6639 -6.1208,3.52564 -9.16947,5.33579 -3.16409,1.88187 -6.57442,3.43022 -9.6423,5.45674 -1.54665,1.01916 -2.35904,1.52682 -3.46167,3.00253 -1.46382,1.95253 -1.34602,2.27279 1.09842,1.24868 3.81002,-1.59171 7.41324,-3.50975 10.98014,-5.65844 0.37004,-0.22252 0.73889,-0.44812 1.11176,-0.67194 2.40996,-1.4558 6.12213,-4.19959 8.70953,-4.45287 z" />
    <path
       id="path4826"
       style="fill:#004e77;fill-rule:evenodd;stroke-width:0.320572;stroke-opacity:0"
       d="m 568.02505,790.58088 c 21.27396,-10.17614 21.61703,-10.02219 21.61703,-10.02219 l 0.16095,-0.0746 0.12336,-0.16274 -0.67772,-0.0461 0.16416,0.1823 -0.14417,0.11779 0.14423,0.2425 0.0168,0.0432 0.0395,-0.0183 -0.0596,-0.64206 0.76132,0.99005 -0.37819,0.12439 -1.40674,-1.3132 0.83843,1.05985 -0.49529,-0.54561 z" />
    <path
       id="path4828"
       style="fill:#00273c;fill-rule:evenodd;stroke-width:0.320572;stroke-opacity:0"
       d="m 563.00685,777.78847 c 18.86635,-8.95436 19.19145,-8.84667 19.19145,-8.84667 l -0.0699,0.1889 -0.51953,0.24087 -0.0227,0.0615 z" />
    <path
       id="path4830"
       style="fill:#00273c;fill-rule:evenodd;stroke-width:0.320572;stroke-opacity:0"
       d="M 562.83993,777.96776 Z" />
    <path
       id="path4834"
       style="fill:#00273c;fill-rule:evenodd;stroke-width:0.320572;stroke-opacity:0"
       d="m 510.90076,785.32763 44.98717,-20.75524 -0.0819,0.038 -0.6229,0.70371 -0.27953,0.1296 z" />
    <path
       id="path4836"
       style="fill:#00273c;fill-opacity:0.43033;fill-rule:evenodd;stroke-width:0.320572;stroke-opacity:0"
       d="m 562.30233,906.16046 c 54.09279,-25.64652 54.49098,-25.47081 54.49098,-25.47081 l -0.0731,-0.068 0.36336,-0.27401 -0.0383,0.3817 -0.32189,0.14923 z" />
    <path
       id="path4838"
       style="fill:#00273c;fill-opacity:0.43033;fill-rule:evenodd;stroke-width:0.320572;stroke-opacity:0"
       d="m 556.61261,892.1289 54.54281,-26.06625 -0.18249,0.1392 0.17772,-0.0314 0.20368,0.16398 -0.33106,-0.003 z" />
    <path
       id="path4840"
       style="fill:#00273c;fill-opacity:0.43033;fill-rule:evenodd;stroke-width:0.320572;stroke-opacity:0"
       d="m 519.34825,862.96042 54.54401,-26.06317 -0.18087,0.13481 0.1749,-0.0301 0.20651,0.16268 -0.32987,7e-5 z" />
    <ellipse
       id="path4842"
       style="opacity:0.49599;fill:#000000;fill-opacity:0.90574;fill-rule:evenodd;stroke-width:0.320895;stroke-opacity:0"
       cx="260.59088"
       cy="907.99243"
       rx="2.8679399"
       ry="3.6475568"
       transform="matrix(0.90723801,-0.42061764,0.36223907,0.93208522,0,0)" />
    <ellipse
       id="path4844"
       style="opacity:0.49599;fill:#000000;fill-opacity:0.90574;fill-rule:evenodd;stroke-width:0.320895;stroke-opacity:0"
       transform="matrix(0.90723801,-0.42061764,0.36223907,0.93208522,0,0)"
       cx="251.15269"
       cy="908.14539"
       rx="2.8679399"
       ry="3.6475568" />
    <ellipse
       id="path4846"
       style="opacity:0.49599;fill:#000000;fill-opacity:0.90574;fill-rule:evenodd;stroke-width:0.320895;stroke-opacity:0"
       transform="matrix(0.90723801,-0.42061764,0.36223907,0.93208522,0,0)"
       cx="241.43442"
       cy="908.03357"
       rx="2.8679399"
       ry="3.6475568" />
    <ellipse
       id="path4848"
       style="opacity:0.49599;fill:#000000;fill-opacity:0.90574;fill-rule:evenodd;stroke-width:0.320895;stroke-opacity:0"
       transform="matrix(0.90723801,-0.42061764,0.36223907,0.93208522,0,0)"
       cx="231.99625"
       cy="908.18652"
       rx="2.8679399"
       ry="3.6475568" />
    <ellipse
       id="path4850"
       style="opacity:0.49599;fill:#000000;fill-opacity:0.90574;fill-rule:evenodd;stroke-width:0.320895;stroke-opacity:0"
       transform="matrix(0.90723801,-0.42061764,0.36223907,0.93208522,0,0)"
       cx="222.93277"
       cy="907.90125"
       rx="2.8679399"
       ry="3.6475568" />
    <ellipse
       id="path4852"
       style="opacity:0.49599;fill:#000000;fill-opacity:0.90574;fill-rule:evenodd;stroke-width:0.320895;stroke-opacity:0"
       transform="matrix(0.90723801,-0.42061764,0.36223907,0.93208522,0,0)"
       cx="213.49648"
       cy="908.0542"
       rx="2.8679399"
       ry="3.6475568" />
    <ellipse
       id="path4854"
       style="opacity:0.49599;fill:#000000;fill-opacity:0.90574;fill-rule:evenodd;stroke-width:0.320895;stroke-opacity:0"
       transform="matrix(0.90723801,-0.42061764,0.36223907,0.93208522,0,0)"
       cx="203.77695"
       cy="907.94238"
       rx="2.8679399"
       ry="3.6475568" />
    <ellipse
       id="path4856"
       style="opacity:0.49599;fill:#000000;fill-opacity:0.90574;fill-rule:evenodd;stroke-width:0.320895;stroke-opacity:0"
       transform="matrix(0.90723801,-0.42061764,0.36223907,0.93208522,0,0)"
       cx="194.33752"
       cy="908.0954"
       rx="2.8679399"
       ry="3.6475568" />
    <ellipse
       id="path4858"
       style="opacity:0.49599;fill:#000000;fill-opacity:0.90574;fill-rule:evenodd;stroke-width:0.320895;stroke-opacity:0"
       transform="matrix(0.90723801,-0.42061764,0.36223907,0.93208522,0,0)"
       cx="184.83586"
       cy="908.00714"
       rx="2.8679399"
       ry="3.6475568" />
    <ellipse
       id="path4860"
       style="opacity:0.49599;fill:#000000;fill-opacity:0.90574;fill-rule:evenodd;stroke-width:0.320895;stroke-opacity:0"
       transform="matrix(0.90723801,-0.42061764,0.36223907,0.93208522,0,0)"
       cx="175.39644"
       cy="908.1601"
       rx="2.8679399"
       ry="3.6475568" />
    <ellipse
       id="path4862"
       style="opacity:0.49599;fill:#000000;fill-opacity:0.90574;fill-rule:evenodd;stroke-width:0.320895;stroke-opacity:0"
       transform="matrix(0.90723801,-0.42061764,0.36223907,0.93208522,0,0)"
       cx="165.68002"
       cy="908.04828"
       rx="2.8679399"
       ry="3.6475568" />
    <ellipse
       id="path4864"
       style="opacity:0.49599;fill:#000000;fill-opacity:0.90574;fill-rule:evenodd;stroke-width:0.320895;stroke-opacity:0"
       transform="matrix(0.90723801,-0.42061764,0.36223907,0.93208522,0,0)"
       cx="156.2406"
       cy="908.20123"
       rx="2.8679399"
       ry="3.6475568" />
    <path
       id="path4866"
       style="fill:#2d323b;fill-opacity:0.90574;fill-rule:evenodd;stroke:#000000;stroke-width:0.320572px"
       d="m 564.03452,739.00141 c 1.54408,-1.4802 0.50455,-4.53231 -0.31404,-6.63865 -0.79942,-2.057 -1.45174,-3.63261 -2.80668,-5.27554 -1.29315,-1.56968 -2.46898,-2.666 -4.33834,-3.26608 -1.23081,-0.39751 -2.76856,0.61024 -3.8641,1.11815 -0.33035,0.15317 -0.01,-0.7888 0.0653,-1.16949 0.19414,-1.01811 3.01842,-1.545 3.67592,-1.60234 2.12439,-0.1842 4.96775,2.54481 6.01783,4.30361 1.05247,1.76497 2.16047,3.42413 3.04071,5.26895 0.54254,1.13879 0.79192,2.26065 1.03882,3.40184 0.12898,0.60626 -0.35291,1.29554 -0.52534,1.69213 -0.11444,0.27144 -0.15275,0.41295 -0.22793,0.6225" />
    <path
       id="path4868"
       style="fill:#2d323b;fill-opacity:0.90574;fill-rule:evenodd;stroke:#000000;stroke-width:0.320572px"
       d="m 554.77847,742.04799 c -0.93199,2.53215 -0.0951,-5.58642 -1.07065,-8.09675 -1.19014,-3.06237 -3.261,-5.91295 -6.0921,-7.16994 -1.25207,-0.55508 -2.83998,-0.11369 -4.00998,0.25405 -0.47172,0.14954 -1.02499,0.23499 -1.44007,0.30733 -0.95629,0.16311 0.0284,-0.83574 0.11687,-1.03688 0.82813,-1.91622 4.57206,-2.22891 6.06967,-1.88231 2.82578,0.65165 4.11251,4.11691 5.34643,6.58027 0.95016,1.89612 1.46769,3.81083 2.11144,5.80169 0.33425,1.03155 -0.0746,2.20018 -0.17646,3.19005 -0.1213,1.16268 -0.56451,-0.0549 -0.7473,-0.58528" />
    <path
       id="path4870"
       style="fill:#2d323b;fill-opacity:0.90574;fill-rule:evenodd;stroke:#000000;stroke-width:0.320572px"
       d="m 547.59852,746.67249 c -0.0199,0.18029 -1.16229,-3.83959 -2.77311,-7.98442 -1.17575,-3.02536 -4.74082,-3.99303 -7.41083,-4.48396 -1.94103,-0.35576 -3.5175,0.41516 -5.34347,0.35546 -1.43089,-0.0463 1.88817,-1.89813 2.10078,-2.01126 3.19802,-1.65738 5.32814,-1.36381 8.43745,0.43753 2.86327,1.65701 5.09138,4.83504 6.33664,8.03927 0.69515,1.78869 0.97565,2.75053 0.59686,4.33103 -0.006,0.0281 -0.32304,-0.11956 -0.49522,-0.18532" />
    <path
       id="path4872"
       style="fill:#2d323b;fill-opacity:0.90574;fill-rule:evenodd;stroke:#000000;stroke-width:0.320572px"
       d="m 540.47801,750.59247 c -0.0702,0.29096 -1.5857,-4.32026 -3.07426,-8.15053 -1.39269,-3.58355 -4.83546,-5.39408 -8.19266,-6.24702 -1.58362,-0.405 -3.25131,0.30267 -4.74355,0.80161 -1.10839,0.37193 1.74872,-1.74249 2.81602,-2.23732 2.88001,-1.33524 5.15695,0.28787 7.35901,2.28419 2.62697,2.37801 4.63844,4.26978 5.96761,7.68989 0.52735,1.35693 0.83182,2.38045 0.51647,3.64402 -0.004,0.0163 -0.0254,0.0118 -0.0395,0.0183" />
    <path
       id="path4874"
       style="fill:#2d323b;fill-opacity:0.90574;fill-rule:evenodd;stroke:#000000;stroke-width:0.320572px"
       d="m 530.64903,754.84006 c -0.0445,0.17712 0.0265,-5.06774 -3.16682,-7.53984 -2.40106,-1.85674 -5.71069,-2.72446 -8.44191,-3.85306 -1.67052,-0.68864 -3.20833,-1.4388 -4.84214,-1.63854 -1.09753,-0.13173 0.91441,-1.30837 1.13318,-1.45712 3.51526,-2.37588 6.93259,-1.17957 9.69801,1.61469 1.89621,1.91245 3.3428,5.00878 4.6189,7.38344 0.58018,1.08131 1.08736,2.06908 1.5356,3.22248 0.006,0.0154 -0.0282,0.0131 -0.0395,0.0183" />
    <path
       id="path4876"
       style="fill:#2d323b;fill-opacity:0.90574;fill-rule:evenodd;stroke:#000000;stroke-width:0.320572px"
       d="m 552.41073,725.752 c 0.46263,1.19041 0.93605,2.40857 1.50689,3.38866 0.12137,0.20942 0.45486,0.3387 0.59992,0.44615 0.26761,0.19985 -0.47406,-2.41166 -0.5363,-2.59754 -0.39597,-1.13032 -0.31108,-1.60643 -0.13215,-2.5265 0.027,-0.13627 0.49103,-0.27133 0.58181,-0.32069" />
    <path
       id="path4878"
       style="fill:#2d323b;fill-opacity:0.90574;fill-rule:evenodd;stroke:#000000;stroke-width:0.320572px"
       d="m 544.46534,733.98884 c 0.11464,-0.58817 -2.8865,-4.23764 -3.29145,-4.94524 -0.33006,-0.5749 -0.52256,-1.3446 -0.76706,-1.97373 -0.28764,-0.74015 0.51498,-0.83565 1.01304,-1.03745 0.68399,-0.28071 1.85334,2.35089 2.0687,2.76787 0.60802,1.19579 1.15929,2.37422 1.68902,3.61722 0.0472,0.1128 0.28102,0.0371 0.34785,0.0462" />
    <path
       id="path4880"
       style="fill:#2d323b;fill-opacity:0.90574;fill-rule:evenodd;stroke:#000000;stroke-width:0.320572px"
       d="m 525.60504,737.60836 c 0.43376,1.0218 -0.0546,3.99247 0.59984,5.67631 0.26847,0.6908 0.55388,1.37375 0.84134,2.04484 0.26187,0.61379 0.40086,-0.66628 0.2007,-1.1813 -0.74788,-1.92439 -0.70982,-3.00116 -0.83254,-4.94605 -0.10134,-1.57265 -1.08597,-1.49103 0.34636,-2.02407" />
    <path
       id="path4882"
       style="fill:#2d323b;fill-opacity:0.90574;fill-rule:evenodd;stroke:#000000;stroke-width:0.320572px"
       d="m 521.45675,759.87706 c -0.10933,-1.7218 -1.50503,-4.4814 -1.98532,-6.32603 -0.47276,-1.80809 -1.66832,-3.16096 -2.60651,-4.64043 -0.99271,-1.55974 -3.05193,-2.9999 -4.44871,-4.15029 -1.00551,-0.82953 -2.59815,-0.54609 -3.66184,-0.42782 -1.162,0.1311 -1.75092,0.91368 -2.22541,1.81063 -0.55917,1.05632 0.35465,3.10759 0.58485,4.1801 0.18816,0.86999 0.3928,1.6195 0.72,2.46142 l 0.0851,0.21896 c 0.38233,0.98378 -0.55126,-2.07013 -0.60588,-3.1367 -0.0384,-0.84478 0.32043,-1.08758 0.71225,-1.57132 0.46137,-0.57059 0.67636,-0.79765 1.31694,-1.23294 1.00061,-0.67501 2.03302,-0.0763 3.06795,0.23729 1.06351,0.31856 2.74312,2.07667 3.35828,3.05077 0.64204,1.00896 1.09175,2.20899 1.69058,3.25254 0.46265,0.8046 0.731,1.78663 1.16173,2.62058 0.22855,0.4509 0.77611,0.89949 1.09962,1.25177 0.27696,0.30107 0.40866,0.81143 0.57285,1.23393 0.19896,0.51194 0.12357,0.0264 0.46329,0.0946" />
    <path
       id="path4884"
       style="fill:#2d323b;fill-opacity:0.90574;fill-rule:evenodd;stroke:#000000;stroke-width:0.320572px"
       d="m 514.54715,764.21972 c 0.63162,1.62524 -1.19335,-3.31929 -2.13248,-4.75829 -1.72555,-2.63943 -3.71542,-4.3556 -6.3655,-5.79843 -2.26489,-1.23198 -4.71567,-1.63894 -7.20716,-1.52476 -1.25118,0.056 -2.54371,0.95731 -3.4419,1.59575 -0.75085,0.53738 -0.12724,-0.0102 0.41594,-1.4849 0.72561,-1.97424 3.42114,-3.30402 5.18731,-3.18384 2.99392,0.20973 5.83099,2.25376 8.21869,4.00751 1.9734,1.45083 2.99083,2.45682 4.3681,4.55163 0.27295,0.41939 0.37806,1.05855 0.53653,1.50919 0.0132,0.0339 -0.003,0.0704 -0.005,0.10776" />
    <path
       id="path4886"
       style="fill:#2d323b;fill-opacity:0.90574;fill-rule:evenodd;stroke:#000000;stroke-width:0.320572px"
       d="m 506.76132,765.70752 c 0.0631,0.17093 -2.08066,-3.57031 -5.15992,-6.71769 -2.60512,-2.66476 -5.88259,-3.63838 -9.10262,-4.94436 -1.06798,-0.43296 -2.27483,0.12292 -3.40535,0.23214 -1.87949,0.17985 3.57497,-2.02504 5.43752,-1.69113 3.96343,0.70655 6.3365,3.89745 9.24701,6.53344 1.08074,0.98027 1.71104,3.78536 1.99912,5.02394 0.0111,0.0458 -0.0309,0.0835 -0.0443,0.12608" />
    <path
       id="path4888"
       style="fill:#2d323b;fill-opacity:0.90574;fill-rule:evenodd;stroke:#000000;stroke-width:0.320572px"
       d="m 497.64465,771.53931 c 0.44899,1.93557 -1.63314,-3.58491 -2.65333,-5.24109 -1.56236,-2.53676 -4.07512,-4.09785 -6.7819,-4.93206 -2.13139,-0.65694 -4.35723,-0.74235 -6.51462,-1.32901 -1.34812,-0.36495 -2.27199,-0.26419 -3.2382,-1.0355 -0.66651,-0.53174 3.14304,-2.35617 3.45696,-2.53447 3.81307,-2.17547 7.29769,1.04602 9.80136,3.94707 1.8913,2.19134 3.59792,4.19898 5.32683,6.5384 0.16964,0.23072 0.66636,1.59458 0.66996,1.60384" />
    <path
       id="path4890"
       style="fill:#2d323b;fill-opacity:0.90574;fill-rule:evenodd;stroke:#000000;stroke-width:0.320572px"
       d="m 487.69128,774.4979 c 0.16844,0.22764 -0.89487,-3.7088 -3.95216,-6.03653 -3.26542,-2.48601 -7.67871,-2.82385 -11.3645,-4.20506 -0.90153,-0.33907 -2.39169,-0.62362 -3.11358,-0.83487 -1.8341,-0.54364 3.37286,-1.92771 5.12346,-2.73932 3.27531,-1.51852 6.42525,3.08833 8.52678,5.16037 1.69157,1.66885 2.62969,4.18564 3.88228,6.22544 0.16991,0.27427 0.23851,0.6137 0.35716,0.91902" />
    <path
       id="path4892"
       style="fill:#2d323b;fill-opacity:0.90574;fill-rule:evenodd;stroke:#000000;stroke-width:0.320572px"
       d="m 477.3826,778.23997 c 0.49807,0.81001 -0.53374,-4.04001 -1.99905,-7.45887 -1.40615,-3.27522 -6.91429,-5.47849 -9.84998,-5.88993 -1.64699,-0.23367 -4.79813,0.36105 -1.89271,-0.98598 3.71578,-1.72272 6.63343,0.18568 9.19421,3.24223 2.11581,2.52037 3.7021,5.38451 4.91021,8.49314 0.0851,0.21896 -0.22001,0.41137 -0.32941,0.61859" />
    <path
       id="path4894"
       style="fill:#2d323b;fill-opacity:0.90574;fill-rule:evenodd;stroke:#000000;stroke-width:0.320572px"
       d="m 469.2988,781.98782 c 0.18097,0.46567 0.15269,-3.56847 -0.82485,-6.86406 -0.73925,-2.48525 -1.82369,-4.96696 -2.84769,-7.32747 -0.90288,-2.07454 -2.84811,-2.50115 -4.70729,-2.62916 -1.09248,-0.0758 -1.6136,-0.0963 -2.60622,0.22197 -0.60075,0.19481 -0.0409,3.28004 0.0433,3.76149 0.30953,1.77822 0.65011,3.55659 0.89181,5.3335 0.18288,1.35286 0.37915,2.543 0.78013,3.83114 0.23584,0.75689 0.58285,1.47316 0.89879,2.06917 0.27157,0.51102 0.78959,0.86047 1.13936,1.2297 0.17826,0.19032 0.51162,-0.23721 0.56047,-0.25985 1.02233,1.08377 -1.97877,-2.31094 -2.58006,-3.72095 -0.38356,-0.89949 -1.22142,-1.79583 -1.7257,-2.61752 -0.56366,-0.91791 -0.73999,-1.88437 -0.75369,-2.91167 -0.013,-1.00578 -0.0247,-1.8411 -0.006,-2.69042 0.0148,-0.66928 0.27818,-1.49383 0.41147,-2.1052 0.13979,-0.64351 0.92166,-0.92958 1.47506,-1.30625 0.8448,-0.57001 1.35548,-0.55928 2.27992,-0.33275 1.4259,0.35074 2.70581,3.42972 3.40683,4.63334 0.83242,1.43024 1.00165,3.18615 1.59013,4.70037 0.33079,0.85117 0.64734,1.4942 1.08738,2.18918 0.41479,0.65572 1.00038,0.91925 1.56768,1.23858 0.0213,0.012 0.41618,0.34207 0.48448,0.39776" />
    <path
       id="path4896"
       style="fill:#ececec;fill-rule:evenodd;stroke-width:0.320572;stroke-opacity:0"
       d="m 472.01178,762.71391 c 0.58523,0.12539 1.16764,0.25209 1.75287,0.37748 2.21572,0.47954 4.41411,1.60041 6.48403,2.58794 0.72389,0.34499 1.76806,0.15934 2.41059,0.1235 0.43708,-0.0243 -3.34137,-2.28702 -3.93688,-2.47316 -1.38176,-0.42579 -3.01415,-0.81909 -4.31209,-1.00349 -0.465,-0.0647 -0.20023,0.0164 -0.27356,0.0249" />
    <path
       id="path4898"
       style="fill:#e3e5ea;fill-opacity:0.90574;fill-rule:evenodd;stroke-width:0.320572;stroke-opacity:0"
       d="m 499.77755,750.77276 c -0.0737,-0.01 2.85511,1.05297 6.17877,1.43376 1.41885,0.1611 2.6915,1.46367 3.89891,2.1268 0.66502,0.36501 1.11499,0.59679 1.54486,0.93979 1.58292,1.26063 -3.16087,-2.55996 -4.91067,-3.5212 -1.55118,-0.85315 -3.24335,-1.57178 -4.81186,-2.16941 -0.70881,-0.27191 -1.56909,0.8585 -1.90001,1.19026 z" />
    <path
       id="path4900"
       style="fill:#e3e5ea;fill-opacity:0.90574;fill-rule:evenodd;stroke-width:0.320572;stroke-opacity:0"
       d="m 482.66234,759.12271 c -2.74157,-1.04374 4.05888,0.96074 5.8797,1.88178 1.06886,0.5381 2.20713,1.16049 3.31577,1.72382 0.6438,0.32754 -1.52695,-1.75972 -1.94878,-2.09918 -1.25428,-0.99807 -2.80256,-1.87805 -4.14339,-2.63582 -0.65655,-0.36894 -2.58036,0.82871 -3.1033,1.1294 z" />
    <path
       id="path4902"
       style="fill:#e3e5ea;fill-opacity:0.90574;fill-rule:evenodd;stroke-width:0.320572;stroke-opacity:0"
       d="m 508.80889,745.81038 c -1.36214,-0.76973 3.10795,0.45168 4.4535,1.2473 1.34674,0.7987 2.42656,2.32534 3.58276,3.2597 0.37442,0.3032 0.77023,0.59284 1.20179,0.78584 1.95712,0.86876 -3.07542,-3.21467 -4.88166,-4.41544 -1.76122,-1.17068 -2.37483,-1.61776 -4.35639,-0.8774 z" />
    <path
       id="path4904"
       style="fill:#e3e5ea;fill-opacity:0.90574;fill-rule:evenodd;stroke-width:0.320572;stroke-opacity:0"
       d="m 516.92563,742.979 c -0.21985,-0.14556 3.57099,0.1169 6.31696,1.42064 1.21776,0.57826 2.26352,1.66574 3.35381,2.43048 1.2249,0.86247 0.16323,-0.66894 -0.19748,-1.35701 -1.05013,-1.999 -3.72513,-3.58314 -5.42245,-4.83805 -0.87318,-0.64338 -2.53452,0.21784 -3.38536,0.53224 -0.81456,0.30486 -0.72493,0.99851 -0.66548,1.8117 z" />
    <path
       id="path4906"
       style="fill:#e3e5ea;fill-opacity:0.90574;fill-rule:evenodd;stroke-width:0.320572;stroke-opacity:0"
       d="m 538.13396,734.70042 c -1.89968,0.70239 4.21179,-0.51504 5.99531,0.48152 0.30517,0.16788 0.60589,0.34147 0.90824,0.51066 1.13057,0.63688 2.10267,1.32903 3.24589,1.91273 1.57351,0.79912 -2.88072,-2.12207 -4.22095,-3.32415 -1.62496,-1.46315 -2.95167,-1.72157 -4.85132,-1.79079 -0.72572,-0.0239 -0.57021,0.59921 -1.07717,2.21003 z" />
    <path
       id="path4908"
       style="fill:#e3e5ea;fill-opacity:0.90574;fill-rule:evenodd;stroke-width:0.320572;stroke-opacity:0"
       d="m 547.12906,727.57834 c -1.85173,-0.066 3.7124,0.86661 5.22675,2.028 0.32144,0.24405 0.70772,0.36341 1.06158,0.54512 1.84975,0.94402 -2.88658,-3.32042 -4.75421,-4.21612 -0.88956,-0.42832 -1.57081,-0.1234 -1.90777,-0.0472" />
    <path
       id="path4969"
       style="fill:none;stroke:#000000;stroke-width:0.320573px"
       d="m 462.72508,783.38786 c 60.28362,159.24981 60.17626,158.43903 60.17626,158.43903 v 0.23118 c 0,0 49.91886,-14.14162 55.41871,-15.41474 5.49985,-1.27646 -54.36046,15.87708 -54.36046,15.87708 v -0.92804 l 0.52759,1.97333 -0.10429,-0.92803 49.07227,-13.33085 1.58584,1.50764 0.10429,-0.23117 -4.68392,-1.41718" />
    <path
       id="path4971"
       style="fill:none;stroke:#000000;stroke-width:0.320573px"
       d="M 628.12788,897.67329 C 522.60932,943.23737 522.60932,943.90743 522.60932,943.90743" />
    <path
       id="path4973"
       style="fill:none;stroke:#000000;stroke-width:0.320573px"
       d="m 635.48964,899.01341 c -114.10728,52.26468 -107.97248,50.2545 -107.97248,50.2545" />
    <path
       id="path4975"
       style="fill:none;stroke:#000000;stroke-width:0.320573px"
       d="m 525.06324,957.30863 c 110.4264,-52.26468 109.19944,-52.93474 109.19944,-52.93474" />
    <path
       id="path4977"
       style="fill:none;stroke:#000000;stroke-width:0.320573px"
       d="m 458.19392,782.42297 c 64.4154,176.89584 65.02888,178.23596 65.02888,178.23596" />
    <path
       id="path4979"
       style="fill:none;stroke:#000000;stroke-width:0.320573px"
       d="m 528.13064,955.29845 c 0,0 -2.45392,0.67006 -65.64236,-169.52518 58.89408,178.90602 60.12104,182.92638 60.12104,182.92638" />
    <path
       id="path4981"
       style="fill:none;stroke:#000000;stroke-width:0.320573px"
       d="M 637.33008,907.05413 522.60932,968.02959" />
    <path
       id="path4983"
       style="fill:#ffea75;fill-opacity:0.4549;fill-rule:evenodd;stroke-width:0.320573;stroke-opacity:0"
       d="m 496.45974,880.90504 c 0.20858,0.57625 0.42023,1.15585 0.63188,1.7321 1.59198,4.3688 3.23611,9.28704 4.05203,13.9071 0.58895,3.32685 1.6472,6.26841 2.79134,9.40429 1.38646,3.80259 2.48766,7.69564 3.8956,11.48483 1.2699,3.41396 2.9263,6.54984 4.15939,9.98054 0.9785,2.7238 2.35576,5.21642 3.42322,7.78945 1.02758,2.47587 2.13798,4.82108 3.10728,7.33046 0.92022,2.38206 1.89565,4.77753 2.99991,7.09593 0.85888,1.80246 1.4018,3.8696 2.10731,5.77257 0.47238,1.27311 0.94782,2.49597 1.47542,3.74899 0.62575,1.49088 0.68096,-0.18762 1.05211,-0.28813 0.70244,-0.19432 -1.4202,-9.21333 -1.57971,-9.86663 -0.84046,-3.42401 -1.36499,-6.89492 -2.47539,-10.21507 -0.82206,-2.45577 -2.17785,-4.78423 -3.10727,-7.21319 -0.88342,-2.31171 -1.73922,-4.62007 -2.68398,-6.86477 -1.04292,-2.47587 -2.59502,-4.67367 -3.68701,-7.15624 -1.30365,-2.96837 -2.10117,-6.07409 -3.21157,-9.11617 -1.00611,-2.76064 -2.19013,-5.5749 -3.31586,-8.25178 -0.8282,-1.96663 -1.34966,-4.01031 -1.89565,-6.0607 -0.47852,-1.79911 -1.18709,-3.67528 -1.79137,-5.36383 -0.46931,-1.32002 -1.2607,-2.47922 -1.9478,-3.63507 -0.57667,-0.97494 -1.02144,-1.75221 -1.52756,-2.59984 -0.56133,-0.94478 -1.28524,-1.04194 -2.47232,-1.61484 z" />
    <path
       id="path4985"
       style="fill:#ffea75;fill-opacity:0.4549;fill-rule:evenodd;stroke-width:0.320573;stroke-opacity:0"
       d="m 601.39549,917.08493 c -1.27297,0.88783 -4.03056,1.17595 -6.0029,1.96327 -2.62876,1.04865 -5.35875,1.95658 -8.00285,3.11578 -4.0459,1.77231 -7.90469,3.44411 -11.74201,5.82953 -4.44466,2.76064 -9.70832,4.71387 -14.47812,6.69054 -4.65325,1.92978 -9.84636,3.12919 -13.95361,6.23491 -2.88335,2.1777 -6.19001,3.75904 -9.31876,5.42414 -2.26987,1.20276 -4.25448,2.32176 -6.68693,3.05547 -1.69934,0.51595 -3.45696,1.03189 -5.05508,1.6182 -0.85887,0.31158 -1.14414,0.81412 -1.63185,1.26976 -0.74231,0.69016 2.3987,1.03859 2.57968,1.03859 1.72388,0 3.70542,-1.65504 5.15937,-2.53952 3.21463,-1.95993 6.72067,-3.54462 10.058,-5.25327 3.84959,-1.96663 7.91083,-3.66188 12.05795,-4.73063 3.60113,-0.92803 7.03048,-2.45912 10.68682,-3.22969 3.14409,-0.66336 5.96303,-2.38206 9.05804,-3.05882 2.57354,-0.5662 5.62867,-2.76065 8.05499,-3.9232 2.04902,-0.98499 4.01829,-2.58308 5.79125,-4.04046 1.42634,-1.17261 2.54594,-2.32511 4.15939,-3.29 1.31899,-0.78732 2.60116,-1.28651 3.95081,-1.90297 0.92943,-0.42549 1.85271,-0.41879 2.84042,-0.63656 1.08892,-0.23787 1.63492,-0.53939 2.52753,-1.09554 1.50303,-0.92804 1.94474,-2.08724 3.68702,-2.47923" />
    <path
       id="path4987"
       style="fill:#ffea75;fill-opacity:0.4549;fill-rule:evenodd;stroke-width:0.320573;stroke-opacity:0"
       d="m 572.80425,923.14562 c 1.76069,-1.0922 -3.82504,1.645 -5.84339,1.78906 -2.27908,0.16082 -4.61644,1.94318 -6.89859,2.47922 -1.96313,0.46235 -4.00602,1.65505 -5.84339,2.53953 -1.365,0.66001 -3.05207,1.1123 -4.37105,1.61485 -0.96623,0.36853 -1.46315,1.00509 -2.57968,1.44398 -1.26377,0.49919 -2.5214,1.44062 -3.73916,2.07718 -1.48156,0.77392 -3.09501,1.13575 -4.68392,1.61485 -1.684,0.50924 -3.39561,1.27311 -4.95079,1.90632 -0.93862,0.37858 -1.76375,0.85097 -2.52753,1.26976 -1.27604,0.69686 -2.23614,0.65331 -3.42015,1.61484 -1.25764,1.01515 -0.89262,0.60976 -1.05519,1.95993 -0.0982,0.82417 3.70849,-0.5193 3.84345,-0.57625 2.41405,-0.97829 4.69926,-2.27821 7.05502,-3.34695 2.49073,-1.12905 5.41396,-1.39373 8.05806,-1.84602 0.4233,-0.0737 0.84047,-0.19096 1.26377,-0.28812 2.96311,-0.67676 5.92622,-1.48418 8.84332,-2.36531 2.3987,-0.72367 4.80968,-1.0386 7.21452,-1.6182 1.63492,-0.38863 3.26985,-0.83757 4.68699,-1.61484 0.68096,-0.37189 1.31284,-0.88783 1.9478,-1.26977 1.05211,-0.6265 2.09503,-1.29991 3.05513,-2.07718 0.61961,-0.50255 1.26377,-1.56124 1.84044,-2.30836 0.50305,-0.64661 0.52452,-1.61819 0.63188,-2.42227 0.0184,-0.12061 0,-0.27472 0,-0.40538" />
    <path
       id="path4989"
       style="fill:#ffea75;fill-opacity:0.4549;fill-rule:evenodd;stroke-width:0.320573;stroke-opacity:0"
       d="m 523.99578,944.32287 c 0.32208,-2.38877 4.45387,-0.98499 6.2667,-2.36531 2.12264,-1.62155 3.96615,-2.52948 6.42314,-3.34695 2.37417,-0.79402 5.12256,-0.61311 7.58261,-0.92469 1.55517,-0.19766 3.10114,-0.0972 4.63178,-0.46234 1.97847,-0.46904 3.94467,-0.82752 5.89861,-1.38367 0.95089,-0.27138 1.87418,-0.92133 2.68397,-1.38368 1.05212,-0.5997 1.78523,-1.03524 2.6349,-1.96327 0.66256,-0.72702 1.50609,-1.45738 2.05209,-2.02023 0.77912,-0.80072 -3.01526,-0.75047 -3.26372,-0.75047 -2.0889,0 -3.85265,2.1777 -5.53052,3.34695 -2.20546,1.53779 -4.14712,1.72205 -6.68693,2.13414 -1.96927,0.32163 -3.82505,1.29657 -5.73911,1.73211 -2.01221,0.45899 -3.99068,0.84762 -5.89554,1.44398 -1.50302,0.46904 -2.58582,1.32336 -3.7913,2.24805 -0.92022,0.70691 -1.51837,1.30996 -2.42325,2.13749 -0.44477,0.40538 -0.92329,0.76722 -1.42021,1.09555" />
    <path
       id="path4991"
       style="fill:#ffea75;fill-opacity:0.4549;fill-rule:evenodd;stroke-width:0.320573;stroke-opacity:0"
       d="m 525.735,960.13293 c -0.16564,0.15077 3.74836,-1.00509 7.37096,-2.42226 3.28519,-1.28652 6.80043,-2.02358 9.84636,-3.80929 2.43245,-1.43058 4.57042,-3.23974 7.10716,-4.4425 2.71465,-1.28987 5.2974,-2.95162 8.00285,-4.32859 2.41711,-1.22956 4.84649,-2.35526 7.26667,-3.57812 2.03369,-1.02854 3.69622,-2.29496 5.5796,-3.46086 0.92942,-0.57625 2.1073,-0.97829 3.00299,-1.38702 1.15027,-0.526 2.24533,-0.66336 3.5275,-0.86438 1.90486,-0.29818 3.73917,-1.02184 5.26673,-2.13414 0.8466,-0.61981 1.57051,-1.25972 2.26374,-2.02023 0.84047,-0.92134 2.13184,-1.71871 2.84348,-2.53953 0.4233,-0.4925 0.91102,-0.93138 1.31592,-1.32672 0.84353,-0.82752 -1.40181,1.96663 -2.26374,2.7707 -2.10731,1.95992 -5.76058,3.49101 -8.42615,4.09406 -3.61647,0.82083 -7.41698,2.28156 -10.89847,3.63508 -3.50298,1.36357 -7.06116,3.82604 -10.32181,5.88648 -3.13181,1.98338 -6.38326,3.70543 -9.58255,5.54139 -2.29749,1.32002 -4.60724,2.61994 -6.57958,4.26829 -1.72388,1.44062 -4.30663,2.20114 -6.1624,3.4039 -1.12881,0.73707 -2.59809,1.1592 -3.84346,1.50094 -0.95089,0.26132 -2.06742,0.0536 -3.05206,0.28812 -1.20855,0.28813 -0.60734,-0.0201 -2.26374,0.92468 z" />
    <path
       id="path4993"
       style="fill:#ffea75;fill-opacity:0.4549;fill-rule:evenodd;stroke-width:0.320573;stroke-opacity:0"
       d="m 632.58174,897.29471 c -1.46314,0.34843 -4.43546,1.32002 -6.10719,2.13414 -2.83734,1.38032 -5.52439,2.44237 -8.47829,3.52116 -3.322,1.21281 -6.90165,2.85446 -10.11015,4.38555 -3.51218,1.6718 -7.15625,2.97841 -10.63468,4.67366 -2.74839,1.33677 -5.61334,2.80086 -8.2145,4.38555 -2.25147,1.37027 -4.73913,2.13414 -6.95072,3.51781 -1.51837,0.95149 -3.24225,1.49759 -4.84343,2.30836 -1.57357,0.79737 -2.96617,1.47413 -4.31583,2.53953 -0.92636,0.73036 2.28215,0.0301 3.42015,-0.057 2.72385,-0.21442 5.71457,-1.645 8.32186,-2.59648 3.80971,-1.39373 6.71147,-4.23478 10.21444,-6.29186 2.9447,-1.72876 5.84646,-3.89975 8.84331,-5.30688 2.12264,-0.99839 4.34958,-1.80916 6.58264,-2.13414 1.98461,-0.29148 3.84039,-1.08215 5.8434,-1.38703 1.54597,-0.23452 3.30359,-0.99503 4.73913,-1.50093 1.22696,-0.43219 2.52754,-1.58469 3.73916,-2.24805 1.33739,-0.73372 2.64717,-1.45403 3.84346,-2.19445 0.74537,-0.46234 1.34658,-1.24631 1.99994,-1.84601 0.82206,-0.75047 0.99077,-1.16926 2.1073,-1.90297 z" />
    <path
       id="path4995"
       style="fill:#ffea75;fill-opacity:0.4549;fill-rule:evenodd;stroke-width:0.320573;stroke-opacity:0"
       d="m 635.00499,901.27486 c 0.15644,-0.14406 -4.26675,-0.51259 -7.37403,1.96328 -2.46005,1.95992 -4.7514,2.72714 -7.73905,3.57812 -3.66247,1.03859 -7.36176,2.62328 -10.53038,4.84453 -3.32813,2.33516 -6.79736,3.78249 -10.53039,5.19297 -2.48152,0.93808 -5.38635,1.77231 -7.53046,3.40725 -1.5245,1.16256 0.24845,0.90793 1.31898,1.0386 2.40177,0.29147 5.23605,-0.89118 7.37096,-1.96328 3.42015,-1.7187 6.88325,-3.3972 10.26659,-5.24992 2.95084,-1.61819 5.58573,-3.68198 8.79423,-4.55976 2.11651,-0.5796 4.0275,-1.49088 6.1072,-2.19109 1.13493,-0.38529 2.15638,-0.75382 3.21156,-1.15586 1.03985,-0.39533 2.03983,-0.6131 3.05207,-1.09555 0.9969,-0.47574 1.72388,-1.30996 2.68704,-1.7321 1.29751,-0.56955 1.34659,-2.02023 3.21157,-1.78906 0.59507,0.0737 1.46008,-0.84763 1.89565,-1.09555 0.92942,-0.5327 -2.13184,-0.30153 -2.47539,-0.28812 -0.66869,0.0268 -1.15948,0.73036 -1.73615,1.09554 z" />
    <path
       id="path4997"
       style="fill:#ffea75;fill-opacity:0.4549;fill-rule:evenodd;stroke-width:0.320573;stroke-opacity:0"
       d="m 635.74117,905.48619 c -3.57352,0.14071 -5.58267,0.76387 -8.68688,2.65679 -3.24838,1.97668 -7.42004,2.87791 -11.05798,3.34695 -4.2054,0.5394 -9.48747,4.24148 -13.21742,6.34547 -3.46923,1.95992 -7.02742,3.88299 -10.58253,5.6553 -2.25148,1.12235 -4.46307,3.31345 -6.47528,4.84789 -1.26991,0.96823 -2.96618,1.62489 -4.3189,2.47922 -1.20243,0.76387 0.15337,1.00174 0.68403,1.21281 1.60118,0.63655 4.49067,-2.04369 5.79431,-2.7104 3.25758,-1.66844 5.80966,-4.71052 9.15926,-6.40577 3.86493,-1.95322 7.78813,-3.14258 11.90151,-4.27163 3.10728,-0.85098 6.1256,-2.13079 9.26662,-2.88461 2.31589,-0.5528 4.57656,-1.53109 6.84337,-2.1911 1.42941,-0.41878 2.74532,-1.06204 4.10725,-1.55789 1.00917,-0.36853 1.72388,-1.41717 2.79133,-1.90632 0.89875,-0.40873 1.6748,-1.1324 2.47539,-1.72875 0.53986,-0.40539 0.93249,-0.75047 1.57971,-1.15585 0.90182,-0.56621 -0.82819,-1.87952 1.26377,-1.32672" />
    <path
       id="path4999"
       style="fill:#ffea75;fill-opacity:0.46097;fill-rule:evenodd;stroke-opacity:0;filter:url(#filter5001)"
       d="m 579.27,722.16 c 6.77,-3.89 3.26,15.46 6.86,22.39 1.17,2.24 3.27,4.83 4.29,6.37 3.28,4.92 -11.76,-1.38 -17.68,-1.38 -5.24,0 -10.25,1.31 -15.27,2.93 -5.07,1.64 -10.13,2.27 -14.94,4.48 -5.65,2.6 -1.31,0 0.35,0 4.92,0 11.36,-4.69 16.13,-6.03 3.25,-0.91 5.6,-2.45 8.24,-4.13 2.83,-1.81 2.62,-4.42 2.75,-7.58 0.15,-3.78 0,-7.59 0,-11.37 0,-3.93 -2.28,-7.24 -3.26,-11.02 -1.19,-4.54 -0.6,-9.47 -1.72,-13.95 -1.71,-6.87 -0.17,-0.46 2.23,3.61 3.74,6.36 12.08,16.47 12.53,21.88 0.19,2.22 0.49,0.79 1.37,2.24"
       transform="matrix(0.30674,0,0,0.33503,455.74,644.27)" />
    <path
       id="path5005"
       style="fill:#ffea75;fill-opacity:0.46097;fill-rule:evenodd;stroke-width:0.320573;stroke-opacity:0"
       d="m 472.4558,817.54082 c 0.11901,1.56459 1.93,5.69886 3.26463,8.36569 1.5064,3.01192 2.70943,6.46273 3.84376,9.69577 1.16316,3.31345 2.82477,6.45603 4.42288,9.52156 1.43217,2.74724 2.47601,6.00373 3.52813,8.94195 0.92328,2.57638 2.40177,4.79763 3.15942,7.38741 0.69323,2.37871 1.49996,4.89144 2.05209,7.21319 0.37422,1.56459 1.17788,3.06553 1.89565,4.4425 0.76992,1.47748 1.5153,2.86786 2.05516,4.4425 0.49999,1.46408 1.22696,2.87121 1.84044,4.27163 1.08586,2.46917 -1.27297,-1.04194 -1.63186,-1.55789 -2.09196,-3.01192 -3.7821,-6.48953 -4.94771,-10.04085 -1.00304,-3.04877 -2.99378,-5.92668 -4.3189,-8.82804 -1.27359,-2.79415 -2.27295,-5.77927 -3.57996,-8.53991 -1.49812,-3.16939 -2.19442,-6.58334 -3.47506,-9.80968 -1.11991,-2.8243 -2.34779,-5.67206 -3.00115,-8.65718 -0.54293,-2.47922 -1.95117,-4.75072 -2.89593,-6.98202 -0.87145,-2.05709 -1.68707,-4.16107 -2.52754,-6.23156 -0.9877,-2.43567 0.77146,-3.63507 -1.15825,-3.63507" />
    <path
       id="path5007"
       style="fill:#ffea75;fill-opacity:0.46097;fill-rule:evenodd;stroke:#000000;stroke-width:0.320573px"
       d="m 459.87179,783.43811 c -0.95396,-2.35191 1.31898,4.9685 2.36956,7.27015 1.84351,4.04046 4.16339,7.87321 5.84432,12.06108 1.17113,2.91476 2.81986,5.47439 3.89652,8.42266 0.90979,2.49262 1.20671,2.76064 0.0525,-0.11391 -3.00942,-7.49462 -6.39982,-14.81503 -9.42489,-22.2728 -0.71869,-1.77566 -1.77971,-3.73558 -2.73796,-5.36718 z" />
    <path
       id="path5009"
       style="opacity:0.39476;fill:#ffef95;fill-opacity:0.46097;fill-rule:evenodd;stroke-width:0.320573;stroke-opacity:0"
       d="m 585.2487,768.08704 c -0.0767,-0.18427 1.24843,3.51111 2.63182,8.36905 0.80673,2.8243 2.46926,5.55479 3.47537,8.3657 0.34048,0.95148 0.93249,2.19109 1.26377,2.94491 0.46011,1.04864 1.23923,2.2313 1.73615,3.46086 0.87727,2.16094 1.78216,4.24148 2.47539,6.51968 0.9877,3.24644 2.10117,6.40243 3.00298,9.69577 1.2239,4.47935 3.90174,8.14793 5.10722,12.63733 0.99998,3.73559 1.92326,7.58508 3.26372,11.19336 0.8374,2.2581 0.98156,4.62676 1.89565,6.8078 0.40796,0.97829 0.57667,2.17435 0.84047,3.11578 0.68096,2.42562 2.17478,4.84119 3.05513,7.2132 0.82206,2.21455 1.61345,4.15102 2.57968,6.1746 0.90488,1.88957 2.26374,3.69203 3.31893,5.5414 1.09506,1.91972 1.81897,5.01205 2.10423,7.21319 0.22699,1.72876 1.9478,4.03377 2.68705,5.65196 0.81899,1.79576 1.17788,3.97681 1.73615,5.88648 0.59507,2.04368 1.37112,3.8897 1.79136,6.00039 0.1595,0.81747 -4.23608,-4.25154 -4.84649,-4.78758 -2.71465,-2.37872 -3.38028,-7.33716 -4.94772,-10.6171 -2.15945,-4.51956 -3.44162,-9.54501 -4.95078,-14.36944 -2.17479,-6.95522 -4.46307,-13.61562 -7.37097,-20.25256 -2.17172,-4.95845 -5.01826,-9.88004 -6.42313,-15.17686 -1.07053,-4.04717 -2.65024,-7.833 -4.89557,-11.25031 -2.06743,-3.14593 -3.9048,-6.88487 -5.47838,-10.32898 -1.24843,-2.74054 -2.33122,-5.82617 -3.21157,-8.71413 -0.67482,-2.2246 -1.36806,-4.36544 -2.15638,-6.57999 -0.81593,-2.28155 -1.56131,-4.61001 -2.52754,-6.92172 -0.65029,-1.55453 -1.33125,-3.11577 -1.68707,-4.73397 -0.26993,-1.24296 0.44784,-1.33342 1.21163,-1.72875 1.13493,-0.59301 3.0858,-0.93474 4.3189,-1.33007 z" />
    <path
       id="path5035"
       style="fill:#a18900;fill-opacity:0.46097;fill-rule:evenodd;stroke-width:0.320573;stroke-opacity:0"
       d="m 631.74128,896.75196 c 0.31287,-0.16417 -3.80665,1.41718 -7.53047,3.86624 -2.59502,1.70531 -5.44157,2.87791 -7.89855,4.67367 -2.10117,1.53444 -4.48761,2.55963 -6.89552,3.28665 -2.42325,0.73371 -4.78514,2.32511 -7.05809,3.28999 -0.77912,0.33168 -1.33738,1.10225 -1.9478,1.73211 -0.0951,0.10051 3.78211,-0.0905 7.53047,-1.0386 3.06433,-0.77727 6.0121,-2.73384 9.00282,-3.75233 2.41098,-0.81748 4.83729,-2.31506 7.11023,-3.51782 2.27908,-1.20946 4.50908,-2.97506 6.79123,-4.27163 0.90488,-0.5126 2.00301,-1.27646 2.68397,-1.7321 0.58894,-0.39199 0.99384,-0.71027 1.42328,-1.15251 0.84966,-0.87778 -1.08893,-1.24296 -1.47542,-1.32672" />
    <path
       id="path5037"
       style="fill:#a18900;fill-opacity:0.46097;fill-rule:evenodd;stroke-width:0.320573;stroke-opacity:0"
       d="m 600.57036,911.11804 c 0.37422,-0.38528 -3.62874,2.46583 -7.26667,4.09742 -3.10728,1.39373 -6.15014,1.92642 -8.73902,4.27163 -1.86498,1.6852 -4.95079,2.11069 -7.00288,3.46086 -0.77298,0.5059 -2.01221,0.76387 -2.79133,1.15586 -1.46929,0.73706 -2.16865,1.77901 -0.15951,1.61484 3.33733,-0.27137 8.09487,-2.89131 10.68989,-5.13601 2.22693,-1.92977 4.6103,-2.94826 7.26667,-4.04046 1.51836,-0.62316 3.0398,-1.49088 4.47534,-2.13414 0.82513,-0.36853 1.30058,-0.70356 2.15945,-1.1525 0.7147,-0.37859 0.88648,-1.44398 1.36806,-2.1375 z" />
    <path
       id="path5039"
       style="fill:#a18900;fill-opacity:0.46097;fill-rule:evenodd;stroke-width:0.320573;stroke-opacity:0"
       d="m 636.42826,902.8093 c 0.43251,-0.22782 -4.17166,2.98847 -8.74209,5.24992 -2.5214,1.24966 -4.98145,2.87121 -7.53046,4.09742 -0.51226,0.24792 -0.84047,0.80742 -1.26377,1.21281 -0.50612,0.48579 4.27289,-1.60145 8.374,-3.57812 2.59195,-1.24967 4.91704,-2.78745 7.15931,-4.55976 2.503,-1.97333 2.30669,-0.85768 4.52748,-2.01688 0.5184,-0.27138 0.99998,-0.75047 1.42328,-1.0989 1.43554,-1.17931 -3.59806,0.5394 -5.26673,1.26976 -0.32514,0.14407 -0.16257,0.76722 -0.20858,0.98164" />
    <path
       id="path5041"
       style="fill:#a18900;fill-opacity:0.46097;fill-rule:evenodd;stroke-width:0.320573;stroke-opacity:0"
       d="m 630.10942,900.90633 c -2.86802,1.25636 -6.60718,3.42401 -9.63777,5.595 -2.74226,1.96663 -5.7023,3.51447 -8.26664,5.65531 -0.65643,0.54945 -2.35577,0.76387 -2.89563,1.0989 -2.20546,1.36692 5.27593,-0.18092 7.47832,-1.55789 4.78821,-3.00187 10.05801,-5.05896 14.74193,-8.13788 1.8251,-1.19941 3.52444,-2.45912 5.58266,-3.00187 1.28525,-0.33503 2.57969,-0.44224 3.84346,-0.86438 0.54293,-0.18091 0.96009,-1.43393 1.15641,-1.84601 0.0828,-0.17087 -8.02125,2.25475 -8.89853,2.77069 -2.11651,1.24967 -4.52748,1.55119 -6.31578,2.94157" />
    <path
       id="path5043"
       style="fill:#a18900;fill-opacity:0.46097;fill-rule:evenodd;stroke-width:0.320573;stroke-opacity:0"
       d="m 533.96483,948.85582 c -0.15643,0.12061 4.33731,-1.64164 8.42309,-3.22969 4.29742,-1.6718 8.39547,-3.9433 12.58554,-5.88647 2.32509,-1.0788 4.36491,-2.38207 6.73908,-3.34695 1.80669,-0.73372 3.48149,-1.90632 5.15936,-2.82766 1.7883,-0.97828 3.60726,-1.83931 5.37102,-2.99851 1.05212,-0.69352 2.0981,-1.35688 3.15942,-1.96328 2.81894,-1.60814 -0.26073,0.13066 -1.84351,0.75047 -5.07041,1.98338 -9.91997,5.50454 -14.74192,8.07757 -4.00909,2.13749 -7.90776,4.56311 -11.90151,6.75086 -2.28828,1.25636 -4.53055,2.22794 -6.63172,3.69538 -1.19935,0.83422 -2.46006,1.33342 -3.79131,1.6718 -1.96927,0.49919 -2.55207,-0.61311 -3.00298,0.92468 -0.1503,0.50924 -0.46625,-0.5126 0.0521,0.057" />
    <path
       id="path5045"
       style="fill:#a18900;fill-opacity:0.46097;fill-rule:evenodd;stroke-width:0.320573;stroke-opacity:0"
       d="m 602.30651,915.73476 c -0.89262,3.05212 -7.99672,3.81934 -10.84633,4.96179 -3.54898,1.42388 -6.18388,4.36209 -9.79114,5.31023 -1.71774,0.45229 -3.56125,1.55119 -4.89864,2.59648 -0.60734,0.47574 -1.38646,1.1123 -1.89565,1.44398 -2.32509,1.50428 5.22071,-1.58134 7.73905,-2.65679 3.47843,-1.48083 6.81269,-3.34025 10.21751,-4.96179 2.34042,-1.11565 4.35877,-3.05213 6.52743,-3.98016 2.96004,-1.26976 3.05206,-2.66014 5.21151,-1.55789 0.64722,0.32833 1.5613,-0.58965 2.00301,-0.81077 0.93249,-0.46234 -1.35886,-1.33007 -1.47542,-1.38367" />
    <path
       id="path5047"
       style="fill:#a18900;fill-opacity:0.46097;fill-rule:evenodd;stroke-width:0.320573;stroke-opacity:0"
       d="m 525.27489,961.09112 c 3.52138,-1.75221 7.05809,-1.37362 10.47824,-4.4425 2.78827,-2.50267 6.0029,-4.26158 9.26661,-5.88648 2.53061,-1.25971 4.89251,-2.56633 7.47833,-3.57812 1.86497,-0.73036 3.58579,-1.14245 5.37101,-2.07718 0.98157,-0.51595 2.02755,-1.0453 3.10728,-1.50094 1.5521,-0.6533 1.48462,-1.06874 1.05212,1.21281 -0.55827,2.93487 -6.22989,5.25997 -8.31879,6.40578 -3.49684,1.91637 -6.64092,3.48431 -9.79421,6.00038 -2.27601,1.81252 -4.57349,3.11913 -7.10717,4.32859 -2.26987,1.0788 -4.4968,2.05373 -6.63478,3.51782 -1.30058,0.89118 -2.79134,1.41382 -4.10725,2.13414 -0.85274,0.46904 -1.55517,0.85767 -2.42325,1.21281 -0.66562,0.27472 -0.5828,-0.11056 -1.21162,-0.23118 -1.30978,-0.24792 -2.13184,-4.94839 -2.26374,-6.05734 -0.22085,-1.88287 0.51532,-1.77901 2.1073,-2.30835 2.2024,-0.73372 4.32504,-1.81587 6.42314,-2.82766 1.138,-0.54945 2.17479,-1.16255 3.15942,-1.96327" />
    <path
       id="path5049"
       style="fill:#a18900;fill-opacity:0.46097;fill-rule:evenodd;stroke-width:0.320573;stroke-opacity:0"
       d="m 561.97633,942.51036 c 1.957,-0.94479 4.21768,-1.76226 6.57957,-3.17274 3.2085,-1.91972 6.71454,-3.10573 9.74207,-5.36718 2.50913,-1.87617 5.22071,-2.55628 8.05499,-3.23304 1.57664,-0.37523 3.11955,-1.74886 4.63484,-2.47922 3.6318,-1.75221 0.11043,-0.0771 -1.84351,0.92133 -4.50601,2.30501 -8.53964,5.82617 -12.79412,8.65718 -2.66864,1.77231 -5.48451,3.12918 -8.11021,4.78758 -1.38953,0.88112 -2.89256,1.34682 -4.31583,2.19444 -0.78525,0.46569 -1.61038,0.53605 -2.42325,0.75047 -0.36502,0.0938 -0.0399,-0.0435 0.0521,0.057" />
    <path
       id="path5051"
       style="fill:#a18900;fill-opacity:0.46097;fill-rule:evenodd;stroke-width:0.320573;stroke-opacity:0"
       d="m 625.72917,872.0904 c -0.0337,0.007 2.50914,6.37227 4.89557,10.73101 1.61346,2.94491 2.90483,6.13105 4.53055,9.05921 0.88035,1.59474 1.33739,3.25649 1.89566,4.90484 0.46624,1.38703 0.42023,-0.6131 0.42023,-1.32672 0,-3.78919 -2.63183,-9.70247 -4.68699,-12.57702 -1.72694,-2.41892 -2.92936,-5.21307 -4.21154,-7.90671 -0.94782,-1.99008 -0.46317,-4.28839 -2.84348,-2.88461 -0.76071,0.44894 0.60735,-2.10734 0.0522,-2.82765" />
    <path
       id="path5053"
       style="fill:#a18900;fill-opacity:0.46097;fill-rule:evenodd;stroke-width:0.320573;stroke-opacity:0"
       d="m 570.34727,729.99078 c -0.0736,-0.0938 1.67786,3.74898 3.94774,7.96031 1.42327,2.64003 2.74839,5.42748 3.68701,8.25179 0.73311,2.21455 1.70548,4.5028 2.73919,6.52303 0.85888,1.68185 1.7791,3.26654 2.26374,5.07571 0.45398,1.712 0.8006,3.22298 1.36806,4.90484 0.0767,0.22782 0.1411,0.46234 0.21166,0.69351 0.40796,1.34682 0.83126,2.72714 1.26376,4.04046 0.43864,1.33677 -1.18708,-2.78075 -1.52756,-3.46421 -1.84351,-3.69873 -3.26371,-7.56163 -4.79128,-11.42452 -1.00611,-2.54288 -2.25454,-5.12596 -3.73916,-7.32711 -1.10426,-1.6383 -1.76376,-3.75569 -2.68398,-5.5414 -0.62881,-1.2128 -0.94169,-2.25475 -1.26376,-3.51781 -0.24233,-0.94814 -0.34662,-1.79241 -0.47545,-2.71374 -0.12576,-0.88783 0.1595,-1.70196 0.21165,-2.07719" />
    <path
       id="path5055"
       style="fill:#a18900;fill-opacity:0.46097;fill-rule:evenodd;stroke-width:0.320573;stroke-opacity:0"
       d="m 592.72395,790.99304 c -0.0552,-0.38864 0.9693,3.61832 2.79133,7.44436 1.2331,2.58979 2.22694,5.18292 3.31586,7.78945 0.87114,2.08054 1.85271,4.07397 2.68705,6.17461 0.592,1.49423 1.23309,2.80085 1.94779,3.9232 1.06132,1.66175 1.53677,4.02371 2.31589,5.88647 0.73004,1.74216 1.37726,3.30675 2.26374,4.90484 0.0153,0.0235 -1.33125,-4.93834 -2.99991,-9.69577 -1.47542,-4.20462 -3.60113,-8.09097 -5.15937,-12.2889 -1.03985,-2.79415 -2.19933,-5.6017 -3.10728,-8.36905 -0.59814,-1.81586 -1.55824,-3.4441 -2.1073,-5.24992 -0.22392,-0.73706 -0.36196,-1.1927 -0.57667,-1.90297" />
    <path
       id="path5079"
       style="fill:#241e00;fill-opacity:0.46097;fill-rule:evenodd;stroke-width:0.320573;stroke-opacity:0"
       d="m 531.93728,955.95846 c 1.02452,-0.34843 2.04596,-0.69686 3.0674,-1.04194 3.38948,-1.15251 6.92313,-4.50616 10.36475,-6.14445 3.25758,-1.55119 6.28203,-3.50107 9.2022,-5.09916 2.68704,-1.47078 5.61334,-2.80085 8.24824,-4.05721 2.02755,-0.96489 4.19927,-1.89627 6.34645,-3.12918 1.92326,-1.1056 4.57042,-1.5981 6.55503,-2.43232 1.72695,-0.73037 3.36494,-1.70865 4.97226,-2.54958 1.99381,-1.04864 3.75143,-1.75556 5.81579,-2.7841 2.58888,-1.28986 5.06121,-2.24805 7.4047,-3.59152 2.28828,-1.31667 4.76674,-2.69699 6.97834,-4.17447 2.96924,-1.98003 1.2607,-0.66671 -0.73925,1.1592 -4.1778,3.81599 -8.74209,5.6084 -13.53643,7.99717 -4.32504,2.15424 -8.68688,4.17782 -12.7972,6.72405 -3.5183,2.17769 -6.8495,4.69377 -10.26045,7.06913 -2.67477,1.86612 -5.28513,3.71883 -7.9323,5.56485 -2.26987,1.58134 -5.07654,3.08898 -7.29734,4.63346 -2.24227,1.56459 -4.47841,2.96167 -6.66239,4.63682 -1.2239,0.93808 -2.93551,1.58134 -4.33424,2.31841 -1.46315,0.77057 -3.59499,0.75381 -5.18391,1.04194 -2.37416,0.43554 -2.22079,-0.83422 -2.22079,-3.01192 0,-1.27311 1.34045,-2.08724 2.00914,-3.12918 z" />
    <path
       id="path5081"
       style="fill:#241e00;fill-opacity:0.46097;fill-rule:evenodd;stroke-width:0.320573;stroke-opacity:0"
       d="m 524.7473,955.72729 c 0,-0.47574 12.74198,-5.59165 14.17139,-6.37562 2.83121,-1.55119 5.65015,-3.3168 8.14394,-5.21642 1.37727,-1.04864 3.049,-2.2715 4.12259,-3.12918 0.65949,-0.526 -8.374,0.97494 -16.07318,5.79602 -3.22077,2.01688 -6.25443,4.08402 -8.2513,6.14445 -0.80059,0.82752 -1.40794,1.85272 -2.11344,2.78075 z" />
    <path
       id="path5083"
       style="fill:#241e00;fill-opacity:0.46097;fill-rule:evenodd;stroke-width:0.320573;stroke-opacity:0"
       d="m 545.89702,941.23724 c -3.00298,3.09903 7.03048,-4.75742 10.36475,-7.41756 3.85572,-3.07223 8.12861,-5.93338 12.2696,-8.11108 4.08577,-2.15089 8.1102,-3.56472 12.47818,-4.51955 2.07663,-0.45564 4.13485,-1.20946 6.1348,-1.97333 4.92011,-1.87282 -9.69605,4.24148 -14.27875,6.95522 -5.53052,3.2766 -10.36168,6.81116 -15.33393,10.89518 -1.92019,1.57799 -4.19927,2.51607 -6.34645,3.36035 -0.7055,0.28142 -1.46929,0.72701 -2.11344,1.04529" />
    <path
       id="path5085"
       style="fill:#241e00;fill-opacity:0.46097;fill-rule:evenodd;stroke-width:0.320573;stroke-opacity:0"
       d="m 508.56676,925.59134 c -0.0951,0.0369 8.04886,11.91367 13.21743,19.70311 2.6441,3.98351 6.32498,6.11095 9.2022,9.73598 0.9877,1.24631 2.62876,4.03376 2.74839,4.28838 1.79443,3.76574 -4.63177,-6.81451 -6.97834,-10.19831 -4.22687,-6.0942 -8.89546,-12.16159 -13.53643,-17.8504 -2.35883,-2.88796 -4.76367,-5.79937 -7.4047,-8.69068 -0.70244,-0.77057 -1.41101,-2.96836 -1.7975,-3.70878 -0.98157,-1.88622 0.40796,-0.89788 0.73924,-1.6249 1.53063,-3.34695 3.45083,8.3456 6.87711,8.3456 0.73004,0 5.46918,6.27511 6.23909,7.06913 4.04591,4.18788 -3.45696,-4.73062 -4.12565,-5.79267 -0.80366,-1.27981 -1.62265,-2.54957 -2.43245,-3.82604 -1.93246,-3.03872 -3.78517,-6.29186 -6.45074,-8.57677 -0.1411,-0.12061 2.33122,10.58695 6.34645,12.17164 2.53367,0.99839 10.05494,17.33781 7.82494,10.31223 -2.52447,-7.95696 -8.02432,-15.08305 -10.36475,-23.06347 -1.66866,-5.68881 4.33731,10.97223 6.2391,16.57394 1.94779,5.73236 7.71144,18.63772 1.37726,4.75407 -2.9355,-6.43257 -4.22074,-18.05811 -7.72065,-9.62206 -1.32205,3.18614 4.68392,4.89144 6.34339,7.88326 1.25763,2.26145 12.28187,26.96656 5.07654,11.70594 -5.74217,-12.16828 2.05209,6.80781 3.17476,9.61872 3.25451,8.15128 -5.91395,-7.98712 -5.92315,-7.99717 -2.21773,-2.55628 2.6441,6.43593 4.22995,9.5048 0.38342,0.74042 -1.48156,-0.54275 -2.2208,-0.81077 -0.80979,-0.29818 1.34045,1.1592 2.00915,1.7388" />
    <path
       id="path5087"
       style="fill:#241e00;fill-opacity:0.46097;fill-rule:evenodd;stroke-width:0.320573;stroke-opacity:0"
       d="m 490.26972,862.65596 c 1.46315,1.26641 1.73002,9.09941 2.53674,11.36086 1.02451,2.86116 1.61959,5.62516 2.6441,8.69068 0.70857,2.11069 1.07359,4.29844 2.00915,6.25836 1.16868,2.43902 2.07049,4.4693 2.85575,6.83796 0.69016,2.07719 1.60425,4.23478 2.43244,5.91328 1.10427,2.23465 1.78216,4.21133 2.53981,6.48953 0.77912,2.35191 1.73615,4.52961 2.6441,6.6068 1.02145,2.34186 1.83124,4.72057 2.53674,6.95522 0.92329,2.91811 -0.0368,-4.33529 -0.31594,-5.33368 -1.19935,-4.26493 -1.80363,-8.74428 -2.53981,-13.09632 -0.64415,-3.82269 -1.83124,-7.57168 -2.6441,-11.12635 -0.59507,-2.60988 -1.49996,-5.16951 -2.2208,-7.53482 -0.61654,-2.03364 -1.63185,-3.33355 -2.74839,-5.21307 -0.68096,-1.14915 -1.15334,-2.22125 -1.79749,-3.3637 -0.71471,-1.26306 -1.15028,-2.72044 -1.69321,-4.17112 -0.75764,-2.03029 -1.57051,-3.80595 -2.32509,-5.79602 -0.97543,-2.56298 -1.1472,-2.7171 -3.914,-3.47761 z" />
    <path
       id="path5089"
       style="fill:#241e00;fill-opacity:0.46097;fill-rule:evenodd;stroke-width:0.320573;stroke-opacity:0"
       d="m 476.09803,827.07577 c -1.20396,-3.16603 3.15789,5.93003 4.86489,8.80794 1.4061,2.37201 2.39902,5.15276 3.27844,7.3003 0.78525,1.91972 2.22172,3.97681 3.17261,5.91328 1.05212,2.14084 1.63799,4.01701 2.43245,5.67876 0.83433,1.74886 1.61652,3.3369 2.2208,5.09916 0.26073,0.76386 -0.1411,1.62154 -0.21165,2.43566 -0.18098,2.08724 -2.4938,-3.23974 -3.38334,-5.1025 -0.71778,-1.49759 -1.43248,-2.37872 -2.22142,-3.70878 -0.85703,-1.44398 -1.44904,-2.94157 -2.11527,-4.4023 -0.67085,-1.47078 -1.48095,-2.62663 -2.2208,-4.17447 -0.74109,-1.54784 -1.32359,-3.73894 -1.79781,-5.44759 -0.47483,-1.70865 -0.98187,-3.24644 -1.48063,-4.75073 -0.47575,-1.43392 -1.17328,-2.62328 -1.48063,-4.17112 -0.2138,-1.0788 -0.53956,-0.526 -1.05764,-3.47761 z" />
    <path
       id="path5095"
       style="fill:#fffbe5;fill-opacity:0.87361;fill-rule:evenodd;stroke-width:0.320573;stroke-opacity:0"
       d="m 600.11025,914.76317 c 1.19628,0.17757 3.9232,-1.41048 5.76364,-2.238 3.11955,-1.40378 6.50903,-2.238 9.66845,-3.59822 2.34656,-1.01179 4.7514,-1.80916 7.03048,-3.00187 0.79752,-0.42214 1.42327,-0.85098 2.30055,-1.04864 1.34352,-0.30823 2.55821,-0.67341 3.84959,-1.16256 1.19015,-0.45229 2.26067,-0.94478 3.4907,-1.30327 1.2515,-0.36183 2.52447,-0.77391 3.69621,-1.38702 0.85274,-0.44894 1.22696,-0.65666 1.68094,-1.27646 0.3006,-0.41209 -0.35582,-1.50764 -0.46625,-1.95323 -0.3006,-1.22621 -1.01837,-2.67354 -1.68093,-3.71213 -0.88648,-1.39038 -1.47849,-2.98177 -2.40178,-4.38889 -0.73924,-1.1257 -1.29444,-2.44907 -1.93859,-3.59823 -0.57361,-1.01849 -1.02145,-1.92307 -1.68094,-2.8913 -0.19018,-0.27473 -0.35888,-0.73372 -0.46624,-1.0185 -0.2638,-0.69351 -0.48465,-0.5997 -1.19015,-0.53939 -0.52453,0.0469 -1.58585,3.4106 -1.8067,3.85284 -1.01224,2.01018 -0.86194,4.63012 -1.44781,6.82791 -0.73618,2.7506 -3.07354,4.4425 -4.34344,6.82791 -1.12267,2.11069 -2.31282,4.04047 -4.26369,5.23987 -1.63799,1.00509 -3.58272,1.20611 -5.40476,1.53109 -1.73921,0.30488 -3.39561,0.46234 -4.80661,1.6986 -1.02145,0.89453 -2.15332,2.11739 -2.53368,3.48431 -0.29447,1.06205 -0.38956,1.47749 -1.31898,2.01018 -0.84967,0.48915 -1.79443,0.59636 -2.63489,1.13241 -0.38343,0.24792 -0.0552,0.81747 0,1.04864 0.11042,0.46569 2.15638,0.74042 2.50606,0.87778 0.82206,0.32833 1.7883,0.28477 2.6625,0.17086 1.23923,-0.16416 2.97231,-1.40712 4.23915,-1.81251 1.47235,-0.47239 2.9263,-0.79402 4.34344,-1.33007 0.92942,-0.35513 1.8067,-0.82417 2.71465,-1.30327 1.02451,-0.54274 2.0981,-0.79067 3.10114,-1.39037 0.75151,-0.44894 1.30058,-0.94813 1.99074,-1.47078 0.87114,-0.66671 1.57358,-1.34347 2.30055,-2.2112 1.26377,-1.51098 2.64103,-2.65679 4.05817,-4.02371 1.29445,-1.24631 2.88029,-2.16764 4.2913,-3.25649 0.4233,-0.32833 0.95089,-0.52935 1.36806,-0.70691" />
    <g
       id="g5171"
       transform="matrix(0.12162548,-0.0563889,0.07158391,0.18419279,501.77554,759.05798)">
      <rect
         id="rect5097"
         style="fill:#f5cf00;fill-rule:evenodd;stroke-opacity:0"
         height="550.04999"
         width="50.682999"
         y="185.92999"
         x="645.94" />
      <rect
         id="rect5099"
         style="fill:#cf9400;fill-rule:evenodd;stroke-opacity:0"
         height="552.47998"
         width="43.098"
         y="183.85001"
         x="685.94" />
      <rect
         id="rect5101"
         style="fill:url(#linearGradient5304);fill-rule:evenodd;stroke-opacity:0"
         height="552.47998"
         width="43.098"
         y="185.52"
         x="625.52002" />
      <path
         id="path5111"
         style="fill:#ffedbd;fill-rule:evenodd;stroke-opacity:0"
         d="m 629.51,184.96 c 43.1,-172.63 40.34,-171.59 42.41,-171.25 2.07,0.349 2.76,4.155 2.76,4.155 0,0 3.1,4.843 2.07,0.692 -1.03,-4.152 0,3.805 -1.03,-1.384 -1.04,-5.189 -1.04,-1.384 -1.04,-1.384 l 51.37,167.09 h 1.04 c 0,0 4.14,2.08 2.41,0.69 -1.72,-1.38 -1.03,0.35 -1.03,0.35 l -98.96,1.04 z" />
      <path
         id="path5115"
         style="fill:url(#linearGradient5306);fill-rule:evenodd;stroke-opacity:0"
         d="m 682.93,49.583 c -0.96,0.199 -1.92,0.399 -2.88,0.598 -3,0.621 -5.11,3.069 -7.26,4.89 -2.34,1.973 -0.96,9.014 -0.6,11.376 1.44,9.507 5.93,17.214 9.45,25.946 2.57,6.384 4.71,12.967 6.96,19.457 2.18,6.29 5.06,12.7 6.46,19.16 0.92,4.24 1.72,8.22 1.89,12.58 0.15,3.54 0.98,7.01 1.1,10.57 0.11,3.46 0.69,6.52 1.19,9.88 0.48,3.22 0.95,6.46 1.79,9.48 0.47,1.7 0.89,1.87 1.69,3.1 0.31,0.47 4.11,0.69 4.78,0.8 2.42,0.39 4.46,1.45 6.76,2.19 1.47,0.47 2.71,1.37 4.28,2 1.13,0.45 1.82,0.35 2.98,0.5 1.23,0.15 0.12,-3.04 0,-3.6 -0.93,-4.27 -1.51,-8.63 -1.99,-12.97 -0.46,-4.12 -2.13,-8.06 -3.58,-11.77 -1.56,-4 -3.37,-7.95 -4.87,-11.98 -1.37,-3.67 -1.87,-7.5 -3.09,-11.18 -1.27,-3.84 -1.6,-7.98 -2.78,-11.87 -1.08,-3.57 -1.4,-7.51 -2.29,-11.08 -0.76,-3.04 -1.06,-5.95 -1.49,-8.98 -0.37,-2.576 -0.8,-5.117 -1.39,-7.684 -0.42,-1.821 -0.52,-3.692 -0.8,-5.488 -0.28,-1.864 -1.09,-3.71 -1.79,-5.489 -0.87,-2.245 -1.04,-4.673 -1.59,-6.985 -0.55,-2.304 -1.29,-4.518 -1.79,-6.786 -0.56,-2.548 -1.6,-4.686 -2.78,-6.786 -0.91,-1.612 -1.56,-3.298 -2.29,-4.99 -0.42,-0.958 -0.78,-1.57 -1.2,-2.395 -0.67,-1.355 -1.02,-1.606 -1.98,-2.694 -0.64,-0.721 -1.93,0.133 -2.89,0.2 z" />
      <path
         id="path5125"
         style="fill:url(#linearGradient5308);fill-rule:evenodd;stroke-opacity:0"
         d="m 664.83,56.069 v 2.595 c 0,3.294 -2.04,7.605 -2.88,10.777 -0.69,2.596 -1.39,4.839 -1.89,7.485 -0.42,2.182 -1.33,4.49 -2.09,6.486 -1.1,2.873 -1.77,5.638 -2.59,8.682 -0.83,3.096 -1.71,5.781 -2.48,8.886 -0.58,2.31 -1.21,4.37 -1.6,6.68 -0.43,2.61 -1.28,5.35 -1.79,7.98 -0.52,2.73 -1.17,5.3 -1.89,7.99 -0.91,3.42 -1.64,6.71 -2.88,10.08 -1.4,3.8 -2.61,7.78 -3.78,11.57 -0.89,2.88 -2.32,5.82 -3.38,8.59 -0.88,2.29 -2.53,4.29 -3.48,6.48 -1.22,2.82 -2.33,5.67 -3.38,8.58 -0.79,2.19 -1.11,4.58 -1.59,6.69 -0.3,1.28 -0.1,2.78 -0.1,4.09 0,1.13 0.12,2.23 0.19,3.19 0.12,1.42 3.26,1.38 4.18,1.6 2.3,0.55 4.86,0.4 7.26,0.4 h 1.1 c 2.51,0 4.57,-1.53 6.56,-2.99 4.51,-3.34 5.6,-11.5 7.66,-16.27 2.81,-6.51 4.68,-13.21 5.97,-20.16 1.22,-6.62 0.49,-13.93 0.49,-20.65 0,-5.63 -0.49,-11.23 -0.49,-16.87 0,-4.49 0.61,-8.841 0.89,-13.271 0.35,-5.55 1.15,-10.669 2.69,-15.867 1.06,-3.614 2.94,-6.611 3.68,-10.279 0.44,-2.251 -0.03,-4.647 -0.4,-6.786 -0.29,-1.662 -0.97,-3.177 -1.49,-4.49 -0.34,-0.855 -1.66,-0.799 -2.49,-1.198 z" />
      <path
         id="path5135"
         style="fill:#000000;fill-rule:evenodd;stroke:#000000;stroke-width:1px"
         d="m 673.98,11.163 c 0.63,4.02 1.89,8.646 3.38,12.773 1.45,3.996 3.23,8.323 3.58,12.574 0.21,2.544 1.12,4.744 1.39,7.285 0.16,1.435 0.66,2.977 1,4.191 0.5,1.79 0.43,3.238 0.3,4.989 -0.07,0.914 -3.69,0.499 -4.48,0.499 -2.52,0 -4.99,-0.039 -7.46,-0.199 -1.98,-0.129 -3.83,-0.162 -5.77,0 -1.04,0.087 -1.94,0.116 -2.98,0.199 -0.65,0.052 0.87,-3.023 1.29,-3.991 0.94,-2.145 1.59,-4.341 2.19,-6.487 0.6,-2.147 1.03,-4.253 1.49,-6.386 0.36,-1.637 0.81,-3.131 1.1,-4.79 0.29,-1.712 0.59,-3.415 0.79,-5.09 0.21,-1.767 0.45,-3.52 0.6,-5.289 0.13,-1.604 0.47,-3.202 0.8,-4.79 0.7,-3.375 3.05,-4.908 1.49,-8.2826 -0.19,-0.4006 0.49,-1.4152 0.59,-1.6964 0.28,-0.7826 1.16,6.154 1.4,6.985 0.21,0.783 0.26,1.415 0.39,2.096" />
      <path
         id="path5137"
         style="fill:#666666;fill-rule:evenodd;stroke:#000000;stroke-width:1px"
         d="m 674.87,29.724 c 1.16,4.14 1.42,9.094 2.39,13.572 0.81,3.732 2.23,7.39 3.18,11.077 0.56,2.127 -0.83,1.197 -1.79,1.995 -1.18,0.989 -7.87,-3.35 -9.15,-3.991 -1.41,-0.708 -0.49,-4.793 -0.29,-6.287 0.43,-3.351 1.48,-6.86 2.48,-10.179 0.6,-1.956 0.38,-4.767 0.7,-6.786 0.26,-1.662 0.18,-3.422 0.4,-5.089 0.2,-1.546 0.39,-2.898 0.39,-4.491 0,-1.166 0.16,-2.195 0.3,-3.293 0.33,-2.528 0.74,5.047 1,7.584 0.2,1.99 0.33,3.861 0.39,5.888 z" />
      <path
         id="path5139"
         style="fill:#ffe6a0;fill-rule:evenodd;stroke-opacity:0"
         d="m 685.32,173.52 c 0.09,-0.21 -0.13,-0.68 0.3,-0.69 1.79,-0.08 3.47,0.43 5.27,0.49 3.85,0.14 7.61,0.66 11.43,1 3.76,0.34 13.02,-0.37 16.12,1.7 0.27,0.18 5.49,3.41 4.07,4.69 -1.07,0.96 -2.22,1.45 -3.48,2.29 -0.95,0.64 -2.33,1.55 -3.08,2.5 -2.1,2.67 -3.93,5.66 -6.17,8.28 -2.83,3.32 -5.09,5.9 -7.36,9.68 -1.66,2.78 -1.29,4.93 -3.48,2 -1.86,-2.5 -2.39,-5.48 -3.97,-8.28 -3.3,-5.84 -7.41,-12.4 -11.34,-17.07 -0.1,0 -7.34,14.85 -8.76,16.57 -2.17,2.64 -5.36,3.93 -8.25,4.69 -1.47,0.38 -3.7,0 -5.27,0 -2.02,0 -2.11,-1.74 -2.89,-3.6 -1.73,-4.18 -3.5,-7.85 -5.37,-11.97 -0.44,-0.99 -0.83,-1.87 -1.19,-2.9 -0.28,-0.81 -0.3,-1.78 -0.5,-2.69 -0.55,-2.57 -1.04,-0.7 -2.09,-1.4 -0.93,-0.62 -2.68,6.91 -2.78,7.29 -0.96,3.57 -2.31,6.99 -3.58,10.38 -1.1,2.93 -2.26,2.94 -5.37,3.29 -2.43,0.27 -3.73,-0.82 -5.27,-2.2 -2.51,-2.23 -2.18,-6.8 -2.49,-9.78 -0.3,-2.94 0.28,-5.99 0.6,-8.88 0.2,-1.8 0.29,-3.59 0.1,-5.19 -0.28,-2.3 3.21,-1.62 4.97,-1.69 4.41,-0.17 8.72,-0.6 13.13,-0.6 3.85,0 7.72,0.11 11.54,0.4 3.35,0.25 7.31,0.79 10.54,1.69 2.96,0.84 6.14,1.4 9.15,1.9 1.68,0.28 3.89,-1.17 5.47,-1.9" />
      <path
         id="path5141"
         style="fill:#ffe6a0;fill-rule:evenodd;stroke-opacity:0"
         d="m 709.19,179.61 c 4.76,0.8 8.48,5.97 10.24,9.98 1.01,2.3 1.83,4.55 3.08,6.59 0.66,1.06 1.04,2.17 1.79,3.49 0.64,1.12 1.12,1.21 1.99,2.1 0.65,0.64 1.03,0.51 1.79,0.89 0.38,0.19 0.68,-4.97 0.7,-5.58 0.07,-2.06 0.4,-3.96 0.4,-6.09 0,-1.86 -0.27,-3.49 -0.7,-5.19 -0.32,-1.27 -0.65,-2.53 -1.09,-3.79 -0.59,-1.69 -0.69,-1.89 -1.99,-3.2 -1.67,-1.67 -4.21,-3.24 -5.77,-4.49 -0.7,-0.56 -5.16,1.13 -6.27,1.3 -2.19,0.34 -3.7,0.03 -5.57,0.6 -0.57,0.17 -1.02,0.27 -1.49,0.4" />
      <path
         id="path5143"
         style="fill:#ffe6a0;fill-rule:evenodd;stroke-opacity:0"
         d="m 676.86,188.19 c -1.99,0.61 -8.39,14.56 -9.54,16.87 -1.71,3.41 -4.25,5.57 -5.08,9.38 -0.61,2.82 0.12,4.38 -1.79,0.4 -2.79,-5.85 -3.61,-13.62 -5.17,-19.86 -0.5,-2.02 -0.51,-4.02 -0.59,-6.09 -0.08,-1.83 0.24,-0.37 0.79,-1.2" />
      <path
         id="path5145"
         style="fill:#ffe6a0;fill-rule:evenodd;stroke-opacity:0"
         d="m 627.33,184.9 c -0.01,-0.43 0.69,6.31 1.2,13.67 0.37,5.46 0.1,11.06 0.5,16.47 0.18,2.46 0.83,1.83 2.68,2.39 2.46,0.75 4.43,-7.35 5.17,-8.98 1.4,-3.08 3.16,-5.94 5.07,-8.68 1.01,-1.44 2.28,-2.38 3.29,-3.89 1.18,-1.79 1.73,-4.3 2.58,-6.19 1.24,-2.74 -0.03,-2.85 -0.59,-4.09 -0.84,-1.84 -12.8,-1.78 -15.22,-2.2 -1.61,-0.27 -1.55,-0.51 -2.69,-0.89" />
      <path
         id="path5147"
         style="fill:#ffe6a0;fill-rule:evenodd;stroke-opacity:0"
         d="m 626.74,738.77 c -1.78,-0.31 0.67,3.87 2.09,4.99 1.3,1.03 3.54,0.97 5.17,1.3 2.46,0.49 4.96,2.09 7.26,3.09 1.92,0.84 4.15,0.95 6.17,1.3 1.77,0.31 3.53,0.42 5.37,0.5 1.71,0.06 3.49,0.26 5.17,0.39 2.81,0.23 5.66,0.7 8.45,1.2 5.99,1.08 11.9,2.43 17.9,3.39 4.43,0.72 8.95,0.5 13.43,0.5 2.93,0 5.95,-0.84 8.75,-1.59 2.25,-0.61 3.27,-3.12 3.98,-5.09 0.84,-2.33 1.87,-2.95 4.08,-4.19 1.56,-0.88 3.61,-0.93 5.37,-1.3 1.53,-0.32 2.51,-0.93 3.68,-1.6 1.37,-0.78 1.61,-2.01 2.29,-3.19 0.74,-1.3 0.57,-3.66 0.79,-5.09 0.39,-2.56 -0.34,-3.83 -2.09,-5.49 -3.83,-3.63 -6.66,-6.52 -11.63,-8.68 -4.94,-2.15 -7.99,-3.25 -13.43,-3.79 -7.17,-0.72 -14.16,-2.1 -21.38,-2.6 -5.98,-0.41 -11.91,-1.95 -17.71,0.2 -3.47,1.29 -6.84,3.12 -10.44,3.79 -2.13,0.4 -3.96,1.5 -6.07,2.2 -1.95,0.65 -3.99,3.11 -5.86,4.09 -1.71,0.89 -3.44,2.26 -4.68,3.19 -1.66,1.25 -3.07,2.03 -4.57,3.3 -1.16,0.98 -0.94,4.08 -1.1,5.49 -0.34,2.94 0.91,-1.08 -0.99,3.69 z" />
      <path
         id="path5149"
         style="fill:#030200;fill-rule:evenodd;stroke-opacity:0"
         d="m 673.29,740.85 c 1.1,1.26 3.58,1.69 5.45,1.8 2.18,0.13 4.32,0.36 5.63,-1.62 1.1,-1.66 1.45,-4.12 1.45,-6.04 0,-2.21 -1.33,-3.94 -2.69,-5.58 -1.26,-1.53 -2.81,-2.6 -4.65,-3.32 -1.96,-0.75 -3.66,-0.76 -5.75,-0.76 -2.18,0 -4.85,0.94 -6.63,2.12 -1.39,0.94 -2.13,4.05 -2.62,5.56 -0.52,1.63 0.1,3.44 0.82,4.82 0.9,1.72 3.47,2.59 5.1,3.31 1.88,0.84 3.82,0.71 5.84,0.71 0.25,0 0.51,-0.02 0.76,-0.03" />
      <path
         id="path5151"
         style="fill:url(#radialGradient5310);fill-rule:evenodd;stroke-opacity:0"
         d="m 682.66,739.22 c 0.23,-1.06 0.15,-3.41 0.15,-5.05 0,-2.49 -2.35,-3.53 -4.39,-3.97 -1.24,-0.26 -2.97,-0.04 -4.18,0.09 -2.27,0.26 -3.86,-0.94 -5.04,1.9 -0.13,0.3 -0.26,0.61 -0.39,0.91 -0.42,1.02 -1,1.96 -1.68,2.75 -0.72,0.85 2.3,2.42 2.74,2.69 1.24,0.76 2.55,1.38 3.83,2.07 1.17,0.64 2.22,1.1 3.54,1.21 0.89,0.08 1.71,-0.05 2.59,0.12 0.75,0.15 1.05,0.04 1.77,-0.32 1.75,-0.88 0.84,-2.04 1.71,-3.43 0.18,-0.29 0.31,-0.76 0.47,-1.07" />
    </g>
    <path
       id="path5188"
       style="fill:none;stroke:#000000;stroke-width:1.50669"
       d="m 458.19392,782.42297 c 61.348,184.2665 61.348,185.60662 61.348,185.60662" />
  </g>
  <metadata
     id="metadata1">
    <rdf:RDF>
      <cc:Work>
        <dc:format>image/svg+xml</dc:format>
        <dc:type
           rdf:resource="http://purl.org/dc/dcmitype/StillImage" />
        <cc:license
           rdf:resource="http://creativecommons.org/publicdomain/zero/1.0/" />
        <dc:publisher>
          <cc:Agent
             rdf:about="http://openclipart.org/">
            <dc:title>Openclipart</dc:title>
          </cc:Agent>
        </dc:publisher>
        <dc:title>Notepad &amp; Pencil</dc:title>
        <dc:date>2009-04-22T23:56:10</dc:date>
        <dc:description />
        <dc:source>https://openclipart.org/detail/25263/notepad-&amp;-pencil-by-degri-25263</dc:source>
        <dc:creator>
          <cc:Agent>
            <dc:title>Degri</dc:title>
          </cc:Agent>
        </dc:creator>
        <dc:subject>
          <rdf:Bag>
            <rdf:li>notepad</rdf:li>
            <rdf:li>pencil</rdf:li>
          </rdf:Bag>
        </dc:subject>
      </cc:Work>
      <cc:License
         rdf:about="http://creativecommons.org/publicdomain/zero/1.0/">
        <cc:permits
           rdf:resource="http://creativecommons.org/ns#Reproduction" />
        <cc:permits
           rdf:resource="http://creativecommons.org/ns#Distribution" />
        <cc:permits
           rdf:resource="http://creativecommons.org/ns#DerivativeWorks" />
      </cc:License>
    </rdf:RDF>
  </metadata>
</svg>
