<?xml version="1.0" encoding="UTF-8" standalone="no"?>
<!-- Created with Inkscape (http://www.inkscape.org/) -->

<svg
   xmlns:dc="http://purl.org/dc/elements/1.1/"
   xmlns:cc="http://creativecommons.org/ns#"
   xmlns:rdf="http://www.w3.org/1999/02/22-rdf-syntax-ns#"
   xmlns:svg="http://www.w3.org/2000/svg"
   xmlns="http://www.w3.org/2000/svg"
   xmlns:xlink="http://www.w3.org/1999/xlink"
   xmlns:sodipodi="http://sodipodi.sourceforge.net/DTD/sodipodi-0.dtd"
   xmlns:inkscape="http://www.inkscape.org/namespaces/inkscape"
   id="svg2"
   sodipodi:docname="secondary.svg"
   viewBox="0 0 544.99999 545.00001"
   version="1.1"
   inkscape:version="0.92.4 (5da689c313, 2019-01-14)"
   width="545"
   height="545"
   inkscape:export-xdpi="45.17704"
   inkscape:export-ydpi="45.17704">
  <defs
     id="defs6">
    <linearGradient
       id="linearGradient3789-3">
      <stop
         id="stop3791"
         style="stop-color:#ede4c5"
         offset="0" />
      <stop
         id="stop3793"
         style="stop-color:#b8b199"
         offset=".35281" />
      <stop
         id="stop3795"
         style="stop-color:#ede4c5"
         offset="1" />
    </linearGradient>
    <linearGradient
       id="linearGradient3771"
       y2="156.21001"
       xlink:href="#linearGradient3789-3"
       gradientUnits="userSpaceOnUse"
       x2="241.87"
       y1="180.82001"
       x1="238.25"
       inkscape:collect="always"
       gradientTransform="translate(-36.501246,62.51609)" />
    <linearGradient
       id="linearGradient3781"
       y2="138.96001"
       gradientUnits="userSpaceOnUse"
       x2="485.13"
       y1="133.39999"
       x1="478.78"
       inkscape:collect="always"
       gradientTransform="translate(-36.501246,62.51609)">
      <stop
         id="stop3767"
         style="stop-color:#ede4c5"
         offset="0" />
      <stop
         id="stop3773"
         style="stop-color:#b8b199"
         offset=".5" />
      <stop
         id="stop3769"
         style="stop-color:#ede4c5"
         offset="1" />
    </linearGradient>
    <radialGradient
       id="radialGradient3807"
       gradientUnits="userSpaceOnUse"
       cy="92.904999"
       cx="338.64001"
       gradientTransform="matrix(0.99981,0.082803,-0.030063,0.363,-33.643146,93.65609)"
       r="123.17"
       inkscape:collect="always">
      <stop
         id="stop3799"
         style="stop-color:#2b2b35"
         offset="0" />
      <stop
         id="stop3805"
         style="stop-color:#072b35"
         offset=".80776" />
      <stop
         id="stop3801"
         style="stop-color:#0d0f12"
         offset="1" />
    </radialGradient>
    <linearGradient
       id="linearGradient3875"
       y2="150.87"
       gradientUnits="userSpaceOnUse"
       x2="485.23999"
       gradientTransform="translate(-36.501246,62.51609)"
       y1="209.62"
       x1="96.764999"
       inkscape:collect="always">
      <stop
         id="stop3871"
         style="stop-color:#e2c75c"
         offset="0" />
      <stop
         id="stop3873"
         style="stop-color:#aa6009"
         offset="1" />
    </linearGradient>
    <linearGradient
       id="linearGradient3883"
       y2="266.98999"
       xlink:href="#linearGradient3789-3"
       gradientUnits="userSpaceOnUse"
       x2="276.41"
       gradientTransform="translate(-36.501246,62.51609)"
       y1="218.16"
       x1="276"
       inkscape:collect="always" />
    <linearGradient
       id="linearGradient3899"
       y2="201.56"
       gradientUnits="userSpaceOnUse"
       x2="539.53998"
       gradientTransform="translate(-36.501246,62.51609)"
       y1="216.72"
       x1="70.741997"
       inkscape:collect="always">
      <stop
         id="stop3895"
         style="stop-color:#8d7142"
         offset="0" />
      <stop
         id="stop3897"
         style="stop-color:#765329"
         offset="1" />
    </linearGradient>
    <linearGradient
       id="linearGradient3907"
       y2="233.28"
       xlink:href="#linearGradient3789-3"
       gradientUnits="userSpaceOnUse"
       x2="555.76001"
       gradientTransform="translate(-36.501246,62.51609)"
       y1="221.49001"
       x1="528.38"
       inkscape:collect="always" />
    <linearGradient
       id="linearGradient3923"
       y2="291.95001"
       xlink:href="#linearGradient3789-3"
       gradientUnits="userSpaceOnUse"
       x2="240.24001"
       gradientTransform="translate(-36.501246,62.51609)"
       y1="259.95001"
       x1="243.17"
       inkscape:collect="always" />
    <linearGradient
       id="linearGradient3941"
       y2="407.75"
       xlink:href="#linearGradient3789-3"
       gradientUnits="userSpaceOnUse"
       x2="314.44"
       gradientTransform="translate(-36.501246,62.51609)"
       y1="310.62"
       x1="304.64001"
       inkscape:collect="always" />
    <linearGradient
       id="linearGradient3949"
       y2="302.34"
       xlink:href="#linearGradient3789-3"
       gradientUnits="userSpaceOnUse"
       x2="95.945"
       gradientTransform="translate(-35.939246,66.16539)"
       y1="306.26999"
       x1="78.663002"
       inkscape:collect="always" />
  </defs>
  <sodipodi:namedview
     id="namedview4"
     fit-margin-left="0"
     inkscape:zoom="0.89056604"
     borderopacity="1"
     inkscape:current-layer="svg2"
     inkscape:cx="229.65569"
     inkscape:cy="275.90275"
     inkscape:window-maximized="1"
     showgrid="false"
     fit-margin-right="0"
     bordercolor="#666666"
     inkscape:window-x="-8"
     guidetolerance="10"
     objecttolerance="10"
     inkscape:window-y="-8"
     fit-margin-bottom="0"
     inkscape:window-width="1024"
     inkscape:pageopacity="0"
     inkscape:pageshadow="2"
     pagecolor="#ffffff"
     gridtolerance="10"
     inkscape:window-height="705"
     fit-margin-top="0" />
  <path
     id="path3927"
     sodipodi:nodetypes="ccccc"
     style="fill:url(#linearGradient3941)"
     inkscape:connector-curvature="0"
     d="m 63.996754,464.22999 468.239996,-42.95 c 2.1724,-21.932 3.4062,-45.115 1.1229,-72.987 l -470.199996,44.63 c 0.82237,19.937 2.231,57.554 0.84216,71.303 z" />
  <path
     id="path3929"
     sodipodi:nodetypes="ccccc"
     style="fill:url(#linearGradient3949)"
     inkscape:connector-curvature="0"
     d="m 30.768754,250.45999 33.228,144.43 0.561,74.11 -28.072,-135.59 z" />
  <path
     id="path3925"
     style="fill:#d38d5f;stroke:#ad7d42;stroke-width:4.19999981;stroke-linecap:round;stroke-linejoin:round"
     inkscape:connector-curvature="0"
     d="m 31.432754,242.17999 446.349996,-12.35 60.63,118.46 -475.539996,44.91 z" />
  <path
     id="path3933"
     style="fill:#ff9955"
     inkscape:connector-curvature="0"
     d="m 81.401754,330.87999 7.2987,38.739 421.079996,-42.108 -17.405,-42.669 z" />
  <path
     id="path3931"
     sodipodi:nodetypes="cccc"
     style="fill:none;stroke:#ad7d42;stroke-width:4.19999981;stroke-linecap:round;stroke-linejoin:round"
     inkscape:connector-curvature="0"
     d="m 31.016754,243.25999 -4.699,25.44 35.762,192.17 469.599996,-39.59" />
  <path
     id="path3887"
     sodipodi:nodetypes="ccccc"
     style="fill:url(#linearGradient3923)"
     inkscape:connector-curvature="0"
     d="m 4.2033544,299.29999 461.2199956,49.266 -1.965,36.634 -459.5399956,-49.4 c -1.6094,-11.14 -3.5501,-22.09 0.2836,-36.5 z" />
  <path
     id="path3889"
     sodipodi:nodetypes="ccccc"
     style="fill:url(#linearGradient3907)"
     inkscape:connector-curvature="0"
     d="m 537.98975,197.53999 1.965,39.02 -77.058,149.48 1.965,-37.757 z" />
  <path
     id="path3885"
     style="fill:url(#linearGradient3899);stroke:#7e5326;stroke-width:5.5999999;stroke-linecap:round;stroke-linejoin:round"
     inkscape:connector-curvature="0"
     d="m 56.697754,227.57999 c -2.245,2.81 -53.8979996,70.18 -53.8979996,70.18 l 462.0699956,49.407 74.672,-151.03 -137.55,-9.5445 z" />
  <path
     id="path3859"
     sodipodi:nodetypes="ccccc"
     style="fill:url(#linearGradient3883)"
     inkscape:connector-curvature="0"
     d="m 53.021754,280.47999 c -5.4414,25.953 1.0159,27.445 3.3745,36.722 l 403.749996,-2.9775 0.79399,-35.333 z" />
  <path
     id="path3855"
     style="fill:url(#linearGradient3875);stroke:#8a4d0c;stroke-width:2.9000001;stroke-linecap:round;stroke-linejoin:round"
     inkscape:connector-curvature="0"
     d="m 55.602754,227.27999 -4.764,52.404 410.499996,-2.382 v -89.722 z" />
  <path
     inkscape:connector-curvature="0"
     style="fill:#cccccc;fill-opacity:1;stroke:#2b2b20;stroke-width:6.4000001;stroke-linecap:round;stroke-linejoin:round"
     sodipodi:nodetypes="ccccc"
     d="m 14.711754,181.22609 134.589996,-106.4 350.15,37.322 -107.19,121.48 z"
     id="path2987" />
  <path
     inkscape:connector-curvature="0"
     style="fill:url(#radialGradient3807);stroke:#000000;stroke-width:1px"
     d="m 179.46875,176.06609 72.65,-66.697 172.69,20.644 -63.52,71.463 z"
     id="path2989" />
  <path
     inkscape:connector-curvature="0"
     style="fill:none;stroke:#2b2b20;stroke-width:6.4000001;stroke-linecap:round;stroke-linejoin:round"
     sodipodi:nodetypes="cccc"
     d="m 24.239754,230.45609 372.779996,52 104.41,-121.48 -2.78,-48.034"
     id="path2991" />
  <path
     inkscape:connector-curvature="0"
     style="fill:url(#linearGradient3771);stroke:#2b2b20;stroke-width:0.99000001;stroke-linecap:round;stroke-linejoin:round"
     sodipodi:nodetypes="ccccc"
     d="m 19.475754,183.96609 c -2.7849,12.409 -4.5658,26.4 4.764,45.524 l 371.589996,50.194 c -8.2513,-17.51 -12.166,-33.427 -3.573,-44.746 z"
     id="path2993" />
  <path
     d="m 392.50875,234.60609 c -10.575,8.1887 -2.3999,39.635 4.4145,45.028 l 101.97,-117.52 c -1.2616,-3.9805 -2.0862,-37.629 -0.0357,-48.568 z"
     inkscape:connector-curvature="0"
     style="fill:url(#linearGradient3781);stroke:#2b2b20;stroke-linecap:round;stroke-linejoin:round"
     sodipodi:nodetypes="ccccc"
     id="path3763" />
  <path
     inkscape:connector-curvature="0"
     style="fill:none;stroke:#ede4c5;stroke-width:4.80000019"
     d="m 355.92875,138.73009 c 0.14986,1.1803 -1.0688,1.7315 -1.3802,2.69 -0.0818,0.25171 0.0269,0.54038 -0.0549,0.7921 -0.18287,0.56285 -0.6446,0.99635 -0.90184,1.5293 -1.8709,3.8763 0.36748,-0.81947 -0.53323,1.9528 -0.0915,0.28142 -0.33817,0.49108 -0.45092,0.76466 -0.0504,0.12235 0.0135,0.27019 -0.0274,0.39605 -0.12931,0.39799 -0.34904,0.76272 -0.47835,1.1607 -0.0409,0.12586 0.0398,0.28206 -0.0274,0.39605 -0.0951,0.1612 -0.36566,0.19062 -0.42349,0.36861 -0.12268,0.37757 0.0404,0.81058 -0.0823,1.1881 -0.0578,0.17799 -0.30917,0.22044 -0.42349,0.36861 -0.18076,0.23428 -0.3223,0.49817 -0.45091,0.76466 -0.1819,0.37687 -0.2658,0.80025 -0.47836,1.1607 -0.24236,0.41099 -0.60124,0.74208 -0.87441,1.1333 -0.82587,1.1827 -0.0564,0.51906 -1.3253,1.8979 -0.25346,0.27542 -0.60224,0.45403 -0.84696,0.73723 -0.19349,0.22389 -0.25745,0.54078 -0.45092,0.76466 -0.24474,0.2832 -0.56465,0.49148 -0.84698,0.73723 -0.42348,0.36861 -0.80885,0.78625 -1.2704,1.1058 -0.24329,0.16844 -0.56257,0.19445 -0.81954,0.34118 -0.16252,0.0928 -0.26096,0.27581 -0.42348,0.36861 -0.25697,0.14673 -0.59634,0.1469 -0.81954,0.34118 -0.0271,0.0236 -0.84754,1.459 -0.90183,1.5293 -0.11433,0.14817 -0.32843,0.20741 -0.42349,0.36862 -0.0672,0.11399 0.023,0.2737 -0.0274,0.39605 -0.11277,0.27358 -0.35948,0.48324 -0.45092,0.76466 -0.0818,0.25172 0.046,0.5474 -0.0549,0.7921 -0.0713,0.17303 -0.35218,0.19559 -0.42349,0.36862 -0.10085,0.2447 0.0269,0.54038 -0.0549,0.7921 -0.67439,2.0757 -0.10458,-0.4052 -1.2704,1.1058 -0.16167,0.20954 -0.0366,0.52806 -0.0549,0.79209 -0.0274,0.39605 0.0404,0.81058 -0.0823,1.1882 -0.21896,0.67394 -0.62801,0.0633 -0.84697,0.73723 -0.12268,0.37757 -0.0549,0.7921 -0.0823,1.1882 -0.009,0.13201 0.023,0.2737 -0.0274,0.39605 -0.11278,0.27358 -0.35949,0.48324 -0.45092,0.76466 -0.19836,0.61049 0.0612,1.3698 -0.13718,1.9802 -0.0915,0.28143 -0.33818,0.49109 -0.45092,0.76467 -0.0504,0.12235 0.0398,0.28206 -0.0274,0.39605 -0.0951,0.16121 -0.32842,0.20741 -0.42349,0.36862 -0.1417,0.2403 0.032,1.3439 -0.10974,1.5842 -0.0672,0.11398 -0.32882,-0.14142 -0.39605,-0.0274 -0.13444,0.22799 0.046,0.5474 -0.0549,0.7921 -0.0713,0.17303 -0.32842,0.20741 -0.42348,0.36862 -0.0672,0.11399 0.0724,0.30916 -0.0274,0.39605 -0.0999,0.0869 -0.29624,-0.11434 -0.39605,-0.0274 -0.0999,0.0869 0.0398,0.28205 -0.0274,0.39604 -0.49851,0.84536 -0.25432,0.10587 -0.81954,0.34118 -1.7054,0.70995 0.42529,0.002 -0.45092,0.76466 -1.0697,0.93108 -0.4671,0.12056 -1.2156,0.31375 -0.28652,0.074 -0.56257,0.19444 -0.81954,0.34118 -0.32503,0.1856 -0.50142,0.59336 -0.84697,0.73722 -0.12217,0.0509 -0.29622,-0.11435 -0.39605,-0.0274 -0.0998,0.0869 0.0724,0.30917 -0.0274,0.39605 -0.0998,0.0869 -0.27387,-0.0783 -0.39604,-0.0274 -0.17277,0.0719 -0.25071,0.29669 -0.42348,0.36861 -0.12218,0.0509 -0.29624,-0.11435 -0.39605,-0.0274 -0.0999,0.0869 0.0724,0.30918 -0.0274,0.39606 -0.0998,0.0869 -0.26404,-0.0183 -0.39605,-0.0274 -0.13201,-0.009 -0.26404,-0.0183 -0.39605,-0.0274"
     id="path3815" />
  <path
     inkscape:connector-curvature="0"
     style="fill:none;stroke:#ede4c5;stroke-width:4.80000019"
     d="m 334.53875,138.20609 c 0.71478,1.8319 -1.2641,1.4446 -1.7488,2.2666 -0.36199,0.61385 -0.5338,1.3325 -0.92928,1.9254 -0.20772,0.31137 -0.60224,0.45403 -0.84698,0.73723 -0.8755,1.0131 -0.038,0.64951 -0.92927,1.9254 -0.2143,0.30688 -0.61832,0.44089 -0.84697,0.73723 -0.0808,0.10477 -0.0183,0.26403 -0.0274,0.39605 -0.0274,0.39605 0.0903,0.83061 -0.0823,1.1881 -0.1627,0.33709 -0.65685,0.41482 -0.84697,0.73723 -0.13444,0.22798 0.0269,0.54039 -0.0549,0.7921 -0.0915,0.28142 -0.32229,0.49817 -0.45092,0.76466 -0.18189,0.37687 -0.23876,0.81761 -0.47835,1.1607 -0.2143,0.30688 -0.65684,0.41482 -0.84697,0.73723 -0.13444,0.22798 0.0602,0.55374 -0.0549,0.7921 -0.20739,0.4297 -0.63205,0.72228 -0.87441,1.1333 -1.2905,2.1884 0.22877,0.26701 -0.92927,1.9254 -0.54634,0.78239 -1.2025,1.4842 -1.7488,2.2666 -0.16941,0.24261 -0.22772,0.57039 -0.45092,0.76466 -0.22319,0.19428 -0.59634,0.1469 -0.81953,0.34118 -0.2232,0.19428 -0.27016,0.53039 -0.45092,0.76466 -0.11432,0.14817 -0.30112,0.22701 -0.42349,0.36861 -0.31197,0.36101 -0.54435,0.78872 -0.8744,1.1333 0.33475,0.86136 -1.7158,1.1213 -2.09,1.447 -0.2232,0.19427 -0.22772,0.57038 -0.45092,0.76466 -0.35989,0.31326 -0.88313,0.39653 -1.243,0.70979 -0.49908,0.43442 -0.79881,1.0675 -1.2979,1.5019 -0.35989,0.31326 -0.88313,0.39653 -1.243,0.70979 -0.35989,0.31326 -0.51451,0.82002 -0.8744,1.1333 -0.44639,0.38855 -1.1927,0.2938 -1.6391,0.68235 -0.8762,0.76268 1.2544,0.0547 -0.45092,0.76467 -0.12217,0.0509 -0.29623,-0.11432 -0.39604,-0.0274 -0.19964,0.17376 0.0796,0.56412 -0.0549,0.7921 -0.0951,0.1612 -0.32843,0.2074 -0.42349,0.36861 -0.14171,0.2403 0.032,1.3439 -0.10974,1.5842 -0.0951,0.1612 -0.32843,0.2074 -0.42349,0.36861 -0.0672,0.11399 -0.0183,0.26403 -0.0274,0.39605 -0.0183,0.26403 -0.0366,0.52807 -0.0549,0.7921 -0.0457,0.66008 -0.0915,1.3202 -0.13718,1.9802 -0.0265,0.38307 -0.0977,2.2629 -0.16461,2.3763 -0.0951,0.1612 -0.35218,0.19559 -0.42349,0.36861 -0.10085,0.24471 0.046,0.54741 -0.0549,0.7921 -0.0713,0.17303 -0.32842,0.20741 -0.42349,0.36862 -0.0672,0.11399 0.0398,0.28206 -0.0274,0.39605 -0.27055,0.45879 -0.9999,0.64704 -1.2704,1.1058 -0.13445,0.22798 0.14475,0.61833 -0.0549,0.7921 -0.19964,0.17377 -0.54777,-0.15659 -0.7921,-0.0549 -0.54616,0.22737 -0.30081,0.50985 -0.84698,0.73723 -0.12216,0.0509 -0.29622,-0.11435 -0.39605,-0.0274 -0.0998,0.0869 0.0724,0.30916 -0.0274,0.39604 -0.19963,0.17377 -0.59247,-0.22863 -0.79209,-0.0549 -0.0999,0.0869 0.0724,0.30917 -0.0274,0.39605 -0.0998,0.0869 -0.27388,-0.0783 -0.39605,-0.0274 -0.17278,0.0719 -0.25071,0.29669 -0.42349,0.36861 -0.12217,0.0509 -0.29623,-0.11434 -0.39605,-0.0274 -0.0998,0.0869 0.0724,0.30917 -0.0274,0.39605 -0.0998,0.0869 -0.26403,-0.0183 -0.39606,-0.0274 -0.13201,-0.009 -0.26402,-0.0183 -0.39605,-0.0274"
     id="path3817" />
  <path
     inkscape:connector-curvature="0"
     style="fill:none;stroke:#ede4c5;stroke-width:4.80000019"
     d="m 277.74875,170.04609 c 2.0278,-1.4039 1.8283,-0.95336 2.9644,-2.5803 0.16941,-0.24261 0.27016,-0.53038 0.45093,-0.76466 0.40419,-0.52386 0.89369,-0.97804 1.2979,-1.5019 0.18076,-0.23428 0.25055,-0.54693 0.45092,-0.76467 0.38019,-0.41312 0.92749,-0.66133 1.2705,-1.1058 0.25564,-0.33131 0.19498,-0.85278 0.47836,-1.1607 0.3231,-0.35109 0.85073,-0.43819 1.243,-0.70979 0.30774,-0.21306 0.59351,-0.46181 0.84697,-0.73723 0.32309,-0.35109 0.48212,-0.86168 0.87441,-1.1333 0.34405,-0.23821 0.85218,-0.10623 1.2156,-0.31374 0.11492,-0.0656 -0.0398,-0.28206 0.0274,-0.39605 0.0951,-0.1612 0.30112,-0.22701 0.42349,-0.36861 0.57856,-0.66949 0.92596,-1.4163 1.7214,-1.8705 0.11491,-0.0656 0.28113,0.0931 0.39604,0.0274 0.32503,-0.1856 0.53274,-0.53388 0.84697,-0.73723 0.24843,-0.16076 0.56258,-0.19445 0.81954,-0.34118 0.16251,-0.0928 0.26097,-0.27581 0.42349,-0.36861 0.25695,-0.14673 0.56257,-0.19445 0.81952,-0.34118 0.16253,-0.0928 0.26098,-0.27581 0.42349,-0.36861 0.25697,-0.14673 0.57111,-0.18042 0.81954,-0.34118 0.31423,-0.20335 0.52193,-0.55162 0.84697,-0.73723 0.11491,-0.0656 0.27388,0.0783 0.39604,0.0274 0.17278,-0.0719 0.25072,-0.29669 0.42349,-0.36861 0.12217,-0.0509 0.27388,0.0783 0.39605,0.0274 0.34555,-0.14385 0.50143,-0.59337 0.84697,-0.73723 0.12217,-0.0509 0.29623,0.11432 0.39605,0.0274 0.0999,-0.0869 -0.0724,-0.30917 0.0274,-0.39605 0.0998,-0.0869 0.27387,0.0783 0.39605,0.0274 0.17276,-0.0719 0.28232,-0.24574 0.42348,-0.36862 0.14117,-0.12287 0.35218,-0.19558 0.42348,-0.36861 0.10086,-0.2447 0.0366,-0.52807 0.0549,-0.7921 0.27318,-0.11373 0.63877,-0.1069 0.81953,-0.34118 0.16168,-0.20954 -0.0796,-0.56412 0.0549,-0.7921 0.0672,-0.11399 0.29623,0.11432 0.39605,0.0274 0.22319,-0.19428 0.27016,-0.53039 0.45093,-0.76466 0.11432,-0.14817 0.32842,-0.20741 0.42347,-0.36861 0.0672,-0.11399 -0.0398,-0.28206 0.0274,-0.39605 0.19012,-0.32241 0.61833,-0.44089 0.84697,-0.73723 0.1723,-0.2233 0.72955,-1.306 0.90185,-1.5293 0.11432,-0.14817 0.36565,-0.19062 0.42348,-0.36861 0.12269,-0.37757 -0.0223,-0.80517 0.0823,-1.1881 0.0779,-0.28546 0.33817,-0.49108 0.45092,-0.76466 0.0504,-0.12235 -0.0398,-0.28206 0.0274,-0.39605 1.0318,-1.7498 -0.28058,1.6692 0.8744,-1.1333 0.0957,-0.23219 -0.0408,-0.55991 0.0549,-0.7921 0.11277,-0.27358 0.35948,-0.48324 0.45092,-0.76466 0.0818,-0.25171 -0.046,-0.5474 0.0549,-0.7921 0.0713,-0.17303 0.35218,-0.19558 0.42349,-0.36861 0.10085,-0.2447 -0.0269,-0.54039 0.0549,-0.7921 0.18287,-0.56285 0.67634,-0.98216 0.90184,-1.5293 0.0504,-0.12235 -0.0724,-0.30917 0.0274,-0.39605 0.0998,-0.0869 0.29623,0.11432 0.39605,0.0274 0.19963,-0.17377 -0.14476,-0.61833 0.0549,-0.7921 0.0999,-0.0869 0.29623,0.11432 0.39604,0.0274 0.0999,-0.0869 -0.0398,-0.28206 0.0274,-0.39605 0.27055,-0.4588 0.99991,-0.64704 1.2705,-1.1058 0.0672,-0.11399 -0.0398,-0.28206 0.0274,-0.39605 0.0951,-0.1612 0.30917,-0.22044 0.42349,-0.36861 0.18076,-0.23428 0.27016,-0.53039 0.45092,-0.76466 0.11433,-0.14817 0.30916,-0.22044 0.42349,-0.36861 0.18075,-0.23428 0.22772,-0.57039 0.45091,-0.76466 0.0998,-0.0869 0.29624,0.11432 0.39605,0.0274 0.0999,-0.0869 -0.0398,-0.28206 0.0274,-0.39605 0.0951,-0.1612 0.32843,-0.20741 0.42349,-0.36861 0.0672,-0.11399 -0.0398,-0.28206 0.0274,-0.39605 0.19013,-0.32241 0.70436,-0.39117 0.84697,-0.73723 0.10086,-0.2447 -0.046,-0.5474 0.0549,-0.7921 0.49769,-1.2077 0.25488,0.15031 0.81952,-0.34118 0.0999,-0.0869 -0.0724,-0.30917 0.0274,-0.39605 0.0998,-0.0869 0.29624,0.11432 0.39605,0.0274 0.41776,-0.36363 -0.75666,-0.84832 0.45092,-0.76466"
     id="path3819" />
  <path
     id="path3857"
     style="fill:none;stroke:#905108;stroke-width:4;stroke-linecap:round;stroke-linejoin:round"
     inkscape:connector-curvature="0"
     d="m 55.800754,316.59999 405.729996,-0.794 -0.794,-38.112" />
  <path
     id="path3891"
     style="fill:none;stroke:#7e5326;stroke-width:4.19999981;stroke-linecap:round;stroke-linejoin:round"
     inkscape:connector-curvature="0"
     d="m 540.09975,197.25999 1.1229,40.424 -76.35,149.35 -462.0699956,-49.97" />
  <metadata
     id="metadata29134">
    <rdf:RDF>
      <cc:Work>
        <dc:format>image/svg+xml</dc:format>
        <dc:type
           rdf:resource="http://purl.org/dc/dcmitype/StillImage" />
        <cc:license
           rdf:resource="http://creativecommons.org/publicdomain/zero/1.0/" />
        <dc:publisher>
          <cc:Agent
             rdf:about="http://openclipart.org/">
            <dc:title>Openclipart</dc:title>
          </cc:Agent>
        </dc:publisher>
        <dc:title></dc:title>
        <dc:date>2012-08-02T10:32:49</dc:date>
        <dc:description>Book stack - pile de livres</dc:description>
        <dc:source>https://openclipart.org/detail/171409/book-stack---pile-de-livres-by-cyberscooty-171409</dc:source>
        <dc:creator>
          <cc:Agent>
            <dc:title>cyberscooty</dc:title>
          </cc:Agent>
        </dc:creator>
        <dc:subject>
          <rdf:Bag>
            <rdf:li>Library</rdf:li>
            <rdf:li>bibliothèque</rdf:li>
            <rdf:li>book</rdf:li>
            <rdf:li>books</rdf:li>
            <rdf:li>livre</rdf:li>
            <rdf:li>livres</rdf:li>
          </rdf:Bag>
        </dc:subject>
      </cc:Work>
      <cc:License
         rdf:about="http://creativecommons.org/publicdomain/zero/1.0/">
        <cc:permits
           rdf:resource="http://creativecommons.org/ns#Reproduction" />
        <cc:permits
           rdf:resource="http://creativecommons.org/ns#Distribution" />
        <cc:permits
           rdf:resource="http://creativecommons.org/ns#DerivativeWorks" />
      </cc:License>
    </rdf:RDF>
  </metadata>
</svg>
