<?xml version="1.0" encoding="UTF-8" standalone="no"?>
<!-- Created with Inkscape (http://www.inkscape.org/) -->

<svg
   xmlns:osb="http://www.openswatchbook.org/uri/2009/osb"
   xmlns:dc="http://purl.org/dc/elements/1.1/"
   xmlns:cc="http://creativecommons.org/ns#"
   xmlns:rdf="http://www.w3.org/1999/02/22-rdf-syntax-ns#"
   xmlns:svg="http://www.w3.org/2000/svg"
   xmlns="http://www.w3.org/2000/svg"
   xmlns:xlink="http://www.w3.org/1999/xlink"
   xmlns:sodipodi="http://sodipodi.sourceforge.net/DTD/sodipodi-0.dtd"
   xmlns:inkscape="http://www.inkscape.org/namespaces/inkscape"
   width="870"
   height="870"
   id="svg2"
   version="1.1"
   inkscape:version="0.92.4 (5da689c313, 2019-01-14)"
   sodipodi:docname="show-all-labels.svg"
   inkscape:export-filename="Z:\Resources\ReadabilityStudio\ribbon\ShowAllPoints.png"
   inkscape:export-xdpi="29.961916"
   inkscape:export-ydpi="29.961916">
  <defs
     id="defs4">
    <linearGradient
       inkscape:collect="always"
       id="linearGradient3473">
      <stop
         style="stop-color:#ffffff;stop-opacity:1;"
         offset="0"
         id="stop3475" />
      <stop
         style="stop-color:#ffffff;stop-opacity:0;"
         offset="1"
         id="stop3477" />
    </linearGradient>
    <linearGradient
       id="linearGradient4009">
      <stop
         style="stop-color:#008040;stop-opacity:1;"
         offset="0"
         id="stop4011" />
      <stop
         style="stop-color:#428c2e;stop-opacity:0;"
         offset="1"
         id="stop4013" />
    </linearGradient>
    <linearGradient
       id="linearGradient3773"
       osb:paint="gradient">
      <stop
         style="stop-color:#000000;stop-opacity:1;"
         offset="0"
         id="stop3775" />
      <stop
         style="stop-color:#000000;stop-opacity:0;"
         offset="1"
         id="stop3777" />
    </linearGradient>
    <linearGradient
       inkscape:collect="always"
       xlink:href="#linearGradient4009-0"
       id="linearGradient4015-6"
       x1="189.73495"
       y1="476.64459"
       x2="760.28259"
       y2="473.78815"
       gradientUnits="userSpaceOnUse"
       gradientTransform="matrix(0.93652928,0,0,1.0002296,12.283263,-0.10610989)" />
    <linearGradient
       id="linearGradient4009-0">
      <stop
         style="stop-color:#008040;stop-opacity:1;"
         offset="0"
         id="stop4011-3" />
      <stop
         style="stop-color:#428c2e;stop-opacity:0;"
         offset="1"
         id="stop4013-6" />
    </linearGradient>
    <linearGradient
       inkscape:collect="always"
       xlink:href="#linearGradient4009"
       id="linearGradient3465"
       gradientUnits="userSpaceOnUse"
       gradientTransform="matrix(0.93652928,0,0,1.0002296,2.1817374,-0.10610989)"
       x1="461.54541"
       y1="462.50571"
       x2="531.61664"
       y2="461.6691" />
    <linearGradient
       inkscape:collect="always"
       xlink:href="#linearGradient3473"
       id="linearGradient3479"
       x1="400.02039"
       y1="448.29095"
       x2="147.48227"
       y2="454.35187"
       gradientUnits="userSpaceOnUse"
       gradientTransform="translate(318)" />
  </defs>
  <sodipodi:namedview
     id="base"
     pagecolor="#ffffff"
     bordercolor="#666666"
     borderopacity="1.0"
     inkscape:pageopacity="0.0"
     inkscape:pageshadow="2"
     inkscape:zoom="0.24748738"
     inkscape:cx="117.92095"
     inkscape:cy="724.37604"
     inkscape:document-units="px"
     inkscape:current-layer="layer3"
     showgrid="false"
     inkscape:window-width="1024"
     inkscape:window-height="705"
     inkscape:window-x="-8"
     inkscape:window-y="-8"
     inkscape:window-maximized="1"
     fit-margin-top="0"
     fit-margin-left="0"
     fit-margin-right="0"
     fit-margin-bottom="0" />
  <metadata
     id="metadata7">
    <rdf:RDF>
      <cc:Work
         rdf:about="">
        <dc:format>image/svg+xml</dc:format>
        <dc:type
           rdf:resource="http://purl.org/dc/dcmitype/StillImage" />
        <dc:title></dc:title>
      </cc:Work>
    </rdf:RDF>
  </metadata>
  <g
     inkscape:label="Layer 1"
     inkscape:groupmode="layer"
     id="layer1"
     transform="translate(-182.684,-61.585761)">
    <g
       id="g5217"
       transform="matrix(1,0,0,0.90428947,309.91878,8.3935224)">
      <path
         inkscape:connector-curvature="0"
         id="path5193"
         d="M 317.14286,92.362183 320,992.36218"
         style="fill:none;stroke:#000000;stroke-width:6;stroke-linecap:butt;stroke-linejoin:miter;stroke-miterlimit:4;stroke-dasharray:none;stroke-opacity:1" />
      <path
         inkscape:connector-curvature="0"
         id="path5195"
         d="M 248,90.69696 H 393.46196"
         style="fill:none;stroke:#000000;stroke-width:6;stroke-linecap:butt;stroke-linejoin:miter;stroke-miterlimit:4;stroke-dasharray:none;stroke-opacity:1" />
      <path
         inkscape:connector-curvature="0"
         id="path5195-4"
         d="M 248,991.75303 H 393.46196"
         style="fill:none;stroke:#000000;stroke-width:6;stroke-linecap:butt;stroke-linejoin:miter;stroke-miterlimit:4;stroke-dasharray:none;stroke-opacity:1" />
    </g>
    <rect
       style="fill:#ffffff;fill-opacity:1;fill-rule:nonzero;stroke:#000000;stroke-width:2.90400004;stroke-linecap:butt;stroke-miterlimit:4;stroke-dasharray:none;stroke-dashoffset:0;stroke-opacity:1"
       id="rect2985-2"
       width="251.52502"
       height="420.09644"
       x="502.13599"
       y="254.33429"
       rx="3.670737"
       ry="5.685185" />
    <rect
       style="fill:#6bb7c4;fill-opacity:1;fill-rule:nonzero;stroke:#6bb7c4;stroke-width:2.90400004;stroke-linecap:butt;stroke-miterlimit:4;stroke-dasharray:none;stroke-dashoffset:0;stroke-opacity:1"
       id="rect2985"
       width="251.52502"
       height="420.09644"
       x="502.13599"
       y="252.31398"
       rx="3.670737"
       ry="5.685185" />
    <rect
       style="fill:url(#linearGradient3479);fill-opacity:1;fill-rule:nonzero;stroke:#000000;stroke-width:1;stroke-linecap:butt;stroke-miterlimit:4;stroke-dasharray:0.1, 0.1;stroke-dashoffset:0;stroke-opacity:1"
       id="rect3469"
       width="101.0088"
       height="420.08954"
       x="502.13922"
       y="252.31741"
       rx="3.6705027"
       ry="5.7108293" />
  </g>
  <g
     inkscape:groupmode="layer"
     id="layer4"
     inkscape:label="Points"
     style="display:none"
     transform="translate(0,0.3850708)">
    <g
       id="g5178"
       transform="translate(126.51381,-81.916138)">
      <circle
         transform="translate(10.785715,172.85714)"
         id="path5089-0"
         style="fill:#0000ff;fill-opacity:1;fill-rule:nonzero;stroke:#000000;stroke-width:3;stroke-linecap:butt;stroke-miterlimit:4;stroke-dasharray:none;stroke-dashoffset:0;stroke-opacity:1"
         cx="310"
         cy="365.21933"
         r="24.285715" />
      <g
         id="g5167">
        <circle
           style="fill:#0000ff;fill-opacity:1;fill-rule:nonzero;stroke:#000000;stroke-width:3;stroke-linecap:butt;stroke-miterlimit:4;stroke-dasharray:none;stroke-dashoffset:0;stroke-opacity:1"
           id="path5089-71"
           transform="translate(10.785715,138.57142)"
           cx="310"
           cy="365.21933"
           r="24.285715" />
        <g
           id="g5158">
          <g
             id="g5151">
            <circle
               style="fill:#0000ff;fill-opacity:1;fill-rule:nonzero;stroke:#000000;stroke-width:3;stroke-linecap:butt;stroke-miterlimit:4;stroke-dasharray:none;stroke-dashoffset:0;stroke-opacity:1"
               id="path5089"
               transform="translate(10.785715,-128.64286)"
               cx="310"
               cy="365.21933"
               r="24.285715" />
            <circle
               style="fill:#0000ff;fill-opacity:1;fill-rule:nonzero;stroke:#000000;stroke-width:3;stroke-linecap:butt;stroke-miterlimit:4;stroke-dasharray:none;stroke-dashoffset:0;stroke-opacity:1"
               id="path5089-7"
               transform="translate(10.785715,-27.142861)"
               cx="310"
               cy="365.21933"
               r="24.285715" />
            <circle
               style="fill:#0000ff;fill-opacity:1;fill-rule:nonzero;stroke:#000000;stroke-width:3;stroke-linecap:butt;stroke-miterlimit:4;stroke-dasharray:none;stroke-dashoffset:0;stroke-opacity:1"
               id="path5089-2"
               transform="translate(10.785715,521.42857)"
               cx="310"
               cy="365.21933"
               r="24.285715" />
            <circle
               style="fill:#0000ff;fill-opacity:1;fill-rule:nonzero;stroke:#000000;stroke-width:3;stroke-linecap:butt;stroke-miterlimit:4;stroke-dasharray:none;stroke-dashoffset:0;stroke-opacity:1"
               id="path5089-6"
               transform="translate(10.785715,384.28571)"
               cx="310"
               cy="365.21933"
               r="24.285715" />
            <circle
               style="fill:#0000ff;fill-opacity:1;fill-rule:nonzero;stroke:#000000;stroke-width:3;stroke-linecap:butt;stroke-miterlimit:4;stroke-dasharray:none;stroke-dashoffset:0;stroke-opacity:1"
               id="path5089-4"
               transform="translate(10.785715,204.28571)"
               cx="310"
               cy="365.21933"
               r="24.285715" />
          </g>
          <circle
             transform="translate(10.785715,98.571424)"
             id="path5089-9"
             style="fill:#0000ff;fill-opacity:1;fill-rule:nonzero;stroke:#000000;stroke-width:3;stroke-linecap:butt;stroke-miterlimit:4;stroke-dasharray:none;stroke-dashoffset:0;stroke-opacity:1"
             cx="310"
             cy="365.21933"
             r="24.285715" />
        </g>
      </g>
    </g>
  </g>
  <g
     inkscape:groupmode="layer"
     id="layer3"
     inkscape:label="Labels"
     style="display:inline"
     transform="translate(0,0.3850708)">
    <g
       transform="translate(133.04183,-58.983836)"
       id="g4449">
      <rect
         ry="5.685185"
         rx="3.670737"
         y="440.20975"
         x="260.61935"
         height="62.629459"
         width="105.05586"
         id="rect5272"
         style="fill:#ffffff;fill-opacity:1;fill-rule:nonzero;stroke:#000000;stroke-width:2.90400004;stroke-linecap:butt;stroke-miterlimit:4;stroke-dasharray:none;stroke-dashoffset:0;stroke-opacity:1" />
      <rect
         ry="5.685185"
         rx="3.670737"
         y="641.2301"
         x="258.59906"
         height="62.629459"
         width="105.05586"
         id="rect5272-1"
         style="fill:#ffffff;fill-opacity:1;fill-rule:nonzero;stroke:#000000;stroke-width:2.90400004;stroke-linecap:butt;stroke-miterlimit:4;stroke-dasharray:none;stroke-dashoffset:0;stroke-opacity:1" />
      <rect
         ry="5.685185"
         rx="3.670737"
         y="867.50427"
         x="258.59906"
         height="62.629459"
         width="105.05586"
         id="rect5272-4"
         style="fill:#ffffff;fill-opacity:1;fill-rule:nonzero;stroke:#000000;stroke-width:2.90400004;stroke-linecap:butt;stroke-miterlimit:4;stroke-dasharray:none;stroke-dashoffset:0;stroke-opacity:1" />
      <g
         id="g3453">
        <rect
           style="fill:#ffffff;fill-opacity:1;fill-rule:nonzero;stroke:#000000;stroke-width:2.90400004;stroke-linecap:butt;stroke-miterlimit:4;stroke-dasharray:none;stroke-dashoffset:0;stroke-opacity:1"
           id="rect5272-9"
           width="105.05586"
           height="62.629459"
           x="258.59906"
           y="229.08784"
           rx="3.670737"
           ry="5.685185" />
        <rect
           style="fill:#ffffff;fill-opacity:1;fill-rule:nonzero;stroke:#000000;stroke-width:2.90400004;stroke-linecap:butt;stroke-miterlimit:4;stroke-dasharray:none;stroke-dashoffset:0;stroke-opacity:1"
           id="rect5272-8"
           width="105.05586"
           height="62.629459"
           x="258.59906"
           y="63.422832"
           rx="3.670737"
           ry="5.685185" />
      </g>
    </g>
    <g
       id="flowRoot5264"
       style="font-style:normal;font-weight:normal;line-height:0.01%;font-family:sans-serif;letter-spacing:0px;word-spacing:0px;fill:#000000;fill-opacity:1;stroke:none"
       transform="translate(129.24586,-58.983836)"
       aria-label="12.5">
      <path
         inkscape:connector-curvature="0"
         id="path6477"
         style="font-size:40px;line-height:1.25;font-family:sans-serif"
         d="m 277.70117,484.40234 h 6.44531 v -22.24609 l -7.01171,1.40625 v -3.59375 l 6.97265,-1.40625 h 3.94531 v 25.83984 h 6.44532 v 3.32032 h -16.79688 z" />
      <path
         inkscape:connector-curvature="0"
         id="path6479"
         style="font-size:40px;line-height:1.25;font-family:sans-serif"
         d="m 305.88477,484.40234 h 13.76953 v 3.32032 h -18.51563 v -3.32032 q 2.2461,-2.32422 6.11328,-6.23047 3.88672,-3.92578 4.88282,-5.05859 1.89453,-2.12891 2.63671,-3.59375 0.76172,-1.48437 0.76172,-2.91016 0,-2.32421 -1.64062,-3.78906 -1.6211,-1.46484 -4.23828,-1.46484 -1.85547,0 -3.92578,0.64453 -2.05079,0.64453 -4.39454,1.95312 v -3.98437 q 2.38282,-0.95703 4.45313,-1.44531 2.07031,-0.48828 3.78906,-0.48828 4.53125,0 7.22656,2.26562 2.69532,2.26563 2.69532,6.05469 0,1.79687 -0.6836,3.41797 -0.66406,1.60156 -2.4414,3.78906 -0.48828,0.56641 -3.10547,3.28125 -2.61719,2.69531 -7.38281,7.55859 z" />
      <path
         inkscape:connector-curvature="0"
         id="path6481"
         style="font-size:40px;line-height:1.25;font-family:sans-serif"
         d="m 327.95508,482.76172 h 4.12109 v 4.96094 h -4.12109 z" />
      <path
         inkscape:connector-curvature="0"
         id="path6483"
         style="font-size:40px;line-height:1.25;font-family:sans-serif"
         d="m 340.72852,458.5625 h 15.48828 v 3.32031 h -11.875 v 7.14844 q 0.85937,-0.29297 1.71875,-0.42969 0.85937,-0.15625 1.71875,-0.15625 4.88281,0 7.73437,2.67578 2.85156,2.67578 2.85156,7.2461 0,4.70703 -2.92968,7.32422 -2.92969,2.59765 -8.26172,2.59765 -1.83594,0 -3.75,-0.3125 -1.89453,-0.3125 -3.92578,-0.9375 v -3.96484 q 1.75781,0.95703 3.63281,1.42578 1.875,0.46875 3.96484,0.46875 3.37891,0 5.35157,-1.77734 1.97265,-1.77735 1.97265,-4.82422 0,-3.04688 -1.97265,-4.82422 -1.97266,-1.77735 -5.35157,-1.77735 -1.58203,0 -3.16406,0.35157 -1.5625,0.35156 -3.20312,1.09375 z" />
    </g>
    <g
       id="flowRoot5264-2"
       style="font-style:normal;font-weight:normal;line-height:0.01%;font-family:sans-serif;letter-spacing:0px;word-spacing:0px;fill:#000000;fill-opacity:1;stroke:none"
       transform="translate(145.24845,139.90485)"
       aria-label="4.5">
      <path
         inkscape:connector-curvature="0"
         id="path6486"
         style="font-size:40px;line-height:1.25;font-family:sans-serif"
         d="m 287.85742,462 -9.96094,15.56641 h 9.96094 z m -1.03515,-3.4375 h 4.96093 v 19.00391 h 4.16016 v 3.28125 h -4.16016 v 6.875 h -3.92578 v -6.875 h -13.16406 v -3.8086 z" />
      <path
         inkscape:connector-curvature="0"
         id="path6488"
         style="font-size:40px;line-height:1.25;font-family:sans-serif"
         d="m 302.48633,482.76172 h 4.12109 v 4.96094 h -4.12109 z" />
      <path
         inkscape:connector-curvature="0"
         id="path6490"
         style="font-size:40px;line-height:1.25;font-family:sans-serif"
         d="m 315.25977,458.5625 h 15.48828 v 3.32031 h -11.875 v 7.14844 q 0.85937,-0.29297 1.71875,-0.42969 0.85937,-0.15625 1.71875,-0.15625 4.88281,0 7.73437,2.67578 2.85156,2.67578 2.85156,7.2461 0,4.70703 -2.92968,7.32422 -2.92969,2.59765 -8.26172,2.59765 -1.83594,0 -3.75,-0.3125 -1.89453,-0.3125 -3.92578,-0.9375 v -3.96484 q 1.75781,0.95703 3.63281,1.42578 1.875,0.46875 3.96484,0.46875 3.37891,0 5.35157,-1.77734 1.97265,-1.77735 1.97265,-4.82422 0,-3.04688 -1.97265,-4.82422 -1.97266,-1.77735 -5.35157,-1.77735 -1.58203,0 -3.16406,0.35157 -1.5625,0.35156 -3.20312,1.09375 z" />
    </g>
    <g
       id="text5380"
       style="font-style:normal;font-weight:normal;line-height:0%;font-family:sans-serif;letter-spacing:0px;word-spacing:0px;fill:#000000;fill-opacity:1;stroke:none"
       aria-label="1"
       transform="translate(133.04183,-58.983836)">
      <path
         inkscape:connector-curvature="0"
         id="path6493"
         style="font-size:40px;line-height:1.25;font-family:sans-serif"
         d="m 305.98639,907.62048 h 6.44531 v -22.24609 l -7.01172,1.40625 v -3.59375 l 6.97266,-1.40625 h 3.94531 v 25.83984 h 6.44531 v 3.32032 h -16.79687 z" />
    </g>
    <g
       id="text5384"
       style="font-style:normal;font-weight:normal;line-height:0%;font-family:sans-serif;letter-spacing:0px;word-spacing:0px;fill:#000000;fill-opacity:1;stroke:none"
       aria-label="19.5"
       transform="translate(133.04183,-58.983836)">
      <path
         inkscape:connector-curvature="0"
         id="path6496"
         style="font-size:40px;line-height:1.25;font-family:sans-serif"
         d="m 273.91498,269.2041 h 6.44531 v -22.24609 l -7.01172,1.40625 v -3.59375 l 6.97266,-1.40625 h 3.94531 v 25.83984 h 6.44531 v 3.32031 h -16.79687 z" />
      <path
         inkscape:connector-curvature="0"
         id="path6498"
         style="font-size:40px;line-height:1.25;font-family:sans-serif"
         d="m 298.81732,271.91895 v -3.59375 q 1.48438,0.70312 3.00781,1.07421 1.52344,0.3711 2.98829,0.3711 3.90625,0 5.95703,-2.61719 2.07031,-2.63672 2.36328,-7.98828 -1.13281,1.67969 -2.8711,2.57812 -1.73828,0.89844 -3.84765,0.89844 -4.375,0 -6.9336,-2.63672 -2.53906,-2.65625 -2.53906,-7.24609 0,-4.49219 2.65625,-7.20703 2.65625,-2.71485 7.07031,-2.71485 5.0586,0 7.71485,3.88672 2.67578,3.86719 2.67578,11.25 0,6.89453 -3.28125,11.01563 -3.26172,4.10156 -8.78906,4.10156 -1.48438,0 -3.00782,-0.29297 -1.52343,-0.29297 -3.16406,-0.8789 z m 7.85156,-12.36329 q 2.65625,0 4.19922,-1.8164 1.5625,-1.81641 1.5625,-4.98047 0,-3.14453 -1.5625,-4.96094 -1.54297,-1.83594 -4.19922,-1.83594 -2.65625,0 -4.21875,1.83594 -1.54296,1.81641 -1.54296,4.96094 0,3.16406 1.54296,4.98047 1.5625,1.8164 4.21875,1.8164 z" />
      <path
         inkscape:connector-curvature="0"
         id="path6500"
         style="font-size:40px;line-height:1.25;font-family:sans-serif"
         d="m 324.16888,267.56348 h 4.1211 v 4.96093 h -4.1211 z" />
      <path
         inkscape:connector-curvature="0"
         id="path6502"
         style="font-size:40px;line-height:1.25;font-family:sans-serif"
         d="m 336.94232,243.36426 h 15.48828 v 3.32031 h -11.875 v 7.14844 q 0.85938,-0.29297 1.71875,-0.42969 0.85938,-0.15625 1.71875,-0.15625 4.88282,0 7.73438,2.67578 2.85156,2.67578 2.85156,7.2461 0,4.70703 -2.92969,7.32421 -2.92968,2.59766 -8.26172,2.59766 -1.83593,0 -3.75,-0.3125 -1.89453,-0.3125 -3.92578,-0.9375 v -3.96484 q 1.75782,0.95703 3.63282,1.42578 1.875,0.46875 3.96484,0.46875 3.37891,0 5.35156,-1.77735 1.97266,-1.77734 1.97266,-4.82421 0,-3.04688 -1.97266,-4.82422 -1.97265,-1.77735 -5.35156,-1.77735 -1.58203,0 -3.16406,0.35157 -1.5625,0.35156 -3.20313,1.09375 z" />
    </g>
    <g
       id="text5388"
       style="font-style:normal;font-weight:normal;line-height:0%;font-family:sans-serif;letter-spacing:0px;word-spacing:0px;fill:#000000;fill-opacity:1;stroke:none"
       aria-label="33"
       transform="translate(133.04183,-58.983836)">
      <path
         inkscape:connector-curvature="0"
         id="path6505"
         style="font-size:40px;line-height:1.25;font-family:sans-serif"
         d="m 303.11377,91.136757 q 2.83203,0.605469 4.41406,2.519531 1.60156,1.914063 1.60156,4.726563 0,4.316409 -2.96875,6.679689 -2.96875,2.36328 -8.4375,2.36328 -1.83593,0 -3.78906,-0.37109 -1.93359,-0.35157 -4.0039,-1.07422 v -3.8086 q 1.64062,0.95703 3.59375,1.44532 1.95312,0.48828 4.08203,0.48828 3.71093,0 5.64453,-1.46485 1.95312,-1.46484 1.95312,-4.257809 0,-2.578125 -1.8164,-4.023438 -1.79688,-1.464844 -5.01953,-1.464844 h -3.39844 v -3.242187 h 3.55469 q 2.91015,0 4.45312,-1.152344 1.54297,-1.171875 1.54297,-3.359375 0,-2.246094 -1.60156,-3.4375 -1.58203,-1.210937 -4.55078,-1.210937 -1.6211,0 -3.47657,0.351562 -1.85547,0.351563 -4.08203,1.09375 v -3.515625 q 2.2461,-0.625 4.19922,-0.9375 1.97266,-0.3125 3.71094,-0.3125 4.49219,0 7.10937,2.050781 2.61719,2.03125 2.61719,5.507813 0,2.421875 -1.38672,4.101562 -1.38672,1.660157 -3.94531,2.304688 z" />
      <path
         inkscape:connector-curvature="0"
         id="path6507"
         style="font-size:40px;line-height:1.25;font-family:sans-serif"
         d="m 328.58252,91.136757 q 2.83203,0.605469 4.41406,2.519531 1.60156,1.914063 1.60156,4.726563 0,4.316409 -2.96875,6.679689 -2.96875,2.36328 -8.4375,2.36328 -1.83593,0 -3.78906,-0.37109 -1.93359,-0.35157 -4.0039,-1.07422 v -3.8086 q 1.64062,0.95703 3.59375,1.44532 1.95312,0.48828 4.08203,0.48828 3.71093,0 5.64453,-1.46485 1.95312,-1.46484 1.95312,-4.257809 0,-2.578125 -1.8164,-4.023438 -1.79688,-1.464844 -5.01953,-1.464844 h -3.39844 v -3.242187 h 3.55469 q 2.91015,0 4.45312,-1.152344 1.54297,-1.171875 1.54297,-3.359375 0,-2.246094 -1.60156,-3.4375 -1.58203,-1.210937 -4.55078,-1.210937 -1.6211,0 -3.47657,0.351562 -1.85547,0.351563 -4.08203,1.09375 v -3.515625 q 2.2461,-0.625 4.19922,-0.9375 1.97266,-0.3125 3.71094,-0.3125 4.49219,0 7.10937,2.050781 2.61719,2.03125 2.61719,5.507813 0,2.421875 -1.38672,4.101562 -1.38672,1.660157 -3.94531,2.304688 z" />
    </g>
  </g>
</svg>
