<?xml version="1.0" encoding="UTF-8" standalone="no"?>
<svg
   xmlns:dc="http://purl.org/dc/elements/1.1/"
   xmlns:cc="http://creativecommons.org/ns#"
   xmlns:rdf="http://www.w3.org/1999/02/22-rdf-syntax-ns#"
   xmlns:svg="http://www.w3.org/2000/svg"
   xmlns="http://www.w3.org/2000/svg"
   xmlns:xlink="http://www.w3.org/1999/xlink"
   xmlns:sodipodi="http://sodipodi.sourceforge.net/DTD/sodipodi-0.dtd"
   xmlns:inkscape="http://www.inkscape.org/namespaces/inkscape"
   id="svg13684"
   viewBox="0 0 48 48"
   version="1.1"
   inkscape:version="0.92.4 (5da689c313, 2019-01-14)"
   width="100%"
   height="100%"
   sodipodi:docname="spreadsheet.svg"
   inkscape:export-xdpi="546.25098"
   inkscape:export-ydpi="546.25098">
  <sodipodi:namedview
     pagecolor="#ffffff"
     bordercolor="#666666"
     borderopacity="1"
     objecttolerance="10"
     gridtolerance="10"
     guidetolerance="10"
     inkscape:pageopacity="0"
     inkscape:pageshadow="2"
     inkscape:window-width="1024"
     inkscape:window-height="705"
     id="namedview3847"
     showgrid="false"
     inkscape:zoom="4.9166667"
     inkscape:cx="12.930424"
     inkscape:cy="24"
     inkscape:window-x="-8"
     inkscape:window-y="-8"
     inkscape:window-maximized="1"
     inkscape:current-layer="svg13684" />
  <defs
     id="defs3">
    <radialGradient
       id="radialGradient6719"
       xlink:href="#linearGradient5060"
       gradientUnits="userSpaceOnUse"
       cy="486.65"
       cx="605.71"
       gradientTransform="matrix(-2.7744 0 0 1.9697 112.76 -872.89)"
       r="117.14" />
    <linearGradient
       id="linearGradient5060">
      <stop
         id="stop5062"
         offset="0" />
      <stop
         id="stop5064"
         stop-opacity="0"
         offset="1" />
    </linearGradient>
    <radialGradient
       id="radialGradient6717"
       xlink:href="#linearGradient5060"
       gradientUnits="userSpaceOnUse"
       cy="486.65"
       cx="605.71"
       gradientTransform="matrix(2.7744 0 0 1.9697 -1891.6 -872.89)"
       r="117.14" />
    <linearGradient
       id="linearGradient6715"
       x1="302.86"
       gradientUnits="userSpaceOnUse"
       y1="366.65"
       gradientTransform="matrix(2.7744 0 0 1.9697 -1892.2 -872.89)"
       x2="302.86"
       y2="609.51">
      <stop
         id="stop5050"
         stop-opacity="0"
         offset="0" />
      <stop
         id="stop5056"
         offset=".5" />
      <stop
         id="stop5052"
         stop-opacity="0"
         offset="1" />
    </linearGradient>
    <linearGradient
       id="linearGradient6746"
       x1="-20.75"
       gradientUnits="userSpaceOnUse"
       x2="-19.5"
       y1="29"
       y2="18.75">
      <stop
         id="stop6689"
         stop-color="#fff"
         offset="0" />
      <stop
         id="stop6691"
         stop-color="#fff"
         stop-opacity="0"
         offset="1" />
    </linearGradient>
    <linearGradient
       id="linearGradient6742"
       y2="25.015"
       gradientUnits="userSpaceOnUse"
       y1="30.828"
       x2="-20.822"
       x1="-17.863">
      <stop
         id="stop6721"
         stop-color="#73d216"
         offset="0" />
      <stop
         id="stop6723"
         stop-color="#d5f7b3"
         offset="1" />
    </linearGradient>
    <linearGradient
       id="linearGradient6740"
       y2="28.196"
       gradientUnits="userSpaceOnUse"
       y1="24.454"
       x2="-9.7353"
       x1="-16.387">
      <stop
         id="stop6713"
         stop-color="#5b8ccb"
         offset="0" />
      <stop
         id="stop6715"
         stop-color="#3465a4"
         offset="1" />
    </linearGradient>
    <linearGradient
       id="linearGradient6738"
       y2="33.016"
       gradientUnits="userSpaceOnUse"
       y1="18.516"
       x2="-14.36"
       x1="-22.976">
      <stop
         id="stop6701"
         stop-color="#ff7171"
         offset="0" />
      <stop
         id="stop6703"
         stop-color="#c00"
         offset="1" />
    </linearGradient>
    <radialGradient
       id="radialGradient15656"
       gradientUnits="userSpaceOnUse"
       cy="3.7561"
       cx="8.8244"
       gradientTransform="matrix(.97165 0 0 1.0347 3.2404 .49568)"
       r="37.752">
      <stop
         id="stop270"
         stop-color="#a3a3a3"
         offset="0" />
      <stop
         id="stop271"
         stop-color="#4c4c4c"
         offset="1" />
    </radialGradient>
    <radialGradient
       id="radialGradient15658"
       gradientUnits="userSpaceOnUse"
       cy="35.737"
       cx="33.967"
       gradientTransform="matrix(.96384 0 0 1.0431 -.12482 -.15197)"
       r="86.708">
      <stop
         id="stop260"
         stop-color="#fafafa"
         offset="0" />
      <stop
         id="stop261"
         stop-color="#bbb"
         offset="1" />
    </radialGradient>
    <radialGradient
       id="radialGradient15668"
       gradientUnits="userSpaceOnUse"
       cy="7.2679"
       cx="8.1436"
       gradientTransform="matrix(.97478 0 0 1.0341 3.1619 .55927)"
       r="38.159">
      <stop
         id="stop15664"
         stop-color="#fff"
         offset="0" />
      <stop
         id="stop15666"
         stop-color="#f8f8f8"
         offset="1" />
    </radialGradient>
    <radialGradient
       id="radialGradient2462"
       gradientUnits="userSpaceOnUse"
       cy="47.401"
       cx="28.284"
       gradientTransform="scale(1.1642,0.85894)"
       r="13.804">
      <stop
         id="stop2458"
         offset="0" />
      <stop
         id="stop2460"
         stop-opacity="0"
         offset="1" />
    </radialGradient>
    <linearGradient
       inkscape:collect="always"
       xlink:href="#linearGradient6746"
       id="linearGradient3212"
       gradientUnits="userSpaceOnUse"
       x1="-20.75"
       y1="29"
       x2="-19.5"
       y2="18.75" />
    <linearGradient
       inkscape:collect="always"
       xlink:href="#linearGradient6746"
       id="linearGradient3214"
       gradientUnits="userSpaceOnUse"
       x1="-20.75"
       y1="29"
       x2="-19.5"
       y2="18.75" />
  </defs>
  <g
     id="layer1">
    <g
       id="g6707"
       transform="matrix(.021449 0 0 .020868 43.328 41.154)">
      <rect
         id="rect6709"
         opacity=".40206"
         style="color:black"
         height="478.36"
         width="1339.6"
         y="-150.7"
         x="-1559.3"
         fill="url(#linearGradient6715)" />
      <path
         id="path6711"
         opacity=".40206"
         style="color:black"
         fill="url(#radialGradient6717)"
         d="m-219.62-150.68v478.33c142.88 0.9 345.4-107.17 345.4-239.2 0-132.02-159.44-239.13-345.4-239.13z" />
      <path
         id="path6713"
         opacity=".40206"
         style="color:black"
         fill="url(#radialGradient6719)"
         d="m-1559.3-150.68v478.33c-142.8 0.9-345.4-107.17-345.4-239.2 0-132.02 159.5-239.13 345.4-239.13z" />
    </g>
    <rect
       id="rect15391"
       stroke-linejoin="round"
       style="color:#000000"
       display="block"
       rx="1.149"
       ry="1.149"
       height="40.997"
       width="34.997"
       stroke="url(#radialGradient15656)"
       stroke-linecap="round"
       y="3.5013"
       x="6.5017"
       fill="url(#radialGradient15658)" />
    <rect
       id="rect15660"
       stroke-linejoin="round"
       style="color:#000000"
       display="block"
       rx=".14905"
       ry=".14905"
       height="38.996"
       width="32.996"
       stroke="url(#radialGradient15668)"
       stroke-linecap="round"
       y="4.5018"
       x="7.5034"
       fill="none" />
    <path
       id="rect13655"
       fill-opacity=".21053"
       style="color:#000000"
       fill-rule="evenodd"
       d="m10 6.0022v35l10-0.002v-30h18v-4.9978h-28z" />
    <path
       id="path13660"
       d="m37.5 10.502h-27"
       stroke-opacity=".19298"
       fill-opacity=".15789"
       fill-rule="evenodd"
       stroke="#000"
       stroke-linecap="square"
       stroke-width="1px" />
    <path
       id="path13662"
       d="m37.501 16.5h-27.002"
       stroke-opacity=".19298"
       fill-opacity=".15789"
       fill-rule="evenodd"
       stroke="#000"
       stroke-linecap="square"
       stroke-width="1px" />
    <path
       id="path13664"
       d="m37.501 22.5h-27.002"
       stroke-opacity=".19298"
       fill-opacity=".15789"
       fill-rule="evenodd"
       stroke="#000"
       stroke-linecap="square"
       stroke-width="1px" />
    <path
       id="path13666"
       d="m37.501 28.5h-27.002"
       stroke-opacity=".19298"
       fill-opacity=".15789"
       fill-rule="evenodd"
       stroke="#000"
       stroke-linecap="square"
       stroke-width="1px" />
    <path
       id="path13668"
       d="m37.501 34.5h-27.001"
       stroke-opacity=".19298"
       fill-opacity=".15789"
       fill-rule="evenodd"
       stroke="#000"
       stroke-linecap="square"
       stroke-width="1px" />
    <path
       id="path13682"
       d="m37.501 40.5h-27.002"
       stroke-opacity=".19298"
       fill-opacity=".15789"
       fill-rule="evenodd"
       stroke="#000"
       stroke-linecap="square"
       stroke-width="1px" />
    <path
       id="path2464"
       d="m37.512 13.5h-27.012"
       stroke-opacity=".19298"
       fill-opacity=".15789"
       fill-rule="evenodd"
       stroke="#000"
       stroke-linecap="square"
       stroke-width="1px" />
    <path
       id="path2466"
       d="m37.501 19.5h-27.002"
       stroke-opacity=".19298"
       stroke="#000"
       stroke-linecap="square"
       stroke-width="1px"
       fill="none" />
    <path
       id="path2468"
       d="m37.501 25.5h-27.002"
       stroke-opacity=".19298"
       fill-opacity=".15789"
       fill-rule="evenodd"
       stroke="#000"
       stroke-linecap="square"
       stroke-width="1px" />
    <path
       id="path2470"
       d="m37.501 31.5h-27.002"
       stroke-opacity=".19298"
       fill-opacity=".15789"
       fill-rule="evenodd"
       stroke="#000"
       stroke-linecap="square"
       stroke-width="1px" />
    <path
       id="path2472"
       d="m37.501 37.5h-27.002"
       stroke-opacity=".19298"
       fill-opacity=".15789"
       fill-rule="evenodd"
       stroke="#000"
       stroke-linecap="square"
       stroke-width="1px" />
    <path
       id="path2485"
       d="m37.5 6.4997v34"
       stroke-opacity=".15789"
       stroke="#000"
       stroke-linecap="square"
       stroke-width="1px"
       fill="none" />
    <path
       id="path2487"
       d="m31.5 6.4997v34"
       stroke-opacity=".15789"
       stroke="#000"
       stroke-linecap="square"
       stroke-width="1px"
       fill="none" />
    <path
       id="path2489"
       d="m25.5 6.4997v34"
       stroke-opacity=".15789"
       stroke="#000"
       stroke-linecap="square"
       stroke-width="1px"
       fill="none" />
    <path
       id="path2491"
       d="m19.5 6.4997v34"
       stroke-opacity=".15789"
       stroke="#000"
       stroke-linecap="square"
       stroke-width="1px"
       fill="none" />
    <path
       id="path2493"
       d="m10.5 6.4997v34"
       stroke-opacity=".15789"
       stroke="#000"
       stroke-linecap="square"
       stroke-width="1px"
       fill="none" />
    <path
       id="path2495"
       d="m37.5 6.5022h-27.001"
       stroke-opacity=".19298"
       fill-opacity=".15789"
       fill-rule="evenodd"
       stroke="#000"
       stroke-linecap="square"
       stroke-width="1px" />
  </g>
  <g
     id="layer2"
     transform="translate(0.81355932,0)">
    <path
       id="path1693"
       transform="matrix(0.86167,0,0,0.85148,3.7605,2.0917)"
       d="m 49,40.714 a 16.0715,11.857369 0 1 1 -32.143,0 16.0715,11.857369 0 1 1 32.143,0 z"
       style="fill:url(#radialGradient2462);fill-rule:evenodd"
       inkscape:connector-curvature="0" />
    <g
       id="g6727"
       transform="translate(51,9.125)">
      <path
         id="path3931"
         d="m -27.529,18.093 c -2.569,1.698 -3.982,4.005 -3.982,6.498 v 2.069 c 0,2.491 1.413,4.798 3.982,6.497 2.427,1.603 5.634,2.487 9.03,2.487 3.394,0 6.601,-0.884 9.0288,-2.487 2.5678,-1.699 3.9817,-4.005 3.9817,-6.497 v -2.069 c 0,-2.493 -1.4146,-4.801 -3.9817,-6.498 -2.4268,-1.603 -5.6338,-2.487 -9.0288,-2.487 -3.396,0 -6.603,0.884 -9.03,2.487 z"
         inkscape:connector-curvature="0"
         style="fill:#670000" />
      <path
         id="path3933"
         d="m -7.0244,24.454 c -1.3786,-3.387 -6.0526,-5.881 -11.613,-5.881 -5.559,0 -10.234,2.494 -11.612,5.881 h -0.415 v 2.07 c 0,4.39 5.385,7.948 12.027,7.948 6.643,0 12.027,-3.558 12.027,-7.948 l -3e-4,-2.07 h -0.4141 z"
         inkscape:connector-curvature="0"
         style="fill:#a40000" />
      <path
         id="path3935"
         d="m -6.6103,24.454 c 0,4.39 -5.3837,7.949 -12.027,7.949 -6.642,0 -12.027,-3.559 -12.027,-7.949 0,-4.391 5.385,-7.95 12.027,-7.95 6.643,0 12.027,3.559 12.027,7.95 h -3e-4 z"
         style="fill:url(#linearGradient6738)"
         inkscape:connector-curvature="0" />
      <path
         id="path3937"
         d="m -6.6103,26.833 -0.0154,-2.166 c -1.3041,4.5 -4.2363,6.407 -7.9233,7.341 v 1.994 c 3.99,-1.004 7.5618,-3.289 7.9387,-7.169 z"
         inkscape:connector-curvature="0"
         style="fill:#204a87" />
      <path
         id="path3939"
         d="m -6.6103,24.454 c -0.2754,5.079 -6.5577,7.395 -7.9617,7.484 l -4.065,-7.484 H -6.61 z"
         style="fill:url(#linearGradient6740)"
         inkscape:connector-curvature="0" />
      <path
         id="path3941"
         d="m -21.154,34.298 v -2.069 c 2.263,0.295 4.34,0.347 6.582,-0.214 l 0.023,1.988 c -1.88,0.616 -4.82,0.645 -6.605,0.296 v -10e-4 z"
         inkscape:connector-curvature="0"
         style="fill:#4e9a06" />
      <path
         id="path3943"
         d="m -18.637,24.454 4.065,7.484 c -2.489,0.949 -6.582,0.291 -6.582,0.291 l 2.517,-7.775 z"
         style="fill:url(#linearGradient6742)"
         inkscape:connector-curvature="0" />
      <path
         id="path5959"
         style="opacity:0.31111001;color:#000000;fill:none;stroke:url(#linearGradient3212);stroke-width:1.02079999;display:block"
         d="m -6.875,24.375 a 11.75,7.75 0 1 1 -23.5,0 11.75,7.75 0 1 1 23.5,0 z"
         transform="matrix(0.97959,0,0,0.97959,-0.3801,0.49745)"
         display="block"
         inkscape:connector-curvature="0" />
      <path
         id="path6707"
         style="opacity:0.13332998;color:#000000;fill:none;stroke:url(#linearGradient3214);stroke-width:1.02079999;display:block"
         d="m -6.875,24.375 a 11.75,7.75 0 1 1 -23.5,0 11.75,7.75 0 1 1 23.5,0 z"
         transform="matrix(0.97959,0,0,0.97959,-0.3801,2.4974)"
         display="block"
         inkscape:connector-curvature="0" />
    </g>
  </g>
  <metadata
     id="metadata3845">
    <rdf:RDF>
      <cc:Work>
        <dc:format>image/svg+xml</dc:format>
        <dc:type
           rdf:resource="http://purl.org/dc/dcmitype/StillImage" />
        <cc:license
           rdf:resource="http://creativecommons.org/publicdomain/zero/1.0/" />
        <dc:publisher>
          <cc:Agent
             rdf:about="http://openclipart.org/">
            <dc:title>Openclipart</dc:title>
          </cc:Agent>
        </dc:publisher>
        <dc:title />
      </cc:Work>
      <cc:License
         rdf:about="http://creativecommons.org/licenses/publicdomain/">
        <cc:permits
           rdf:resource="http://creativecommons.org/ns#Reproduction" />
        <cc:permits
           rdf:resource="http://creativecommons.org/ns#Distribution" />
        <cc:permits
           rdf:resource="http://creativecommons.org/ns#DerivativeWorks" />
      </cc:License>
    </rdf:RDF>
  </metadata>
</svg>
