<?xml version="1.0" encoding="UTF-8" standalone="no"?>
<!-- Generator: Adobe Illustrator 12.0.0, SVG Export Plug-In  -->

<svg
   xmlns:dc="http://purl.org/dc/elements/1.1/"
   xmlns:cc="http://creativecommons.org/ns#"
   xmlns:rdf="http://www.w3.org/1999/02/22-rdf-syntax-ns#"
   xmlns:svg="http://www.w3.org/2000/svg"
   xmlns="http://www.w3.org/2000/svg"
   xmlns:xlink="http://www.w3.org/1999/xlink"
   xmlns:sodipodi="http://sodipodi.sourceforge.net/DTD/sodipodi-0.dtd"
   xmlns:inkscape="http://www.inkscape.org/namespaces/inkscape"
   version="1.1"
   width="502"
   height="502"
   viewBox="0 0 502 502"
   enable-background="new 0 0 448 433"
   xml:space="preserve"
   id="svg2"
   sodipodi:version="0.32"
   inkscape:version="0.92.4 (5da689c313, 2019-01-14)"
   sodipodi:docname="warning.svg"
   inkscape:output_extension="org.inkscape.output.svg.inkscape"
   inkscape:export-filename="Z:\Resources\ReadabilityStudio\sidebar\warning.png"
   inkscape:export-xdpi="49.009178"
   inkscape:export-ydpi="49.009178"><metadata
     id="metadata28"><rdf:RDF><cc:Work
         rdf:about=""><dc:format>image/svg+xml</dc:format><dc:type
           rdf:resource="http://purl.org/dc/dcmitype/StillImage" /><dc:title></dc:title></cc:Work></rdf:RDF></metadata><sodipodi:namedview
     inkscape:window-height="705"
     inkscape:window-width="1024"
     inkscape:pageshadow="2"
     inkscape:pageopacity="0.0"
     guidetolerance="10.0"
     gridtolerance="10.0"
     objecttolerance="10.0"
     borderopacity="1.0"
     bordercolor="#666666"
     pagecolor="#ffffff"
     id="base"
     inkscape:zoom="0.94688222"
     inkscape:cx="215.04286"
     inkscape:cy="262.9544"
     inkscape:window-x="-8"
     inkscape:window-y="-8"
     inkscape:current-layer="svg2"
     showgrid="false"
     fit-margin-top="0"
     fit-margin-left="0"
     fit-margin-right="0"
     fit-margin-bottom="0"
     inkscape:window-maximized="1" /><defs
     id="defs4"><linearGradient
       id="linearGradient2847"><stop
         style="stop-color:#ffea95;stop-opacity:1;"
         offset="0"
         id="stop2849" /><stop
         id="stop2855"
         offset="0.6785714"
         style="stop-color:#ffea95;stop-opacity:0.49803922;" /><stop
         style="stop-color:#ffea95;stop-opacity:0;"
         offset="1"
         id="stop2851" /></linearGradient><radialGradient
       id="XMLID_1_"
       cx="216.7041"
       cy="393.79489"
       r="296.69681"
       gradientUnits="userSpaceOnUse"
       gradientTransform="translate(29.514247,44.461411)">
			<stop
   offset="0"
   style="stop-color:#F4D708"
   id="stop13" />
			<stop
   offset="1"
   style="stop-color:#FCB400"
   id="stop15" />
		</radialGradient><filter
       inkscape:collect="always"
       id="filter2827"><feGaussianBlur
         inkscape:collect="always"
         stdDeviation="3.4898235"
         id="feGaussianBlur2829" /></filter><filter
       inkscape:collect="always"
       x="-0.13472563"
       width="1.2694513"
       y="-0.13196953"
       height="1.263939"
       id="filter3266"><feGaussianBlur
         inkscape:collect="always"
         stdDeviation="10.372821"
         id="feGaussianBlur3268" /></filter><radialGradient
       inkscape:collect="always"
       xlink:href="#linearGradient2847"
       id="radialGradient3274"
       gradientUnits="userSpaceOnUse"
       gradientTransform="matrix(0.7807054,1.815188,-1.0895528,0.468612,5.3129276,789.46881)"
       cx="-409.76584"
       cy="87.349915"
       fx="-409.76584"
       fy="87.349915"
       r="92.390625" /><filter
       inkscape:collect="always"
       x="-0.068350405"
       width="1.1367007"
       y="-0.86282587"
       height="2.7256517"
       id="filter3310"><feGaussianBlur
         inkscape:collect="always"
         stdDeviation="10.210732"
         id="feGaussianBlur3312" /></filter></defs><path
     style="opacity:0.28999999;fill:#000000;stroke:none;stroke-width:5;filter:url(#filter2827)"
     id="path2181"
     d="M 51.794518,441.29499 236.64652,72.492996 c 0,0 26.409,-31.504 52.815,0 26.408,31.506004 180.192,370.653994 180.192,370.653994 0,0 3.105,18.534 -27.961,18.534 -31.066,0 -361.938002,0 -361.938002,0 0,0 -23.3,-0.002 -27.96,-20.386 z"
     inkscape:connector-curvature="0" /><path
     d="M 38.065247,434.95841 222.91725,66.156411 c 0,0 26.409,-31.504 52.815,0 26.408,31.506 180.192,370.653999 180.192,370.653999 0,0 3.105,18.534 -27.961,18.534 -31.066,0 -361.938003,0 -361.938003,0 0,0 -23.3,-0.002 -27.96,-20.386 z"
     id="path17"
     style="fill:url(#XMLID_1_)"
     inkscape:connector-curvature="0" /><path
     d="M 38.065247,434.95841 222.91725,66.156411 c 0,0 26.409,-31.504 52.815,0 26.408,31.506 180.192,370.653999 180.192,370.653999 0,0 3.105,18.534 -27.961,18.534 -31.066,0 -361.938003,0 -361.938003,0 0,0 -23.3,-0.002 -27.96,-20.386 z"
     id="path19"
     style="fill:none;stroke:#e2a713;stroke-width:5"
     inkscape:connector-curvature="0" /><g
     id="g3270"
     transform="translate(641.21913,46.573606)"><path
       transform="translate(-6.3365854,-7.3926829)"
       d="m -392.05078,28.943359 c -0.11588,0.200897 -0.3231,0.565231 -0.59375,1.052735 0.51204,-0.668601 0.53966,-0.915237 0.59375,-1.052735 z m 5.64258,0.738282 c 0.0332,0.05684 0.47969,0.448774 0.56445,0.550781 -0.0479,-0.0774 -0.20066,-0.350354 -0.23633,-0.40625 -0.14311,-0.22428 -0.48474,-0.412323 -0.32812,-0.144531 z m -1.74024,0.947265 c -1.72177,-0.119221 -3.93974,0.608624 -5.55664,1.330078 -0.79475,1.464063 -1.60264,2.954706 -2.8125,5.236328 -3.21764,6.06801 -7.75251,14.743097 -13.13281,25.111329 -10.76059,20.736463 -24.92529,48.279299 -39.01758,75.830079 -10.20214,19.94545 -19.1313,37.56948 -27.94336,54.95508 8.95724,-3.34281 18.09737,-6.09763 27.36328,-8.10157 20.01668,-4.329 46.21131,-4.37778 66.04297,0.0625 15.51059,3.47282 28.25809,8.19306 48.1875,17.55665 8.75027,4.1112 20.15806,9.0546 22.0332,9.75781 7.61402,2.85538 15.00699,4.61331 20.1836,5.20117 0.35558,0.0404 0.60303,-0.007 0.9375,0.01 l 0.002,-0.0664 -45.66211,-92.15625 v -0.002 c -18.07885,-36.480651 -30.22005,-60.747455 -38.04492,-75.972661 -3.91252,-7.612759 -6.76246,-12.988541 -8.61133,-16.296875 -0.31364,-0.561234 -0.39133,-0.667427 -0.64453,-1.105468 -0.69713,-0.432153 -1.50737,-0.946092 -1.72851,-1.03125 -0.31134,-0.119889 -0.87313,-0.268326 -1.59571,-0.31836 z"
       id="path2845"
       style="fill:url(#radialGradient3274);fill-opacity:1;filter:url(#filter3266)"
       inkscape:original="M -386.78125 10.875 C -394.47915 10.34197 -402.82267 12.896508 -408.46875 17.875 C -410.7164 19.85688 -522.43751 238.27376 -522.4375 240.6875 C -522.4375 241.16277 -519.17501 239.15343 -515.1875 236.21875 C -494.1524 220.73755 -469.87299 209.7095 -445.0625 204.34375 C -429.9802 201.0819 -402.15183 201.10147 -387.53125 204.375 C -373.32902 207.55487 -362.82798 211.42088 -343.4375 220.53125 C -334.3625 224.79503 -323.78751 229.46245 -319.9375 230.90625 C -302.0363 237.61949 -285.17114 239.52804 -278.71875 235.59375 C -273.57873 232.45968 -272.30962 229.6224 -272.125 220.875 L -271.96875 213.0625 L -319.78125 116.5625 C -355.96934 43.539862 -368.39425 19.38115 -370.78125 17.3125 C -372.51619 15.80894 -376.41251 13.6336 -379.4375 12.46875 C -381.73091 11.585615 -384.21528 11.052677 -386.78125 10.875 z "
       inkscape:radius="-19.800472"
       sodipodi:type="inkscape:offset" /></g><path
     d="m 242.01025,337.09341 c -13.168,-79.969 -19.75,-123.121 -19.75,-129.453 0,-7.703 2.551,-13.926 7.66,-18.676 5.105,-4.746 10.871,-7.121 17.293,-7.121 6.949,0 12.82,2.535 17.609,7.598 4.789,5.063 7.188,11.023 7.188,17.883 0,6.543 -6.668,49.801 -20,129.77 h -10 z m 27,38.172 c 0,6.098 -2.156,11.301 -6.469,15.613 -4.313,4.309 -9.461,6.465 -15.453,6.465 -6.098,0 -11.301,-2.156 -15.613,-6.465 -4.313,-4.313 -6.465,-9.516 -6.465,-15.613 0,-5.992 2.152,-11.141 6.465,-15.453 4.313,-4.312 9.516,-6.469 15.613,-6.469 5.992,0 11.141,2.156 15.453,6.469 4.312,4.313 6.469,9.461 6.469,15.453 z"
     id="path25"
     inkscape:connector-curvature="0" /><path
     d="m -245.48047,358.14844 c -9.3484,0.0177 -19.03172,0.64383 -29.67969,1.8125 -26.10808,2.86549 -50.47175,10.0092 -70.77539,20.58789 -1.58307,0.82482 -2.02666,1.16426 -3.12695,1.77929 0.0761,0.004 0.109,0.006 0.18555,0.01 9.30901,0.44787 21.7393,1.00621 34.74414,1.56445 26.00967,1.11649 54.46555,2.23665 64.57617,2.48243 17.49293,0.42522 77.95574,0.0283 127.36133,-0.51758 -8.64425,-2.45884 -18.26793,-5.43943 -29.94531,-9.32031 -39.78844,-13.22338 -65.27443,-18.45147 -93.33985,-18.39844 z M 5.1914062,368.69531 c -4.7501757,5.36578 -10.8673064,9.84526 -17.5839842,13.60938 10.7422577,-0.65967 17.7857891,-1.17185 21.8632811,-1.50391 -0.976652,-4.52755 -2.5285749,-8.73535 -4.2792969,-12.10547 z"
     id="path3280"
     style="fill:#ffea96;fill-opacity:1;filter:url(#filter3310)"
     inkscape:original="M -245.5 347.59375 C -255.30594 347.61228 -265.3806 348.26892 -276.3125 349.46875 C -303.59685 352.46334 -329.17586 359.91429 -350.8125 371.1875 C -358.78876 375.34333 -362.09366 377.67406 -364.5625 380.9375 C -368.56226 386.22458 -369.01864 391.26478 -365.5625 391.96875 C -363.15211 392.45969 -270.6159 396.43179 -249.8125 396.9375 C -222.99401 397.58942 -86.051599 396.62267 -63.8125 395.625 C -33.79685 394.27845 10.248421 391.67597 16.5625 390.875 L 21.4375 390.25 L 20.8125 384.15625 C 19.63891 372.87821 15.07248 361.80518 9.15625 355.8125 C 5.23832 351.84394 3.6797201 351.73716 1.8125 355.3125 C -1.89313 362.40797 -13.13747 371.54674 -24.40625 376.65625 C -36.45728 382.12044 -46.383363 383.93418 -64.8125 383.96875 C -90.3477 384.01664 -106.03808 380.74699 -148.8125 366.53125 C -189.10294 353.14104 -216.08219 347.53817 -245.5 347.59375 z "
     inkscape:radius="-10.555089"
     sodipodi:type="inkscape:offset"
     transform="translate(419.21425,55.022389)" /></svg>