<?xml version="1.0" encoding="UTF-8" standalone="no"?>
<svg
   xmlns:dc="http://purl.org/dc/elements/1.1/"
   xmlns:cc="http://creativecommons.org/ns#"
   xmlns:rdf="http://www.w3.org/1999/02/22-rdf-syntax-ns#"
   xmlns:svg="http://www.w3.org/2000/svg"
   xmlns="http://www.w3.org/2000/svg"
   xmlns:xlink="http://www.w3.org/1999/xlink"
   xmlns:sodipodi="http://sodipodi.sourceforge.net/DTD/sodipodi-0.dtd"
   xmlns:inkscape="http://www.inkscape.org/namespaces/inkscape"
   id="svg249"
   viewBox="0 0 45 45"
   version="1.1"
   sodipodi:docname="web-export.svg"
   width="45"
   height="45"
   inkscape:version="0.92.4 (5da689c313, 2019-01-14)"
   inkscape:export-filename="Z:\Resources\ReadabilityStudio\ribbon\webexport.png"
   inkscape:export-xdpi="548.01843"
   inkscape:export-ydpi="548.01843">
  <sodipodi:namedview
     pagecolor="#ffffff"
     bordercolor="#666666"
     borderopacity="1"
     objecttolerance="10"
     gridtolerance="10"
     guidetolerance="10"
     inkscape:pageopacity="0"
     inkscape:pageshadow="2"
     inkscape:window-width="1024"
     inkscape:window-height="705"
     id="namedview22499"
     showgrid="false"
     inkscape:pagecheckerboard="true"
     fit-margin-top="0"
     fit-margin-left="0"
     fit-margin-right="0"
     fit-margin-bottom="0"
     inkscape:zoom="4.9166667"
     inkscape:cx="-7.7368699"
     inkscape:cy="23.991609"
     inkscape:window-x="-8"
     inkscape:window-y="-8"
     inkscape:window-maximized="1"
     inkscape:current-layer="svg249" />
  <defs
     id="defs3">
    <radialGradient
       id="radialGradient6719"
       xlink:href="#linearGradient5060"
       gradientUnits="userSpaceOnUse"
       cy="486.64999"
       cx="605.71002"
       gradientTransform="matrix(-2.7744,0,0,1.9697,112.76,-872.89)"
       r="117.14" />
    <linearGradient
       id="linearGradient5060">
      <stop
         id="stop5062"
         offset="0" />
      <stop
         id="stop5064"
         stop-opacity="0"
         offset="1" />
    </linearGradient>
    <radialGradient
       id="radialGradient6717"
       xlink:href="#linearGradient5060"
       gradientUnits="userSpaceOnUse"
       cy="486.64999"
       cx="605.71002"
       gradientTransform="matrix(2.7744,0,0,1.9697,-1891.6,-872.89)"
       r="117.14" />
    <linearGradient
       id="linearGradient6715"
       x1="302.85999"
       gradientUnits="userSpaceOnUse"
       y1="366.64999"
       gradientTransform="matrix(2.7744,0,0,1.9697,-1892.2,-872.89)"
       x2="302.85999"
       y2="609.51001">
      <stop
         id="stop5050"
         stop-opacity="0"
         offset="0" />
      <stop
         id="stop5056"
         offset=".5" />
      <stop
         id="stop5052"
         stop-opacity="0"
         offset="1" />
    </linearGradient>
    <radialGradient
       id="radialGradient15656"
       gradientUnits="userSpaceOnUse"
       cy="3.7560999"
       cx="8.8243999"
       gradientTransform="matrix(0.96827,0,0,1.0328,3.3536,0.64645)"
       r="37.751999">
      <stop
         id="stop270"
         stop-color="#a3a3a3"
         offset="0" />
      <stop
         id="stop271"
         stop-color="#4c4c4c"
         offset="1" />
    </radialGradient>
    <radialGradient
       id="radialGradient15658"
       gradientUnits="userSpaceOnUse"
       cy="35.737"
       cx="33.966999"
       gradientTransform="scale(0.96049,1.0411)"
       r="86.708">
      <stop
         id="stop260"
         stop-color="#fafafa"
         offset="0" />
      <stop
         id="stop261"
         stop-color="#bbb"
         offset="1" />
    </radialGradient>
    <radialGradient
       id="radialGradient15668"
       gradientUnits="userSpaceOnUse"
       cy="7.2679"
       cx="8.1436005"
       gradientTransform="matrix(0.96827,0,0,1.0328,3.3536,0.64645)"
       r="38.159">
      <stop
         id="stop15664"
         stop-color="#fff"
         offset="0" />
      <stop
         id="stop15666"
         stop-color="#f8f8f8"
         offset="1" />
    </radialGradient>
    <radialGradient
       id="radialGradient2283"
       gradientUnits="userSpaceOnUse"
       cy="114.57"
       cx="20.892"
       gradientTransform="matrix(0.2297,0,0,0.2297,4.6135,3.9798)"
       r="5.256">
      <stop
         id="stop15566"
         stop-color="#F0F0F0"
         offset="0" />
      <stop
         id="stop15568"
         stop-color="#9a9a9a"
         offset="1" />
    </radialGradient>
    <radialGradient
       id="radialGradient2285"
       gradientUnits="userSpaceOnUse"
       cy="64.568001"
       cx="20.892"
       gradientTransform="matrix(0.2297,0,0,0.2297,4.6135,3.9798)"
       r="5.257">
      <stop
         id="stop15573"
         stop-color="#F0F0F0"
         offset="0" />
      <stop
         id="stop15575"
         stop-color="#9a9a9a"
         offset="1" />
    </radialGradient>
    <radialGradient
       id="radialGradient7214"
       fx="18.934"
       fy="17.809999"
       gradientUnits="userSpaceOnUse"
       cy="17.486"
       cx="18.634001"
       gradientTransform="scale(1.0368,0.96449)"
       r="40.693001">
      <stop
         id="stop4752"
         stop-color="#fff"
         offset="0" />
      <stop
         id="stop4758"
         stop-color="#fefefe"
         offset=".37931" />
      <stop
         id="stop4754"
         stop-color="#1d1d1d"
         offset="1" />
    </radialGradient>
    <radialGradient
       id="radialGradient7422"
       gradientUnits="userSpaceOnUse"
       cy="63.965"
       cx="15.116"
       gradientTransform="scale(1.644,0.60828)"
       r="12.289">
      <stop
         id="stop4116"
         offset="0" />
      <stop
         id="stop4118"
         stop-opacity="0"
         offset="1" />
    </radialGradient>
    <radialGradient
       id="radialGradient7424"
       gradientUnits="userSpaceOnUse"
       cy="15.716"
       cx="18.247999"
       gradientTransform="matrix(0.58713,0,0,0.58714,11.299,10.43)"
       r="29.993">
      <stop
         id="stop3964"
         stop-color="#d3e9ff"
         offset="0" />
      <stop
         id="stop4134"
         stop-color="#d3e9ff"
         offset=".15517" />
      <stop
         id="stop4346"
         stop-color="#4074ae"
         offset=".75" />
      <stop
         id="stop3966"
         stop-color="#36486c"
         offset="1" />
    </radialGradient>
    <radialGradient
       id="radialGradient7426"
       gradientUnits="userSpaceOnUse"
       cy="10.476"
       cx="11.827"
       gradientTransform="scale(1.1795,0.84779)"
       r="32.665001">
      <stop
         id="stop4352"
         stop-color="#fff"
         offset="0" />
      <stop
         id="stop4354"
         stop-color="#fff"
         stop-opacity="0"
         offset="1" />
    </radialGradient>
    <radialGradient
       id="radialGradient7456"
       gradientUnits="userSpaceOnUse"
       cy="12.142"
       cx="15.601"
       gradientTransform="matrix(0.58713,0,0,0.58714,11.299,10.43)"
       r="43.527">
      <stop
         id="stop4128"
         stop-color="#fff"
         offset="0" />
      <stop
         id="stop4130"
         stop-color="#fff"
         stop-opacity=".16495"
         offset="1" />
    </radialGradient>
    <radialGradient
       inkscape:collect="always"
       xlink:href="#radialGradient7214"
       id="radialGradient23044"
       gradientUnits="userSpaceOnUse"
       gradientTransform="scale(1.0368,0.96449)"
       cx="18.634001"
       cy="17.486"
       fx="18.934"
       fy="17.809999"
       r="40.693001" />
    <radialGradient
       inkscape:collect="always"
       xlink:href="#radialGradient7214"
       id="radialGradient23046"
       gradientUnits="userSpaceOnUse"
       gradientTransform="scale(1.0368,0.96449)"
       cx="18.634001"
       cy="17.486"
       fx="18.934"
       fy="17.809999"
       r="40.693001" />
    <radialGradient
       inkscape:collect="always"
       xlink:href="#radialGradient7214"
       id="radialGradient23048"
       gradientUnits="userSpaceOnUse"
       gradientTransform="scale(1.0368,0.96449)"
       cx="18.634001"
       cy="17.486"
       fx="18.934"
       fy="17.809999"
       r="40.693001" />
    <radialGradient
       inkscape:collect="always"
       xlink:href="#radialGradient7214"
       id="radialGradient23050"
       gradientUnits="userSpaceOnUse"
       gradientTransform="scale(1.0368,0.96449)"
       cx="18.634001"
       cy="17.486"
       fx="18.934"
       fy="17.809999"
       r="40.693001" />
    <radialGradient
       inkscape:collect="always"
       xlink:href="#radialGradient7214"
       id="radialGradient23052"
       gradientUnits="userSpaceOnUse"
       gradientTransform="scale(1.0368,0.96449)"
       cx="18.634001"
       cy="17.486"
       fx="18.934"
       fy="17.809999"
       r="40.693001" />
    <radialGradient
       inkscape:collect="always"
       xlink:href="#radialGradient7214"
       id="radialGradient23054"
       gradientUnits="userSpaceOnUse"
       gradientTransform="scale(1.0368,0.96449)"
       cx="18.634001"
       cy="17.486"
       fx="18.934"
       fy="17.809999"
       r="40.693001" />
    <radialGradient
       inkscape:collect="always"
       xlink:href="#radialGradient7214"
       id="radialGradient23056"
       gradientUnits="userSpaceOnUse"
       gradientTransform="scale(1.0368,0.96449)"
       cx="18.634001"
       cy="17.486"
       fx="18.934"
       fy="17.809999"
       r="40.693001" />
    <radialGradient
       inkscape:collect="always"
       xlink:href="#radialGradient7214"
       id="radialGradient23058"
       gradientUnits="userSpaceOnUse"
       gradientTransform="scale(1.0368,0.96449)"
       cx="18.634001"
       cy="17.486"
       fx="18.934"
       fy="17.809999"
       r="40.693001" />
    <radialGradient
       inkscape:collect="always"
       xlink:href="#radialGradient7214"
       id="radialGradient23060"
       gradientUnits="userSpaceOnUse"
       gradientTransform="scale(1.0368,0.96449)"
       cx="18.634001"
       cy="17.486"
       fx="18.934"
       fy="17.809999"
       r="40.693001" />
    <radialGradient
       inkscape:collect="always"
       xlink:href="#radialGradient7214"
       id="radialGradient23062"
       gradientUnits="userSpaceOnUse"
       gradientTransform="scale(1.0368,0.96449)"
       cx="18.634001"
       cy="17.486"
       fx="18.934"
       fy="17.809999"
       r="40.693001" />
    <radialGradient
       inkscape:collect="always"
       xlink:href="#radialGradient7214"
       id="radialGradient23064"
       gradientUnits="userSpaceOnUse"
       gradientTransform="scale(1.0368,0.96449)"
       cx="18.634001"
       cy="17.486"
       fx="18.934"
       fy="17.809999"
       r="40.693001" />
    <radialGradient
       inkscape:collect="always"
       xlink:href="#radialGradient7214"
       id="radialGradient23066"
       gradientUnits="userSpaceOnUse"
       gradientTransform="scale(1.0368,0.96449)"
       cx="18.634001"
       cy="17.486"
       fx="18.934"
       fy="17.809999"
       r="40.693001" />
    <radialGradient
       inkscape:collect="always"
       xlink:href="#radialGradient7214"
       id="radialGradient23068"
       gradientUnits="userSpaceOnUse"
       gradientTransform="scale(1.0368,0.96449)"
       cx="18.634001"
       cy="17.486"
       fx="18.934"
       fy="17.809999"
       r="40.693001" />
    <radialGradient
       inkscape:collect="always"
       xlink:href="#radialGradient7214"
       id="radialGradient23070"
       gradientUnits="userSpaceOnUse"
       gradientTransform="scale(1.0368,0.96449)"
       cx="18.634001"
       cy="17.486"
       fx="18.934"
       fy="17.809999"
       r="40.693001" />
    <radialGradient
       inkscape:collect="always"
       xlink:href="#radialGradient7214"
       id="radialGradient23072"
       gradientUnits="userSpaceOnUse"
       gradientTransform="scale(1.0368,0.96449)"
       cx="18.634001"
       cy="17.486"
       fx="18.934"
       fy="17.809999"
       r="40.693001" />
    <radialGradient
       inkscape:collect="always"
       xlink:href="#radialGradient7214"
       id="radialGradient23074"
       gradientUnits="userSpaceOnUse"
       gradientTransform="scale(1.0368,0.96449)"
       cx="18.634001"
       cy="17.486"
       fx="18.934"
       fy="17.809999"
       r="40.693001" />
    <radialGradient
       inkscape:collect="always"
       xlink:href="#radialGradient7214"
       id="radialGradient23076"
       gradientUnits="userSpaceOnUse"
       gradientTransform="scale(1.0368,0.96449)"
       cx="18.634001"
       cy="17.486"
       fx="18.934"
       fy="17.809999"
       r="40.693001" />
    <radialGradient
       inkscape:collect="always"
       xlink:href="#radialGradient7214"
       id="radialGradient23078"
       gradientUnits="userSpaceOnUse"
       gradientTransform="scale(1.0368,0.96449)"
       cx="18.634001"
       cy="17.486"
       fx="18.934"
       fy="17.809999"
       r="40.693001" />
    <radialGradient
       inkscape:collect="always"
       xlink:href="#radialGradient7214"
       id="radialGradient23080"
       gradientUnits="userSpaceOnUse"
       gradientTransform="scale(1.0368,0.96449)"
       cx="18.634001"
       cy="17.486"
       fx="18.934"
       fy="17.809999"
       r="40.693001" />
    <radialGradient
       inkscape:collect="always"
       xlink:href="#radialGradient7214"
       id="radialGradient23082"
       gradientUnits="userSpaceOnUse"
       gradientTransform="scale(1.0368,0.96449)"
       cx="18.634001"
       cy="17.486"
       fx="18.934"
       fy="17.809999"
       r="40.693001" />
    <radialGradient
       inkscape:collect="always"
       xlink:href="#radialGradient7214"
       id="radialGradient23084"
       gradientUnits="userSpaceOnUse"
       gradientTransform="scale(1.0368,0.96449)"
       cx="18.634001"
       cy="17.486"
       fx="18.934"
       fy="17.809999"
       r="40.693001" />
    <radialGradient
       inkscape:collect="always"
       xlink:href="#radialGradient7214"
       id="radialGradient23086"
       gradientUnits="userSpaceOnUse"
       gradientTransform="scale(1.0368,0.96449)"
       cx="18.634001"
       cy="17.486"
       fx="18.934"
       fy="17.809999"
       r="40.693001" />
    <radialGradient
       inkscape:collect="always"
       xlink:href="#radialGradient7214"
       id="radialGradient23088"
       gradientUnits="userSpaceOnUse"
       gradientTransform="scale(1.0368,0.96449)"
       cx="18.634001"
       cy="17.486"
       fx="18.934"
       fy="17.809999"
       r="40.693001" />
    <radialGradient
       inkscape:collect="always"
       xlink:href="#radialGradient7214"
       id="radialGradient23090"
       gradientUnits="userSpaceOnUse"
       gradientTransform="scale(1.0368,0.96449)"
       cx="18.634001"
       cy="17.486"
       fx="18.934"
       fy="17.809999"
       r="40.693001" />
    <radialGradient
       inkscape:collect="always"
       xlink:href="#radialGradient7214"
       id="radialGradient23092"
       gradientUnits="userSpaceOnUse"
       gradientTransform="scale(1.0368,0.96449)"
       cx="18.634001"
       cy="17.486"
       fx="18.934"
       fy="17.809999"
       r="40.693001" />
    <radialGradient
       inkscape:collect="always"
       xlink:href="#radialGradient7214"
       id="radialGradient23094"
       gradientUnits="userSpaceOnUse"
       gradientTransform="scale(1.0368,0.96449)"
       cx="18.634001"
       cy="17.486"
       fx="18.934"
       fy="17.809999"
       r="40.693001" />
    <radialGradient
       inkscape:collect="always"
       xlink:href="#radialGradient7214"
       id="radialGradient23096"
       gradientUnits="userSpaceOnUse"
       gradientTransform="scale(1.0368,0.96449)"
       cx="18.634001"
       cy="17.486"
       fx="18.934"
       fy="17.809999"
       r="40.693001" />
    <radialGradient
       inkscape:collect="always"
       xlink:href="#radialGradient7214"
       id="radialGradient23098"
       gradientUnits="userSpaceOnUse"
       gradientTransform="scale(1.0368,0.96449)"
       cx="18.634001"
       cy="17.486"
       fx="18.934"
       fy="17.809999"
       r="40.693001" />
    <radialGradient
       inkscape:collect="always"
       xlink:href="#radialGradient7214"
       id="radialGradient23100"
       gradientUnits="userSpaceOnUse"
       gradientTransform="scale(1.0368,0.96449)"
       cx="18.634001"
       cy="17.486"
       fx="18.934"
       fy="17.809999"
       r="40.693001" />
    <radialGradient
       inkscape:collect="always"
       xlink:href="#radialGradient7214"
       id="radialGradient23102"
       gradientUnits="userSpaceOnUse"
       gradientTransform="scale(1.0368,0.96449)"
       cx="18.634001"
       cy="17.486"
       fx="18.934"
       fy="17.809999"
       r="40.693001" />
    <radialGradient
       inkscape:collect="always"
       xlink:href="#radialGradient7214"
       id="radialGradient23104"
       gradientUnits="userSpaceOnUse"
       gradientTransform="scale(1.0368,0.96449)"
       cx="18.634001"
       cy="17.486"
       fx="18.934"
       fy="17.809999"
       r="40.693001" />
    <radialGradient
       inkscape:collect="always"
       xlink:href="#radialGradient7214"
       id="radialGradient23106"
       gradientUnits="userSpaceOnUse"
       gradientTransform="scale(1.0368,0.96449)"
       cx="18.634001"
       cy="17.486"
       fx="18.934"
       fy="17.809999"
       r="40.693001" />
    <radialGradient
       inkscape:collect="always"
       xlink:href="#radialGradient7214"
       id="radialGradient23108"
       gradientUnits="userSpaceOnUse"
       gradientTransform="scale(1.0368,0.96449)"
       cx="18.634001"
       cy="17.486"
       fx="18.934"
       fy="17.809999"
       r="40.693001" />
  </defs>
  <g
     id="layer6"
     transform="translate(-1.7654906,-2.9916072)">
    <g
       id="g6707"
       transform="matrix(0.021055,0,0,0.020868,42.852,41.154)">
      <rect
         id="rect6709"
         style="color:#000000;opacity:0.40206;fill:url(#linearGradient6715)"
         height="478.35999"
         width="1339.6"
         y="-150.7"
         x="-1559.3" />
      <path
         id="path6711"
         style="color:#000000;opacity:0.40206;fill:url(#radialGradient6717)"
         d="m -219.62,-150.68 v 478.33 c 142.88,0.9 345.4,-107.17 345.4,-239.2 0,-132.02 -159.44,-239.13 -345.4,-239.13 z"
         inkscape:connector-curvature="0" />
      <path
         id="path6713"
         style="color:#000000;opacity:0.40206;fill:url(#radialGradient6719)"
         d="m -1559.3,-150.68 v 478.33 c -142.8,0.9 -345.4,-107.17 -345.4,-239.2 0,-132.02 159.5,-239.13 345.4,-239.13 z"
         inkscape:connector-curvature="0" />
    </g>
  </g>
  <g
     id="layer1"
     transform="translate(-1.7654906,-2.9916072)">
    <rect
       id="rect15391"
       style="color:#000000;display:block;fill:url(#radialGradient15658);stroke:url(#radialGradient15656);stroke-linecap:round;stroke-linejoin:round"
       display="block"
       ry="1.149"
       height="40.919998"
       width="34.875"
       y="3.6464"
       x="6.6036" />
    <rect
       id="rect15660"
       style="color:#000000;display:block;fill:none;stroke:url(#radialGradient15668);stroke-linecap:round;stroke-linejoin:round"
       display="block"
       rx="0.14905"
       ry="0.14905"
       height="38.945999"
       width="32.776001"
       y="4.5839"
       x="7.6661" />
    <g
       id="g2270"
       transform="translate(0.64645,-0.037989)">
      <g
         id="g1440"
         transform="matrix(0.2297,0,0,0.2297,4.9671,4.245)"
         style="fill:#ffffff;stroke:#000000">
        <path
           id="path1448"
           d="m 23.428,113.07 c 0,1.97 -1.6,3.57 -3.573,3.57 -1.974,0 -3.573,-1.6 -3.573,-3.57 0,-1.97 1.6,-3.57 3.573,-3.57 1.973,0 3.573,1.6 3.573,3.57 z"
           inkscape:connector-curvature="0" />
        <path
           id="path1456"
           d="m 23.428,63.07 c 0,1.973 -1.6,3.573 -3.573,3.573 -1.974,0 -3.573,-1.6 -3.573,-3.573 0,-1.974 1.6,-3.573 3.573,-3.573 1.973,0 3.573,1.6 3.573,3.573 z"
           inkscape:connector-curvature="0" />
      </g>
      <path
         id="path15570"
         d="m 9.995,29.952 c 0,0.454 -0.3675,0.821 -0.8207,0.821 -0.4535,0 -0.8207,-0.368 -0.8207,-0.821 0,-0.453 0.3675,-0.82 0.8207,-0.82 0.4532,0 0.8207,0.367 0.8207,0.82 z"
         inkscape:connector-curvature="0"
         style="fill:url(#radialGradient2283)" />
      <path
         id="path15577"
         d="m 9.995,18.467 c 0,0.453 -0.3675,0.821 -0.8207,0.821 -0.4535,0 -0.8207,-0.368 -0.8207,-0.821 0,-0.453 0.3675,-0.821 0.8207,-0.821 0.4532,0 0.8207,0.368 0.8207,0.821 z"
         inkscape:connector-curvature="0"
         style="fill:url(#radialGradient2285)" />
    </g>
    <path
       id="path15672"
       d="m 11.506,5.4943 v 37.907"
       inkscape:connector-curvature="0"
       style="fill:none;stroke:#000000;stroke-width:0.98855001;stroke-opacity:0.01754402" />
    <path
       id="path15674"
       d="m 12.5,5.0205 v 38.018"
       inkscape:connector-curvature="0"
       style="fill:none;stroke:#ffffff;stroke-opacity:0.20468002" />
  </g>
  <g
     id="layer5"
     transform="translate(-1.7654906,-2.9916072)">
    <g
       id="g2253"
       transform="matrix(0.90909,0,0,1,2.3636,0)"
       style="fill:#9b9b9b;fill-opacity:0.54970996">
      <rect
         id="rect15686"
         style="color:#000000;display:block"
         display="block"
         rx="0.15155999"
         ry="0.065390997"
         height="1"
         width="22"
         y="9"
         x="15" />
      <rect
         id="rect15688"
         style="color:#000000;display:block"
         display="block"
         rx="0.15155999"
         ry="0.065390997"
         height="1"
         width="22"
         y="11"
         x="15" />
      <rect
         id="rect15690"
         style="color:#000000;display:block"
         display="block"
         rx="0.15155999"
         ry="0.065390997"
         height="1"
         width="22"
         y="13"
         x="15" />
      <rect
         id="rect15692"
         style="color:#000000;display:block"
         display="block"
         rx="0.15155999"
         ry="0.065390997"
         height="1"
         width="22"
         y="15"
         x="15" />
      <rect
         id="rect15694"
         style="color:#000000;display:block"
         display="block"
         rx="0.15155999"
         ry="0.065390997"
         height="1"
         width="22"
         y="17"
         x="15" />
      <rect
         id="rect15696"
         style="color:#000000;display:block"
         display="block"
         rx="0.15155999"
         ry="0.065390997"
         height="1"
         width="22"
         y="19"
         x="15" />
      <rect
         id="rect15698"
         style="color:#000000;display:block"
         display="block"
         rx="0.15155999"
         ry="0.065390997"
         height="1"
         width="22"
         y="21"
         x="15" />
      <rect
         id="rect15700"
         style="color:#000000;display:block"
         display="block"
         rx="0.15155999"
         ry="0.065390997"
         height="1"
         width="22"
         y="23"
         x="15" />
      <rect
         id="rect15732"
         style="color:#000000;display:block"
         display="block"
         rx="0.068204001"
         ry="0.065390997"
         height="1"
         width="9.8999996"
         y="25"
         x="15" />
      <rect
         id="rect15736"
         style="color:#000000;display:block"
         display="block"
         rx="0.15155999"
         ry="0.065390997"
         height="1"
         width="22"
         y="29"
         x="15" />
      <rect
         id="rect15738"
         style="color:#000000;display:block"
         display="block"
         rx="0.15155999"
         ry="0.065390997"
         height="1"
         width="22"
         y="31"
         x="15" />
      <rect
         id="rect15740"
         style="color:#000000;display:block"
         display="block"
         rx="0.15155999"
         ry="0.065390997"
         height="1"
         width="22"
         y="33"
         x="15" />
      <rect
         id="rect15742"
         style="color:#000000;display:block"
         display="block"
         rx="0.15155999"
         ry="0.065390997"
         height="1"
         width="22"
         y="35"
         x="15" />
      <rect
         id="rect15744"
         style="color:#000000;display:block"
         display="block"
         rx="0.1061"
         ry="0.065390997"
         height="1"
         width="15.4"
         y="37"
         x="15" />
    </g>
    <g
       id="g7314"
       transform="matrix(1.1605,0,0,1.1605,1.8477,3.1195)">
      <path
         id="path4112"
         transform="matrix(0.58714,0,0,0.72995,11.299,4.3984)"
         d="m 45.053,38.909 a 20.203,7.4751 0 1 1 -40.406,0 20.203,7.4751 0 1 1 40.406,0 z"
         inkscape:connector-curvature="0"
         style="fill:url(#radialGradient7422)" />
      <path
         id="path3214"
         d="m 37.11,24.219 c 0,6.288 -5.098,11.385 -11.385,11.385 -6.288,0 -11.385,-5.097 -11.385,-11.385 0,-6.288 5.097,-11.385 11.385,-11.385 6.287,0 11.385,5.097 11.385,11.385 z"
         inkscape:connector-curvature="0"
         style="fill:url(#radialGradient7424);stroke:#39396c;stroke-width:1.7234" />
      <path
         id="path4348"
         transform="matrix(0.49081,0,0,0.58714,17.104,10.43)"
         d="m 30.709,15.271 a 12.93,9.2934 0 1 1 -25.86,0 12.93,9.2934 0 1 1 25.86,0 z"
         inkscape:connector-curvature="0"
         style="opacity:0.42158999;fill:url(#radialGradient7426)" />
      <g
         id="g4136"
         transform="matrix(0.57679,0,0,0.57679,11.37,10.566)"
         style="fill-opacity:0.71344999">
        <g
           id="g4138">
          <g
             id="g4142">
            <path
               id="path4144"
               d="m 44.071,20.714 -0.545,0.618 c -0.334,-0.394 -0.709,-0.725 -1.089,-1.071 l -0.836,0.123 -0.764,-0.863 v 1.068 l 0.654,0.495 0.436,0.494 0.582,-0.658 c 0.146,0.274 0.291,0.548 0.436,0.823 v 0.822 l -0.655,0.74 -1.199,0.823 -0.908,0.907 -0.582,-0.661 0.291,-0.74 -0.582,-0.658 -0.981,-2.098 -0.836,-0.945 -0.219,0.246 0.328,1.194 0.618,0.699 c 0.352,1.017 0.701,1.99 1.164,2.963 0.718,0 1.394,-0.077 2.107,-0.166 v 0.576 l -0.872,2.139 -0.8,0.904 -0.654,1.401 v 2.303 l 0.219,0.906 -0.364,0.41 -0.8,0.494 -0.836,0.699 0.691,0.782 -0.945,0.824 0.182,0.533 -1.418,1.606 h -0.945 l -0.8,0.494 H 33.64 v -0.659 l -0.217,-1.318 c -0.281,-0.826 -0.574,-1.647 -0.872,-2.467 0,-0.605 0.036,-1.205 0.072,-1.81 l 0.364,-0.823 -0.509,-0.988 0.037,-1.357 -0.692,-0.782 0.346,-1.13 -0.563,-0.639 h -0.982 l -0.327,-0.37 -0.981,0.618 -0.4,-0.454 -0.909,0.782 c -0.617,-0.7 -1.235,-1.399 -1.854,-2.098 l -0.726,-1.729 0.654,-0.986 -0.363,-0.411 0.799,-1.894 c 0.656,-0.816 1.341,-1.599 2.035,-2.385 l 1.236,-0.329 1.381,-0.165 0.945,0.248 1.345,1.356 0.473,-0.534 0.653,-0.082 1.236,0.411 h 0.946 l 0.654,-0.576 0.291,-0.411 -0.655,-0.412 -1.091,-0.082 C 35.663,17.045 35.382,16.603 35.022,16.23 l -0.364,0.164 -0.145,1.07 -0.655,-0.74 -0.144,-0.824 -0.727,-0.574 h -0.292 l 0.728,0.822 -0.291,0.74 -0.581,0.164 0.363,-0.74 -0.655,-0.328 -0.581,-0.658 -1.091,0.246 -0.145,0.328 -0.654,0.412 -0.363,0.906 -0.909,0.452 -0.4,-0.452 H 27.68 v -1.482 l 0.946,-0.494 h 0.726 l -0.146,-0.575 -0.58,-0.576 0.98,-0.206 0.545,-0.617 0.436,-0.741 h 0.801 l -0.219,-0.575 0.509,-0.329 v 0.658 l 1.09,0.246 1.09,-0.904 0.073,-0.412 0.945,-0.658 c -0.342,0.043 -0.684,0.074 -1.018,0.165 V 9.9766 l 0.363,-0.8228 h -0.363 l -0.798,0.7402 -0.219,0.412 0.219,0.576 -0.365,0.987 -0.581,-0.329 -0.508,-0.576 -0.8,0.576 -0.291,-1.316 1.381,-0.9052 V 8.8247 l 0.872,-0.5757 1.381,-0.3296 0.946,0.3296 1.744,0.3291 -0.436,0.4932 h -0.945 l 0.945,0.9877 0.727,-0.8227 0.221,-0.3618 c 0,0 2.787,2.4975 4.379,5.2305 1.593,2.733 2.341,5.955 2.341,6.609 z"
               inkscape:connector-curvature="0" />
          </g>
        </g>
        <g
           id="g4146">
          <g
             id="g4150">
            <path
               id="path4152"
               d="M 26.07,9.2363 25.997,9.7295 26.507,10.059 27.378,9.4829 26.942,8.9892 26.36,9.3188 26.07,9.2363"
               inkscape:connector-curvature="0" />
          </g>
        </g>
        <g
           id="g4154">
          <g
             id="g4158">
            <path
               id="path4160"
               d="M 26.87,5.8633 24.98,5.1226 22.8,5.3692 20.109,6.1094 19.601,6.6035 21.272,7.7549 V 8.4131 L 20.618,9.0713 21.491,10.8 22.071,10.47 22.8,9.3188 C 23.923,8.9716 24.93,8.5781 25.997,8.0844 L 26.87,5.8632"
               inkscape:connector-curvature="0" />
          </g>
        </g>
        <g
           id="g4162">
          <g
             id="g4166">
            <path
               id="path4168"
               d="m 28.833,12.775 -0.291,-0.741 -0.51,0.165 0.147,0.904 0.654,-0.328"
               inkscape:connector-curvature="0" />
          </g>
        </g>
        <g
           id="g4170">
          <g
             id="g4174">
            <path
               id="path4176"
               d="m 29.123,12.609 -0.145,0.988 0.799,-0.165 0.581,-0.575 -0.508,-0.494 c -0.171,-0.455 -0.368,-0.88 -0.582,-1.317 h -0.435 v 0.494 l 0.29,0.329 v 0.74"
               inkscape:connector-curvature="0" />
          </g>
        </g>
        <g
           id="g4178">
          <g
             id="g4182">
            <path
               id="path4184"
               d="m 18.365,28.242 -0.582,-1.152 -1.09,-0.247 -0.582,-1.562 -1.453,0.164 -1.236,-0.904 -1.309,1.151 v 0.182 C 11.717,25.759 11.23,25.744 10.878,25.527 L 10.587,24.705 V 23.799 L 9.7148,23.881 C 9.7876,23.305 9.8598,22.73 9.9331,22.154 H 9.4238 L 8.9155,22.812 8.4062,23.058 7.6791,22.648 7.6063,21.743 7.7518,20.755 8.8426,19.933 h 0.8721 l 0.145,-0.494 1.0903,0.246 0.8,0.988 0.145,-1.646 1.382,-1.152 0.508,-1.234 1.018,-0.411 0.581,-0.822 1.309,-0.248 0.654,-0.987 h -1.963 l 1.236,-0.576 h 0.872 l 1.236,-0.412 0.146,-0.492 -0.437,-0.412 -0.509,-0.165 0.146,-0.494 -0.363,-0.74 -0.873,0.328 0.146,-0.657 -1.018,-0.5765 -0.799,1.3975 0.072,0.494 -0.799,0.331 -0.51,1.069 -0.218,-0.987 -1.381,-0.577 -0.218,-0.74 1.817,-1.0701 0.8,-0.7402 0.073,-0.9048 -0.436,-0.2471 -0.582,-0.0825 -0.363,0.9053 c 0,0 -0.608,0.1191 -0.764,0.1577 -1.996,1.8397 -6.0294,5.8097 -6.9664,13.306 0.0371,0.174 0.6792,1.182 0.6792,1.182 l 1.5264,0.904 1.5264,0.412 0.6544,0.824 1.018,0.74 0.581,-0.082 0.436,0.196 v 0.133 l -0.581,1.563 -0.437,0.658 0.146,0.33 -0.363,1.233 1.308,2.386 1.308,1.153 0.582,0.822 -0.073,1.728 0.437,0.987 -0.437,1.892 c 0,0 -0.034,-0.011 0.022,0.178 0.056,0.19 2.329,1.451 2.473,1.344 0.144,-0.109 0.267,-0.205 0.267,-0.205 l -0.145,-0.41 0.581,-0.577 0.219,-0.576 0.945,-0.33 0.727,-1.81 -0.218,-0.493 0.508,-0.74 1.09,-0.248 0.582,-1.316 -0.145,-1.645 0.872,-1.234 0.145,-1.235 c -1.193,-0.591 -2.376,-1.201 -3.561,-1.81"
               inkscape:connector-curvature="0" />
          </g>
        </g>
        <g
           id="g4186">
          <g
             id="g4190">
            <path
               id="path4192"
               d="m 16.766,9.5649 0.726,0.4941 h 0.582 V 9.4829 L 17.348,9.1538 16.766,9.5649"
               inkscape:connector-curvature="0" />
          </g>
        </g>
        <g
           id="g4194">
          <g
             id="g4198">
            <path
               id="path4200"
               d="M 14.876,8.9072 14.512,9.812 h 0.727 L 15.603,8.9892 C 15.917,8.7675 16.229,8.5444 16.548,8.331 l 0.727,0.2471 c 0.484,0.3291 0.969,0.6582 1.454,0.9868 L 19.456,8.9072 18.656,8.5781 18.292,7.8374 16.911,7.6728 16.838,7.2612 16.184,7.4262 15.894,8.002 15.53,7.2613 l -0.145,0.3291 0.073,0.8228 -0.582,0.494"
               inkscape:connector-curvature="0" />
          </g>
        </g>
        <g
           id="g4202" />
        <g
           id="g4212" />
        <g
           id="g4222">
          <g
             id="g4226">
            <path
               id="path4228"
               d="M 17.492,6.8496 17.856,6.521 18.583,6.3564 C 19.081,6.1142 19.581,5.9511 20.11,5.7802 l -0.29,-0.4937 -0.939,0.1348 -0.443,0.4419 -0.731,0.106 -0.65,0.3052 -0.316,0.1528 -0.193,0.2583 0.944,0.1641"
               inkscape:connector-curvature="0" />
          </g>
        </g>
        <g
           id="g4230">
          <g
             id="g4234">
            <path
               id="path4236"
               d="m 18.728,14.666 0.437,-0.658 -0.655,-0.493 0.218,1.151"
               inkscape:connector-curvature="0" />
          </g>
        </g>
      </g>
      <g
         id="g3216"
         style="color:#000000;fill:url(#radialGradient23108)"
         transform="matrix(0.57679,0,0,0.57679,11.252,10.448)">
        <g
           id="g3218"
           style="color:#000000;fill:url(#radialGradient23048)">
          <g
             id="g3222"
             style="color:#000000;fill:url(#radialGradient23046)">
            <path
               id="path3224"
               style="color:#000000;fill:url(#radialGradient23044)"
               d="m 44.071,20.714 -0.545,0.618 c -0.334,-0.394 -0.709,-0.725 -1.089,-1.071 l -0.836,0.123 -0.764,-0.863 v 1.068 l 0.654,0.495 0.436,0.494 0.582,-0.658 c 0.146,0.274 0.291,0.548 0.436,0.823 v 0.822 l -0.655,0.74 -1.199,0.823 -0.908,0.907 -0.582,-0.661 0.291,-0.74 -0.582,-0.658 -0.981,-2.098 -0.836,-0.945 -0.219,0.246 0.328,1.194 0.618,0.699 c 0.352,1.017 0.701,1.99 1.164,2.963 0.718,0 1.394,-0.077 2.107,-0.166 v 0.576 l -0.872,2.139 -0.8,0.904 -0.654,1.401 v 2.303 l 0.219,0.906 -0.364,0.41 -0.8,0.494 -0.836,0.699 0.691,0.782 -0.945,0.824 0.182,0.533 -1.418,1.606 h -0.945 l -0.8,0.494 H 33.64 v -0.659 l -0.217,-1.318 c -0.281,-0.826 -0.574,-1.647 -0.872,-2.467 0,-0.605 0.036,-1.205 0.072,-1.81 l 0.364,-0.823 -0.509,-0.988 0.037,-1.357 -0.692,-0.782 0.346,-1.13 -0.563,-0.639 h -0.982 l -0.327,-0.37 -0.981,0.618 -0.4,-0.454 -0.909,0.782 c -0.617,-0.7 -1.235,-1.399 -1.854,-2.098 l -0.726,-1.729 0.654,-0.986 -0.363,-0.411 0.799,-1.894 c 0.656,-0.816 1.341,-1.599 2.035,-2.385 l 1.236,-0.329 1.381,-0.165 0.945,0.248 1.345,1.356 0.473,-0.534 0.653,-0.082 1.236,0.411 h 0.946 l 0.654,-0.576 0.291,-0.411 -0.655,-0.412 -1.091,-0.082 C 35.663,17.045 35.382,16.603 35.022,16.23 l -0.364,0.164 -0.145,1.07 -0.655,-0.74 -0.144,-0.824 -0.727,-0.574 h -0.292 l 0.728,0.822 -0.291,0.74 -0.581,0.164 0.363,-0.74 -0.655,-0.328 -0.581,-0.658 -1.091,0.246 -0.145,0.328 -0.654,0.412 -0.363,0.906 -0.909,0.452 -0.4,-0.452 H 27.68 v -1.482 l 0.946,-0.494 h 0.726 l -0.146,-0.575 -0.58,-0.576 0.98,-0.206 0.545,-0.617 0.436,-0.741 h 0.801 l -0.219,-0.575 0.509,-0.329 v 0.658 l 1.09,0.246 1.09,-0.904 0.073,-0.412 0.945,-0.658 c -0.342,0.043 -0.684,0.074 -1.018,0.165 V 9.9766 l 0.363,-0.8228 h -0.363 l -0.798,0.7402 -0.219,0.412 0.219,0.576 -0.365,0.987 -0.581,-0.329 -0.508,-0.576 -0.8,0.576 -0.291,-1.316 1.381,-0.9052 V 8.8247 l 0.872,-0.5757 1.381,-0.3296 0.946,0.3296 1.744,0.3291 -0.436,0.4932 h -0.945 l 0.945,0.9877 0.727,-0.8227 0.221,-0.3618 c 0,0 2.787,2.4975 4.379,5.2305 1.593,2.733 2.341,5.955 2.341,6.609 z"
               inkscape:connector-curvature="0" />
          </g>
        </g>
        <g
           id="g3226"
           style="color:#000000;fill:url(#radialGradient23054)">
          <g
             id="g3230"
             style="color:#000000;fill:url(#radialGradient23052)">
            <path
               id="path3232"
               style="color:#000000;fill:url(#radialGradient23050)"
               d="M 26.07,9.2363 25.997,9.7295 26.507,10.059 27.378,9.4829 26.942,8.9892 26.36,9.3188 26.07,9.2363"
               inkscape:connector-curvature="0" />
          </g>
        </g>
        <g
           id="g3234"
           style="color:#000000;fill:url(#radialGradient23060)">
          <g
             id="g3238"
             style="color:#000000;fill:url(#radialGradient23058)">
            <path
               id="path3240"
               style="color:#000000;fill:url(#radialGradient23056)"
               d="M 26.87,5.8633 24.98,5.1226 22.8,5.3692 20.109,6.1094 19.601,6.6035 21.272,7.7549 V 8.4131 L 20.618,9.0713 21.491,10.8 22.071,10.47 22.8,9.3188 C 23.923,8.9716 24.93,8.5781 25.997,8.0844 L 26.87,5.8632"
               inkscape:connector-curvature="0" />
          </g>
        </g>
        <g
           id="g3242"
           style="color:#000000;fill:url(#radialGradient23066)">
          <g
             id="g3246"
             style="color:#000000;fill:url(#radialGradient23064)">
            <path
               id="path3248"
               style="color:#000000;fill:url(#radialGradient23062)"
               d="m 28.833,12.775 -0.291,-0.741 -0.51,0.165 0.147,0.904 0.654,-0.328"
               inkscape:connector-curvature="0" />
          </g>
        </g>
        <g
           id="g3250"
           style="color:#000000;fill:url(#radialGradient23072)">
          <g
             id="g3254"
             style="color:#000000;fill:url(#radialGradient23070)">
            <path
               id="path3256"
               style="color:#000000;fill:url(#radialGradient23068)"
               d="m 29.123,12.609 -0.145,0.988 0.799,-0.165 0.581,-0.575 -0.508,-0.494 c -0.171,-0.455 -0.368,-0.88 -0.582,-1.317 h -0.435 v 0.494 l 0.29,0.329 v 0.74"
               inkscape:connector-curvature="0" />
          </g>
        </g>
        <g
           id="g3258"
           style="color:#000000;fill:url(#radialGradient23078)">
          <g
             id="g3262"
             style="color:#000000;fill:url(#radialGradient23076)">
            <path
               id="path3264"
               style="color:#000000;fill:url(#radialGradient23074)"
               d="m 18.365,28.242 -0.582,-1.152 -1.09,-0.247 -0.582,-1.562 -1.453,0.164 -1.236,-0.904 -1.309,1.151 v 0.182 C 11.717,25.759 11.23,25.744 10.878,25.527 L 10.587,24.705 V 23.799 L 9.7148,23.881 C 9.7876,23.305 9.8598,22.73 9.9331,22.154 H 9.4238 L 8.9155,22.812 8.4062,23.058 7.6791,22.648 7.6063,21.743 7.7518,20.755 8.8426,19.933 h 0.8721 l 0.145,-0.494 1.0903,0.246 0.8,0.988 0.145,-1.646 1.382,-1.152 0.508,-1.234 1.018,-0.411 0.581,-0.822 1.309,-0.248 0.654,-0.987 h -1.963 l 1.236,-0.576 h 0.872 l 1.236,-0.412 0.146,-0.492 -0.437,-0.412 -0.509,-0.165 0.146,-0.494 -0.363,-0.74 -0.873,0.328 0.146,-0.657 -1.018,-0.5765 -0.799,1.3975 0.072,0.494 -0.799,0.331 -0.51,1.069 -0.218,-0.987 -1.381,-0.577 -0.218,-0.74 1.817,-1.0701 0.8,-0.7402 0.073,-0.9048 -0.436,-0.2471 -0.582,-0.0825 -0.363,0.9053 c 0,0 -0.608,0.1191 -0.764,0.1577 -1.996,1.8397 -6.0294,5.8097 -6.9664,13.306 0.0371,0.174 0.6792,1.182 0.6792,1.182 l 1.5264,0.904 1.5264,0.412 0.6544,0.824 1.018,0.74 0.581,-0.082 0.436,0.196 v 0.133 l -0.581,1.563 -0.437,0.658 0.146,0.33 -0.363,1.233 1.308,2.386 1.308,1.153 0.582,0.822 -0.073,1.728 0.437,0.987 -0.437,1.892 c 0,0 -0.034,-0.011 0.022,0.178 0.056,0.19 2.329,1.451 2.473,1.344 0.144,-0.109 0.267,-0.205 0.267,-0.205 l -0.145,-0.41 0.581,-0.577 0.219,-0.576 0.945,-0.33 0.727,-1.81 -0.218,-0.493 0.508,-0.74 1.09,-0.248 0.582,-1.316 -0.145,-1.645 0.872,-1.234 0.145,-1.235 c -1.193,-0.591 -2.376,-1.201 -3.561,-1.81"
               inkscape:connector-curvature="0" />
          </g>
        </g>
        <g
           id="g3266"
           style="color:#000000;fill:url(#radialGradient23084)">
          <g
             id="g3270"
             style="color:#000000;fill:url(#radialGradient23082)">
            <path
               id="path3272"
               style="color:#000000;fill:url(#radialGradient23080)"
               d="m 16.766,9.5649 0.726,0.4941 h 0.582 V 9.4829 L 17.348,9.1538 16.766,9.5649"
               inkscape:connector-curvature="0" />
          </g>
        </g>
        <g
           id="g3274"
           style="color:#000000;fill:url(#radialGradient23090)">
          <g
             id="g3278"
             style="color:#000000;fill:url(#radialGradient23088)">
            <path
               id="path3280"
               style="color:#000000;fill:url(#radialGradient23086)"
               d="M 14.876,8.9072 14.512,9.812 h 0.727 L 15.603,8.9892 C 15.917,8.7675 16.229,8.5444 16.548,8.331 l 0.727,0.2471 c 0.484,0.3291 0.969,0.6582 1.454,0.9868 L 19.456,8.9072 18.656,8.5781 18.292,7.8374 16.911,7.6728 16.838,7.2612 16.184,7.4262 15.894,8.002 15.53,7.2613 l -0.145,0.3291 0.073,0.8228 -0.582,0.494"
               inkscape:connector-curvature="0" />
          </g>
        </g>
        <g
           id="g3282"
           style="color:#000000;fill:url(#radialGradient23092)" />
        <g
           id="g3292"
           style="color:#000000;fill:url(#radialGradient23094)" />
        <g
           id="g3302"
           style="color:#000000;fill:url(#radialGradient23100)">
          <g
             id="g3306"
             style="color:#000000;fill:url(#radialGradient23098)">
            <path
               id="path3308"
               style="color:#000000;fill:url(#radialGradient23096)"
               d="M 17.492,6.8496 17.856,6.521 18.583,6.3564 C 19.081,6.1142 19.581,5.9511 20.11,5.7802 l -0.29,-0.4937 -0.939,0.1348 -0.443,0.4419 -0.731,0.106 -0.65,0.3052 -0.316,0.1528 -0.193,0.2583 0.944,0.1641"
               inkscape:connector-curvature="0" />
          </g>
        </g>
        <g
           id="g3310"
           style="color:#000000;fill:url(#radialGradient23106)">
          <g
             id="g3314"
             style="color:#000000;fill:url(#radialGradient23104)">
            <path
               id="path3316"
               style="color:#000000;fill:url(#radialGradient23102)"
               d="m 18.728,14.666 0.437,-0.658 -0.655,-0.493 0.218,1.151"
               inkscape:connector-curvature="0" />
          </g>
        </g>
      </g>
      <path
         id="path4122"
         d="m 36.531,24.219 c 0,5.969 -4.838,10.807 -10.806,10.807 -5.969,0 -10.807,-4.838 -10.807,-10.807 0,-5.969 4.838,-10.807 10.807,-10.807 5.968,0 10.806,4.838 10.806,10.807 z"
         inkscape:connector-curvature="0"
         style="fill:none;stroke:url(#radialGradient7456)" />
    </g>
  </g>
  <metadata
     id="metadata22496">
    <rdf:RDF>
      <cc:Work>
        <dc:format>image/svg+xml</dc:format>
        <dc:type
           rdf:resource="http://purl.org/dc/dcmitype/StillImage" />
        <cc:license
           rdf:resource="http://creativecommons.org/publicdomain/zero/1.0/" />
        <dc:publisher>
          <cc:Agent
             rdf:about="http://openclipart.org/">
            <dc:title>Openclipart</dc:title>
          </cc:Agent>
        </dc:publisher>
        <dc:title></dc:title>
        <dc:date>2010-04-02T20:06:59</dc:date>
        <dc:description>An icon from Tango Project. Since version 0.8.90 Tango Project icons are Public Domain: </dc:description>
        <dc:source>http://openclipart.org/detail/36157/tango-text-html-by-warszawianka</dc:source>
        <dc:creator>
          <cc:Agent>
            <dc:title>warszawianka</dc:title>
          </cc:Agent>
        </dc:creator>
        <dc:subject>
          <rdf:Bag>
            <rdf:li>clip art</rdf:li>
            <rdf:li>clipart</rdf:li>
            <rdf:li>document</rdf:li>
            <rdf:li>earth</rdf:li>
            <rdf:li>externalsource</rdf:li>
            <rdf:li>globe</rdf:li>
            <rdf:li>icon</rdf:li>
            <rdf:li>internet</rdf:li>
            <rdf:li>paper</rdf:li>
            <rdf:li>planet</rdf:li>
            <rdf:li>sheet</rdf:li>
            <rdf:li>tango</rdf:li>
            <rdf:li>web</rdf:li>
          </rdf:Bag>
        </dc:subject>
      </cc:Work>
      <cc:License
         rdf:about="http://creativecommons.org/publicdomain/zero/1.0/">
        <cc:permits
           rdf:resource="http://creativecommons.org/ns#Reproduction" />
        <cc:permits
           rdf:resource="http://creativecommons.org/ns#Distribution" />
        <cc:permits
           rdf:resource="http://creativecommons.org/ns#DerivativeWorks" />
      </cc:License>
    </rdf:RDF>
  </metadata>
</svg>
