<?xml version="1.0" encoding="UTF-8" standalone="no"?>
<svg
   xmlns:dc="http://purl.org/dc/elements/1.1/"
   xmlns:cc="http://creativecommons.org/ns#"
   xmlns:rdf="http://www.w3.org/1999/02/22-rdf-syntax-ns#"
   xmlns:svg="http://www.w3.org/2000/svg"
   xmlns="http://www.w3.org/2000/svg"
   xmlns:sodipodi="http://sodipodi.sourceforge.net/DTD/sodipodi-0.dtd"
   xmlns:inkscape="http://www.inkscape.org/namespaces/inkscape"
   viewBox="0 0 24 24"
   version="1.1"
   id="svg1462"
   sodipodi:docname="word-cloud.svg"
   inkscape:version="0.92.4 (5da689c313, 2019-01-14)">
  <metadata
     id="metadata1468">
    <rdf:RDF>
      <cc:Work
         rdf:about="">
        <dc:format>image/svg+xml</dc:format>
        <dc:type
           rdf:resource="http://purl.org/dc/dcmitype/StillImage" />
      </cc:Work>
    </rdf:RDF>
  </metadata>
  <defs
     id="defs1466" />
  <sodipodi:namedview
     pagecolor="#ffffff"
     bordercolor="#666666"
     borderopacity="1"
     objecttolerance="10"
     gridtolerance="10"
     guidetolerance="10"
     inkscape:pageopacity="0"
     inkscape:pageshadow="2"
     inkscape:window-width="1024"
     inkscape:window-height="705"
     id="namedview1464"
     showgrid="false"
     inkscape:zoom="21.166667"
     inkscape:cx="12"
     inkscape:cy="12"
     inkscape:window-x="-8"
     inkscape:window-y="-8"
     inkscape:window-maximized="1"
     inkscape:current-layer="svg1462" />
  <g
     id="g1438"
     font-size="40"
     font-weight="400"
     style="font-weight:400;font-size:40px;line-height:1.25;font-family:sans-serif;letter-spacing:0;word-spacing:0;stroke-width:0.26499999;fill:#008080"
     aria-label="WORD">
    <path
       inkscape:connector-curvature="0"
       id="path1436"
       d="m 8.473,9.447 -0.89,3.42 H 7.072 L 6.352,10.028 5.65,12.868 H 5.149 L 4.244,9.448 H 4.71 l 0.72,2.843 0.707,-2.844 h 0.461 l 0.715,2.871 0.714,-2.87 z M 11.69,9.84 q 0.21,0.23 0.32,0.563 0.112,0.333 0.112,0.755 0,0.423 -0.114,0.758 -0.113,0.333 -0.317,0.556 -0.212,0.232 -0.501,0.35 -0.287,0.116 -0.657,0.116 -0.36,0 -0.657,-0.119 -0.294,-0.12 -0.5,-0.347 -0.207,-0.227 -0.32,-0.558 -0.11,-0.33 -0.11,-0.756 0,-0.418 0.11,-0.748 0.11,-0.334 0.322,-0.57 0.202,-0.225 0.5,-0.345 0.301,-0.12 0.655,-0.12 0.367,0 0.66,0.123 0.293,0.12 0.498,0.342 z m -0.04,1.318 q 0,-0.666 -0.3,-1.026 -0.298,-0.363 -0.815,-0.363 -0.521,0 -0.82,0.363 -0.296,0.36 -0.296,1.026 0,0.673 0.303,1.032 0.303,0.356 0.813,0.356 0.51,0 0.811,-0.356 0.303,-0.359 0.303,-1.032 z m 4.024,1.709 h -0.59 l -1.145,-1.36 h -0.64 v 1.36 h -0.455 v -3.42 h 0.958 q 0.31,0 0.516,0.041 0.207,0.04 0.372,0.143 0.186,0.117 0.29,0.296 0.106,0.177 0.106,0.45 0,0.37 -0.187,0.62 -0.186,0.249 -0.512,0.375 z M 14.61,10.41 q 0,-0.148 -0.053,-0.26 -0.05,-0.115 -0.17,-0.193 Q 14.288,9.89 14.153,9.865 14.017,9.838 13.833,9.838 h -0.535 v 1.29 h 0.46 q 0.216,0 0.377,-0.036 0.16,-0.04 0.273,-0.143 0.103,-0.096 0.152,-0.22 0.05,-0.127 0.05,-0.32 z m 4.394,0.75 q 0,0.467 -0.204,0.846 -0.202,0.379 -0.54,0.588 -0.234,0.145 -0.524,0.209 -0.287,0.064 -0.758,0.064 h -0.863 v -3.42 h 0.854 q 0.5,0 0.795,0.074 0.296,0.07 0.5,0.197 0.35,0.218 0.545,0.581 0.195,0.363 0.195,0.862 z m -0.475,-0.006 q 0,-0.402 -0.14,-0.678 Q 18.249,10.2 17.97,10.042 17.768,9.927 17.54,9.884 17.314,9.838 16.997,9.838 h -0.428 v 2.639 h 0.428 q 0.328,0 0.571,-0.048 0.246,-0.049 0.45,-0.18 0.256,-0.163 0.382,-0.43 0.129,-0.266 0.129,-0.665 z"
       style="fill:#008080" />
  </g>
  <text
     id="text1442"
     aria-label="Hello"
     font-size="401.757"
     font-weight="400"
     style="font-weight:400;font-size:39.99892426px;line-height:1.25;font-family:sans-serif;letter-spacing:0;word-spacing:0;stroke-width:0.26453093"
     x="9.8211861"
     y="7.0233812">
    <tspan
       id="tspan1440"
       font-size="53.568"
       x="9.8211861"
       y="7.0233812"
       style="font-size:5.33323002px;font-family:'Bauhaus 93';-inkscape-font-specification:'Bauhaus 93, Normal';font-variant-ligatures:normal;font-variant-caps:normal;font-variant-numeric:normal;font-feature-settings:normal;text-align:start;stroke-width:0.26453093">Info</tspan>
  </text>
  <g
     id="g1446"
     font-size="40"
     font-weight="400"
     style="font-weight:400;font-size:40px;line-height:1.25;font-family:sans-serif;letter-spacing:0;word-spacing:0;fill:#0000ff;stroke-width:0.26499999"
     aria-label="cloud">
    <path
       inkscape:connector-curvature="0"
       id="path1444"
       d="m 14.233,17.747 q -0.215,0.103 -0.41,0.16 -0.194,0.058 -0.412,0.058 -0.278,0 -0.51,-0.08 -0.232,-0.083 -0.397,-0.249 -0.168,-0.165 -0.26,-0.418 -0.092,-0.252 -0.092,-0.59 0,-0.63 0.345,-0.988 0.347,-0.358 0.914,-0.358 0.22,0 0.432,0.062 0.214,0.062 0.39,0.152 v 0.48 H 14.21 q -0.197,-0.154 -0.408,-0.237 -0.21,-0.083 -0.41,-0.083 -0.367,0 -0.58,0.248 -0.212,0.246 -0.212,0.724 0,0.464 0.207,0.714 0.21,0.248 0.586,0.248 0.13,0 0.266,-0.034 0.136,-0.035 0.244,-0.09 0.094,-0.048 0.177,-0.1 0.082,-0.056 0.13,-0.095 h 0.023 z m 0.993,0.16 h -0.432 v -3.574 h 0.432 z m 3.045,-1.281 q 0,0.627 -0.321,0.99 -0.322,0.363 -0.861,0.363 -0.545,0 -0.866,-0.363 -0.32,-0.363 -0.32,-0.99 0,-0.627 0.32,-0.99 0.321,-0.366 0.866,-0.366 0.54,0 0.86,0.366 0.322,0.363 0.322,0.99 z m -0.445,0 q 0,-0.499 -0.195,-0.74 -0.196,-0.243 -0.542,-0.243 -0.352,0 -0.547,0.243 -0.193,0.241 -0.193,0.74 0,0.482 0.195,0.732 0.195,0.248 0.545,0.248 0.344,0 0.54,-0.245 0.197,-0.248 0.197,-0.735 z m 3.244,1.281 h -0.433 v -0.284 q -0.218,0.172 -0.418,0.264 -0.2,0.092 -0.44,0.092 -0.405,0 -0.63,-0.246 -0.225,-0.248 -0.225,-0.726 v -1.665 h 0.432 v 1.46 q 0,0.196 0.018,0.336 0.018,0.138 0.078,0.236 0.062,0.102 0.16,0.147 0.1,0.046 0.288,0.046 0.168,0 0.365,-0.087 0.2,-0.087 0.372,-0.223 v -1.915 h 0.432 z m 2.93,0 h -0.432 v -0.268 q -0.186,0.16 -0.388,0.25 -0.202,0.09 -0.439,0.09 -0.46,0 -0.73,-0.354 -0.269,-0.354 -0.269,-0.981 0,-0.326 0.092,-0.581 0.094,-0.255 0.253,-0.434 0.156,-0.175 0.363,-0.267 0.209,-0.092 0.431,-0.092 0.203,0 0.359,0.044 0.156,0.041 0.328,0.131 V 14.333 H 24 Z m -0.432,-0.631 v -1.473 q -0.174,-0.078 -0.312,-0.108 -0.138,-0.03 -0.301,-0.03 -0.363,0 -0.565,0.253 -0.202,0.253 -0.202,0.717 0,0.457 0.156,0.696 0.156,0.236 0.5,0.236 0.184,0 0.373,-0.08 0.188,-0.083 0.351,-0.211 z"
       style="fill:#0000ff" />
  </g>
  <g
     id="g1450"
     font-size="40"
     font-weight="400"
     style="font-weight:400;font-size:40px;line-height:1.25;font-family:sans-serif;letter-spacing:0;word-spacing:0;fill:#aa0000;stroke-width:0.26499999"
     aria-label="text">
    <path
       inkscape:connector-curvature="0"
       id="path1448"
       d="m 20.712,4.653 q -0.031,-0.122 -0.05,-0.267 -0.02,-0.142 -0.02,-0.255 0.002,-0.393 0.215,-0.596 0.212,-0.203 0.678,-0.2 L 22.9,3.342 22.901,3.051 23.264,3.053 23.263,3.345 24,3.349 23.997,3.781 23.26,3.776 23.255,4.668 22.892,4.665 22.897,3.775 21.728,3.767 q -0.202,0 -0.317,0.008 -0.112,0.008 -0.212,0.063 -0.092,0.05 -0.136,0.137 -0.042,0.09 -0.043,0.27 0,0.106 0.029,0.221 0.031,0.115 0.052,0.166 v 0.023 z m 1.2,2.678 0.01,-1.89 Q 21.686,5.439 21.509,5.51 21.334,5.58 21.221,5.703 21.11,5.822 21.054,5.985 20.998,6.15 20.997,6.347 q -0.002,0.262 0.1,0.527 0.104,0.267 0.204,0.38 V 7.277 L 20.831,7.274 Q 20.74,7.056 20.679,6.828 20.619,6.6 20.619,6.35 20.624,5.711 20.97,5.355 q 0.349,-0.356 0.985,-0.353 0.63,0.004 0.997,0.348 0.368,0.347 0.365,0.907 -0.003,0.52 -0.308,0.798 -0.305,0.28 -0.863,0.277 z m 0.333,-0.418 q 0.34,0 0.527,-0.17 0.187,-0.166 0.19,-0.51 Q 22.963,5.886 22.76,5.678 22.557,5.472 22.254,5.443 Z M 20.657,10.2 20.66,9.655 21.65,8.933 20.669,8.194 l 0.003,-0.503 1.273,1.01 1.292,-0.985 -0.003,0.544 -0.973,0.718 0.965,0.731 -0.003,0.506 -1.258,-1.016 z m 0.013,1.895 q -0.032,-0.122 -0.052,-0.267 -0.02,-0.143 -0.02,-0.255 0.003,-0.393 0.215,-0.596 0.213,-0.203 0.68,-0.2 l 1.364,0.007 0.001,-0.291 0.363,0.002 -0.002,0.291 0.738,0.005 -0.003,0.432 -0.737,-0.005 -0.005,0.892 -0.363,-0.003 0.005,-0.89 -1.17,-0.008 q -0.201,0 -0.316,0.008 -0.113,0.008 -0.212,0.063 -0.092,0.05 -0.136,0.137 -0.042,0.09 -0.043,0.27 0,0.106 0.029,0.221 0.031,0.115 0.051,0.166 v 0.023 z"
       style="fill:#aa0000" />
  </g>
  <g
     id="g1454"
     font-size="40"
     font-weight="400"
     style="font-weight:400;font-size:40px;line-height:1.25;font-family:sans-serif;letter-spacing:0;word-spacing:0;stroke-width:0.26499999"
     aria-label="data">
    <path
       inkscape:connector-curvature="0"
       id="path1452"
       d="m 16.47,22.275 h -0.431 v -0.268 q -0.186,0.16 -0.388,0.25 -0.202,0.09 -0.44,0.09 -0.458,0 -0.73,-0.354 -0.268,-0.354 -0.268,-0.98 0,-0.327 0.092,-0.582 0.094,-0.255 0.252,-0.434 0.156,-0.175 0.363,-0.267 0.21,-0.091 0.432,-0.091 0.202,0 0.358,0.043 0.157,0.042 0.329,0.131 v -1.112 h 0.432 z M 16.039,21.644 V 20.17 q -0.175,-0.078 -0.313,-0.107 -0.137,-0.03 -0.3,-0.03 -0.363,0 -0.566,0.252 -0.202,0.253 -0.202,0.717 0,0.457 0.157,0.696 0.156,0.237 0.5,0.237 0.184,0 0.372,-0.08 0.189,-0.084 0.352,-0.212 z m 3.275,0.631 h -0.43 v -0.273 l -0.155,0.11 q -0.097,0.07 -0.189,0.11 -0.108,0.053 -0.248,0.088 -0.14,0.037 -0.328,0.037 -0.347,0 -0.588,-0.23 -0.242,-0.23 -0.242,-0.586 0,-0.291 0.124,-0.47 0.127,-0.182 0.359,-0.285 0.234,-0.104 0.563,-0.14 0.328,-0.037 0.705,-0.056 v -0.066 q 0,-0.147 -0.053,-0.244 -0.05,-0.096 -0.147,-0.151 -0.092,-0.053 -0.22,-0.072 -0.13,-0.018 -0.27,-0.018 -0.17,0 -0.378,0.046 -0.21,0.044 -0.432,0.129 h -0.023 v -0.44 q 0.126,-0.034 0.365,-0.075 0.239,-0.041 0.47,-0.041 0.272,0 0.472,0.046 0.202,0.043 0.349,0.151 0.145,0.106 0.22,0.274 0.076,0.167 0.076,0.415 z m -0.43,-0.631 v -0.715 q -0.197,0.012 -0.466,0.035 -0.266,0.023 -0.422,0.067 -0.186,0.052 -0.301,0.165 -0.115,0.11 -0.115,0.305 0,0.22 0.133,0.333 0.134,0.11 0.407,0.11 0.227,0 0.416,-0.087 0.188,-0.09 0.349,-0.213 z m 2.599,0.609 q -0.122,0.032 -0.267,0.052 -0.142,0.021 -0.255,0.021 -0.393,0 -0.597,-0.211 Q 20.16,21.903 20.16,21.437 V 20.073 H 19.868 V 19.71 h 0.292 v -0.738 h 0.431 v 0.738 h 0.892 v 0.363 h -0.892 v 1.169 q 0,0.202 0.01,0.317 0.009,0.112 0.064,0.211 0.05,0.092 0.138,0.136 0.09,0.041 0.27,0.041 0.106,0 0.221,-0.03 0.115,-0.032 0.166,-0.053 h 0.023 z M 24,22.275 h -0.43 v -0.273 l -0.156,0.11 q -0.096,0.07 -0.188,0.11 -0.108,0.053 -0.248,0.088 -0.14,0.037 -0.329,0.037 -0.346,0 -0.588,-0.23 -0.24,-0.23 -0.24,-0.586 0,-0.291 0.123,-0.47 0.127,-0.182 0.359,-0.285 0.234,-0.104 0.562,-0.14 0.329,-0.037 0.705,-0.056 v -0.066 q 0,-0.147 -0.052,-0.244 -0.05,-0.096 -0.147,-0.151 -0.092,-0.053 -0.22,-0.072 -0.13,-0.018 -0.27,-0.018 -0.17,0 -0.379,0.046 -0.209,0.044 -0.431,0.129 h -0.023 v -0.44 q 0.126,-0.034 0.365,-0.075 0.239,-0.041 0.47,-0.041 0.272,0 0.472,0.046 0.202,0.043 0.349,0.151 0.144,0.106 0.22,0.274 Q 24,20.286 24,20.534 Z m -0.43,-0.631 v -0.715 q -0.197,0.012 -0.466,0.035 -0.266,0.023 -0.422,0.067 -0.186,0.052 -0.301,0.165 -0.115,0.11 -0.115,0.305 0,0.22 0.133,0.333 0.133,0.11 0.407,0.11 0.227,0 0.415,-0.087 0.189,-0.09 0.35,-0.213 z" />
  </g>
  <g
     id="g1458"
     font-size="1.206"
     font-weight="700"
     aria-label="Analysis"
     style="font-weight:700;font-size:1.20599997px;line-height:1.25;font-family:sans-serif;letter-spacing:0;word-spacing:0;fill:#999999;stroke-width:0.07">
    <path
       inkscape:connector-curvature="0"
       id="path1456"
       d="m 3.346,19.877 v 0.914 l -0.647,0.238 v 1.27 l 0.647,0.238 v 0.892 L 0.144,22.162 v -1.018 z m -1.234,1.365 -1.149,0.422 1.149,0.421 z m 1.234,-4.415 v 0.834 H 2.148 q -0.146,0 -0.29,0.016 -0.146,0.015 -0.215,0.055 -0.08,0.046 -0.116,0.136 -0.037,0.087 -0.037,0.246 0,0.113 0.035,0.23 0.034,0.115 0.11,0.252 h 1.711 v 0.829 H 0.931 v -0.83 H 1.198 Q 1.036,18.375 0.95,18.172 0.864,17.967 0.864,17.718 q 0,-0.42 0.228,-0.654 0.228,-0.237 0.682,-0.237 z m -0.63,-2.33 H 2.213 q 0.013,0.168 0.036,0.363 0.022,0.196 0.052,0.298 0.037,0.124 0.108,0.191 0.068,0.065 0.182,0.065 0.076,0 0.123,-0.016 0.047,-0.016 0.09,-0.07 0.043,-0.052 0.065,-0.126 0.02,-0.074 0.02,-0.23 0,-0.125 -0.048,-0.252 -0.048,-0.129 -0.125,-0.225 z m 0.374,0 q 0.048,0.067 0.114,0.166 0.067,0.099 0.106,0.186 0.051,0.122 0.075,0.254 0.026,0.131 0.026,0.287 0,0.369 -0.213,0.618 -0.213,0.248 -0.544,0.248 -0.265,0 -0.432,-0.126 Q 2.054,16.003 1.957,15.77 1.86,15.54 1.819,15.2 1.779,14.858 1.759,14.492 H 1.746 q -0.2,0 -0.275,0.175 -0.077,0.175 -0.077,0.516 0,0.205 0.069,0.437 0.066,0.233 0.103,0.334 V 16.03 H 0.983 Q 0.951,15.899 0.908,15.604 0.863,15.307 0.863,15.01 q 0,-0.707 0.204,-1.02 0.202,-0.316 0.636,-0.316 h 1.643 v 0.822 z m 0.256,-2.414 v 0.83 H 0 v -0.83 z M 2.492,10.132 0.932,9.542 V 8.691 l 3.3,1.437 v 0.898 L 3.329,10.616 0.93,11.622 v -0.87 z M 2.58,5.984 q 0.375,0 0.605,0.36 0.228,0.359 0.228,0.983 0,0.346 -0.06,0.627 -0.06,0.28 -0.134,0.451 H 2.583 V 8.33 L 2.673,8.188 Q 2.72,8.105 2.776,7.955 2.826,7.825 2.862,7.662 2.897,7.499 2.897,7.312 2.897,7.068 2.847,6.951 2.795,6.833 2.697,6.833 2.608,6.833 2.57,6.903 2.529,6.972 2.492,7.165 2.472,7.257 2.452,7.416 2.428,7.573 2.395,7.702 2.309,8.054 2.129,8.225 1.946,8.395 1.675,8.395 1.327,8.395 1.097,8.043 0.864,7.688 0.864,7.075 0.864,6.785 0.92,6.52 0.974,6.253 1.036,6.103 H 1.647 V 6.175 Q 1.529,6.359 1.456,6.596 1.38,6.831 1.38,7.073 q 0,0.2 0.052,0.338 0.052,0.136 0.146,0.136 0.086,0 0.131,-0.062 Q 1.755,7.423 1.799,7.192 1.824,7.065 1.847,6.92 1.869,6.773 1.903,6.625 1.983,6.298 2.155,6.142 2.325,5.985 2.58,5.985 Z M 3.346,4.603 V 5.432 H 0.931 V 4.602 Z M 0.587,4.579 V 5.454 H 0 V 4.58 Z M 2.58,1.572 q 0.375,0 0.605,0.36 0.228,0.359 0.228,0.983 0,0.345 -0.06,0.626 -0.06,0.28 -0.134,0.451 H 2.583 V 3.917 L 2.673,3.774 Q 2.72,3.691 2.776,3.541 2.826,3.412 2.862,3.249 2.897,3.085 2.897,2.899 2.897,2.654 2.847,2.537 2.795,2.42 2.697,2.42 2.608,2.42 2.57,2.489 2.529,2.559 2.492,2.751 2.472,2.844 2.452,3.002 2.428,3.159 2.395,3.288 2.309,3.64 2.129,3.811 1.946,3.981 1.675,3.981 1.327,3.981 1.097,3.629 0.864,3.274 0.864,2.662 0.864,2.372 0.92,2.107 0.974,1.839 1.036,1.69 H 1.647 V 1.761 Q 1.529,1.946 1.456,2.183 1.38,2.418 1.38,2.66 q 0,0.2 0.052,0.338 0.052,0.136 0.146,0.136 0.086,0 0.131,-0.062 Q 1.755,3.01 1.799,2.779 1.824,2.652 1.847,2.507 1.869,2.36 1.903,2.212 1.983,1.885 2.155,1.729 2.325,1.572 2.58,1.572 Z"
       style="-inkscape-font-specification:'sans-serif, Bold';font-variant-ligatures:normal;font-variant-caps:normal;font-variant-numeric:normal;font-feature-settings:normal;text-align:start" />
  </g>
</svg>
